<svg xmlns="http://www.w3.org/2000/svg" width="101.476" height="137.057" viewBox="0 0 101.476 137.057"><path d="M8.012,123.917V14.563A7.044,7.044,0,0,1,15.056,7.52H98.42a7.044,7.044,0,0,1,7.044,7.044V133.509a7.044,7.044,0,0,1-7.044,7.044H27.735Zm0,0" transform="translate(-6.001 -5.507)" fill="#e6f2ec"/><path d="M333.223,133.505V14.561a7.045,7.045,0,0,0-7.046-7.046h-7.153a7.045,7.045,0,0,1,7.046,7.046V133.505a7.045,7.045,0,0,1-7.046,7.046h7.153A7.045,7.045,0,0,0,333.223,133.505Zm0,0" transform="translate(-233.757 -5.504)" fill="#d5e2db"/><path d="M8.012,442.34l19.723,16.636V443.681a1.341,1.341,0,0,0-1.341-1.342Zm0,0" transform="translate(-6.001 -323.929)" fill="#bececc"/><path d="M8.012,14.561V44h97.454V14.561A7.045,7.045,0,0,0,98.42,7.516H15.057A7.045,7.045,0,0,0,8.012,14.561Zm0,0" transform="translate(-6.001 -5.504)" fill="#ff5426"/><path d="M332.871,14.561V44h-7.282V14.561a7.045,7.045,0,0,0-7.046-7.046h7.282A7.045,7.045,0,0,1,332.871,14.561Zm0,0" transform="translate(-233.406 -5.504)" fill="#f04424"/><path d="M283.446,409.735a9.832,9.832,0,1,1-9.832-9.832A9.832,9.832,0,0,1,283.446,409.735Zm0,0" transform="translate(-193.303 -292.852)" fill="#fa0"/><path d="M293.924,410.55a9.834,9.834,0,0,1-15.835,7.788,9.834,9.834,0,0,0,8.413-17.323A9.835,9.835,0,0,1,293.924,410.55Zm0,0" transform="translate(-203.781 -293.667)" fill="#ff9500"/><path d="M42.394,182.394h6.852a2.011,2.011,0,0,0,0-4.023H42.394a2.011,2.011,0,0,0,0,4.023Zm0,0" transform="translate(-29.707 -130.623)"/><path d="M98.426,180.383a2.011,2.011,0,0,0,2.011,2.011h16.658a2.011,2.011,0,1,0,0-4.023H100.437A2.011,2.011,0,0,0,98.426,180.383Zm0,0" transform="translate(-72.212 -130.623)"/><path d="M197.394,182.394h5.364a2.011,2.011,0,1,0,0-4.023h-5.364a2.011,2.011,0,0,0,0,4.023Zm0,0" transform="translate(-143.214 -130.623)"/><path d="M252.324,182.394h5.364a2.011,2.011,0,0,0,0-4.023h-5.364a2.011,2.011,0,1,0,0,4.023Zm0,0" transform="translate(-183.44 -130.623)"/><path d="M306.644,182.394h5.364a2.011,2.011,0,0,0,0-4.023h-5.364a2.011,2.011,0,0,0,0,4.023Zm0,0" transform="translate(-223.219 -130.623)"/><path d="M42.394,220.464h6.852a2.011,2.011,0,0,0,0-4.023H42.394a2.011,2.011,0,0,0,0,4.023Zm0,0" transform="translate(-29.707 -158.502)"/><path d="M100.437,220.464h16.658a2.011,2.011,0,1,0,0-4.023H100.437a2.011,2.011,0,0,0,0,4.023Zm0,0" transform="translate(-72.212 -158.502)"/><path d="M197.394,220.464h5.364a2.011,2.011,0,1,0,0-4.023h-5.364a2.011,2.011,0,0,0,0,4.023Zm0,0" transform="translate(-143.214 -158.502)"/><path d="M252.324,220.464h5.364a2.011,2.011,0,0,0,0-4.023h-5.364a2.011,2.011,0,1,0,0,4.023Zm0,0" transform="translate(-183.44 -158.502)"/><path d="M306.644,220.464h5.364a2.011,2.011,0,0,0,0-4.023h-5.364a2.011,2.011,0,0,0,0,4.023Zm0,0" transform="translate(-223.219 -158.502)"/><path d="M51.258,256.526a2.012,2.012,0,0,0-2.012-2.011H42.394a2.011,2.011,0,0,0,0,4.023h6.852A2.012,2.012,0,0,0,51.258,256.526Zm0,0" transform="translate(-29.707 -186.384)"/><path d="M100.437,258.538h16.658a2.011,2.011,0,1,0,0-4.023H100.437a2.011,2.011,0,0,0,0,4.023Zm0,0" transform="translate(-72.212 -186.384)"/><path d="M197.394,258.538h5.364a2.011,2.011,0,1,0,0-4.023h-5.364a2.011,2.011,0,0,0,0,4.023Zm0,0" transform="translate(-143.214 -186.384)"/><path d="M252.324,258.538h5.364a2.011,2.011,0,0,0,0-4.023h-5.364a2.011,2.011,0,1,0,0,4.023Zm0,0" transform="translate(-183.44 -186.384)"/><path d="M306.644,258.538h5.364a2.011,2.011,0,0,0,0-4.023h-5.364a2.011,2.011,0,0,0,0,4.023Zm0,0" transform="translate(-223.219 -186.384)"/><path d="M60.258,304.214v-5.77c2.2.164,2.951,1.213,3.868,1.213,1.213,0,1.738-1.508,1.738-2.262,0-1.9-3.475-2.525-5.606-2.59v-.853c0-.426-.557-.819-1.115-.819-.623,0-1.115.393-1.115.819v.918c-3.278.427-6.36,2.229-6.36,6.393,0,4.2,3.376,5.475,6.36,6.59v6.524c-2.885-.327-3.868-2.458-5.114-2.458-1.016,0-1.836,1.377-1.836,2.3,0,1.835,2.983,3.966,6.951,4.064v.918c0,.427.491.82,1.115.82.557,0,1.115-.393,1.115-.82V318.18c3.671-.59,6.2-2.917,6.2-6.951C66.455,306.771,63.175,305.3,60.258,304.214Zm-1.967-.72c-1.509-.591-2.623-1.213-2.623-2.656,0-1.245.983-2.033,2.623-2.3ZM60,314.344v-5.7c1.41.623,2.459,1.41,2.459,3.016A2.68,2.68,0,0,1,60,314.344Zm0,0" transform="translate(-37.539 -214.664)"/><path d="M155.865,306.566h-16.01a2.011,2.011,0,0,0,0,4.023h16.01a2.011,2.011,0,1,0,0-4.023Zm0,0" transform="translate(-101.078 -224.501)"/><path d="M233.983,310.59H250.32a2.012,2.012,0,1,0,0-4.024H233.983a2.012,2.012,0,0,0,0,4.024Zm0,0" transform="translate(-170.009 -224.501)"/><path d="M137.844,341.468a2.011,2.011,0,0,0,2.011,2.012h35.592a2.011,2.011,0,0,0,0-4.023H139.855A2.011,2.011,0,0,0,137.844,341.468Zm0,0" transform="translate(-101.078 -248.587)"/><path d="M150.762,372.566H139.855a2.011,2.011,0,0,0,0,4.023h10.907a2.011,2.011,0,1,0,0-4.023Zm0,0" transform="translate(-101.078 -272.834)"/><path d="M226.9,374.578a2.012,2.012,0,0,0-2.012-2.012H215.41a2.011,2.011,0,1,0,0,4.023h9.481A2.011,2.011,0,0,0,226.9,374.578Zm0,0" transform="translate(-156.407 -272.834)"/><path d="M92.919,0H9.557A9.068,9.068,0,0,0,.5,9.058V118.411a1.883,1.883,0,0,0,.714,1.538l7.863,6.632,10.865,9.163c.673.569,1.34,1.313,2.292,1.313H92.919A9.066,9.066,0,0,0,101.975,128V38.52c0-.008,0-.017,0-.025V9.058A9.067,9.067,0,0,0,92.919,0Zm-72.7,130.718-2.715-2.288-9.493-8.008H20.223ZM97.952,36.483H39.571a2.011,2.011,0,1,0,0,4.023H97.952V128a5.038,5.038,0,0,1-5.033,5.032H24.246V119.751a3.356,3.356,0,0,0-3.352-3.352H4.523V40.506H30.229a2.011,2.011,0,0,0,0-4.023H4.523V9.058A5.037,5.037,0,0,1,9.555,4.024H92.919a5.038,5.038,0,0,1,5.033,5.033Zm0,0" transform="translate(-0.5)"/><path d="M117.762,38.054c0-.826-.383-1.711-1.209-1.711h-12.48c-.826,0-1.21.885-1.21,1.711,0,.944.443,1.741,1.21,1.741h4.336V56.7c0,.8.944,1.209,1.918,1.209.944,0,1.918-.413,1.918-1.209V39.8h4.308C117.32,39.8,117.762,38.969,117.762,38.054Zm0,0" transform="translate(-75.462 -26.615)"/><path d="M165.012,36.981c-.266-.885-1.357-1.3-2.478-1.3a2.4,2.4,0,0,0-2.449,1.3l-5.695,18.557a1.7,1.7,0,0,0-.059.295c0,.944,1.387,1.593,2.42,1.593.648,0,1.15-.206,1.3-.766l1.121-3.924h6.756l1.122,3.924c.146.56.648.766,1.3.766,1.032,0,2.419-.679,2.419-1.593a1.3,1.3,0,0,0-.059-.295Zm-5.045,12.746,2.567-9.058,2.566,9.058Zm0,0" transform="translate(-113.153 -26.131)"/><path d="M228.588,46.709l4.927-8.29a1.588,1.588,0,0,0,.266-.826c0-1.033-1.357-1.8-2.449-1.8a1.432,1.432,0,0,0-1.3.826l-4.013,7.228-4.011-7.228a1.391,1.391,0,0,0-1.269-.826c-1.092,0-2.448.766-2.448,1.8a1.6,1.6,0,0,0,.265.826l4.927,8.29-5.1,8.319a1.538,1.538,0,0,0-.235.709c0,1.062,1.474,1.918,2.508,1.918a1.229,1.229,0,0,0,1.062-.62l4.306-7.582,4.337,7.582a1.145,1.145,0,0,0,1.033.62c1.061,0,2.508-.856,2.508-1.918a1.472,1.472,0,0,0-.206-.709Zm0,0" transform="translate(-159.883 -26.212)"/><path d="M268.113,392.387a11.969,11.969,0,0,0-1.8.136,2.011,2.011,0,0,0,.605,3.977,7.925,7.925,0,0,1,1.19-.09,7.821,7.821,0,1,1-7.821,7.822,7.734,7.734,0,0,1,.837-3.524,2.012,2.012,0,0,0-3.591-1.814,11.723,11.723,0,0,0-1.268,5.338,11.843,11.843,0,1,0,11.843-11.844Zm0,0" transform="translate(-187.802 -287.348)"/></svg>