<svg id="_006-experience" data-name="006-experience" xmlns="http://www.w3.org/2000/svg" width="117.232" height="124.228" viewBox="0 0 117.232 124.228">
  <g id="Group_897" data-name="Group 897" transform="translate(1.82 1.82)">
    <g id="Group_893" data-name="Group 893">
      <g id="Group_883" data-name="Group 883" transform="translate(0 0)">
        <path id="Path_5366" data-name="Path 5366" d="M104.592,128.088H28.781a6.865,6.865,0,0,1-6.866-6.866V14.366A6.866,6.866,0,0,1,28.781,7.5h75.81a6.865,6.865,0,0,1,6.866,6.866V121.223A6.866,6.866,0,0,1,104.592,128.088Z" transform="translate(-21.916 -7.5)" fill="#ffe8d2"/>
      </g>
      <g id="Group_884" data-name="Group 884" transform="translate(0)">
        <path id="Path_5367" data-name="Path 5367" d="M104.591,7.5H98.26V38.732A75.075,75.075,0,0,1,23.181,113.8H21.916v7.42a6.865,6.865,0,0,0,6.866,6.865h75.81a6.865,6.865,0,0,0,6.866-6.865V14.365A6.865,6.865,0,0,0,104.591,7.5Z" transform="translate(-21.916 -7.5)" fill="#f7d4ad"/>
      </g>
      <g id="Group_892" data-name="Group 892" transform="translate(31.139 11.208)">
        <g id="Group_890" data-name="Group 890" transform="translate(0 1.091)">
          <g id="Group_885" data-name="Group 885" transform="translate(0 20.159)">
            <path id="Path_5368" data-name="Path 5368" d="M172.948,159.162H154.737a4.481,4.481,0,0,1-4.4-5.324l.715-3.737a8.04,8.04,0,0,1,5.147-6.036l7.7-2.792,7.638,2.77a8.017,8.017,0,0,1,3.95,3.109v0a8,8,0,0,1,1.214,3.02l.664,3.716A4.481,4.481,0,0,1,172.948,159.162Z" transform="translate(-150.253 -141.273)" fill="#b8b6ff"/>
          </g>
          <g id="Group_886" data-name="Group 886" transform="translate(9.243 15.927)">
            <path id="Path_5369" data-name="Path 5369" d="M196.957,129.6l-4.307,3.759-4.3-3.759v-5.771h8.611Z" transform="translate(-188.346 -123.831)" fill="#ecbd83"/>
          </g>
          <g id="Group_887" data-name="Group 887" transform="translate(6.707)">
            <path id="Path_5370" data-name="Path 5370" d="M191.574,63.937v4.891a6.962,6.962,0,0,1-6.974,6.991,6.84,6.84,0,0,1-6.706-6.838V63.937c0-3.777,3.062-5.748,6.84-5.748S191.574,60.16,191.574,63.937Z" transform="translate(-177.895 -58.189)" fill="#f7d4ad"/>
          </g>
          <g id="Group_888" data-name="Group 888" transform="translate(0 26.037)">
            <path id="Path_5371" data-name="Path 5371" d="M156.69,170.906v6.6h-1.953a4.481,4.481,0,0,1-4.4-5.324l.715-3.737a7.97,7.97,0,0,1,1.212-2.95A5.515,5.515,0,0,1,156.69,170.906Z" transform="translate(-150.253 -165.498)" fill="#a09eef"/>
          </g>
          <g id="Group_889" data-name="Group 889" transform="translate(20.812 26.04)">
            <path id="Path_5372" data-name="Path 5372" d="M237.913,177.519H236.03v-6.6a5.515,5.515,0,0,1,4.417-5.4,8,8,0,0,1,1.214,3.02l.664,3.716A4.482,4.482,0,0,1,237.913,177.519Z" transform="translate(-236.03 -165.512)" fill="#a09eef"/>
          </g>
        </g>
        <g id="Group_891" data-name="Group 891" transform="translate(6.707)">
          <path id="Path_5373" data-name="Path 5373" d="M191.574,60.2c-.256.2-.447.338-.447.338a12.323,12.323,0,0,1-1.574.762c-2.565,1.026-5.073,1.064-6.286.214a12.594,12.594,0,0,1-1.741-1.548c-.474-.6-1.983-.756-3.234.572a1.13,1.13,0,0,1-.4.284v-.284a6.844,6.844,0,0,1,13.68-.338Z" transform="translate(-177.894 -53.694)" fill="#6e4848"/>
        </g>
      </g>
    </g>
    <g id="Group_894" data-name="Group 894" transform="translate(81.154 45.501)">
      <path id="Path_5374" data-name="Path 5374" d="M371.587,231.625l-6.209-4.86a.976.976,0,0,0-1.2,0l-6.209,4.86a.976.976,0,0,1-1.577-.768V196.009a.976.976,0,0,1,.976-.976h14.823a.976.976,0,0,1,.976.976v34.848A.976.976,0,0,1,371.587,231.625Z" transform="translate(-356.39 -195.033)" fill="#ff445c"/>
    </g>
    <g id="Group_895" data-name="Group 895" transform="translate(65.496 8.964)">
      <path id="Path_5375" data-name="Path 5375" d="M339.947,68.489c0,3.063-3.41,5.425-4.515,8.089-1.145,2.761-.448,6.833-2.529,8.913s-6.152,1.383-8.913,2.527c-2.663,1.1-5.026,4.514-8.089,4.514s-5.426-3.41-8.089-4.514c-2.761-1.145-6.833-.447-8.913-2.527s-1.384-6.152-2.528-8.913c-1.1-2.663-4.515-5.026-4.515-8.089s3.41-5.425,4.515-8.089c1.145-2.761.448-6.833,2.529-8.913s6.152-1.383,8.913-2.527c2.663-1.1,5.026-4.514,8.089-4.514s5.426,3.41,8.089,4.514c2.761,1.145,6.833.447,8.913,2.527s1.383,6.152,2.528,8.913C336.537,63.064,339.947,65.426,339.947,68.489Z" transform="translate(-291.856 -44.446)" fill="#ff8b59"/>
    </g>
    <g id="Group_896" data-name="Group 896" transform="translate(78.005 20.925)">
      <path id="Path_5376" data-name="Path 5376" d="M355.346,93.953l3.855,5.757a.48.48,0,0,0,.268.194l6.667,1.886a.479.479,0,0,1,.246.757l-4.285,5.445a.479.479,0,0,0-.1.314l.266,6.923a.479.479,0,0,1-.644.468l-6.5-2.392a.478.478,0,0,0-.331,0l-6.5,2.392a.479.479,0,0,1-.644-.468l.266-6.923a.478.478,0,0,0-.1-.314l-4.285-5.445a.479.479,0,0,1,.246-.757l6.667-1.886a.48.48,0,0,0,.268-.194l3.855-5.757a.479.479,0,0,1,.8,0Z" transform="translate(-343.412 -93.741)" fill="#fee07d"/>
    </g>
  </g>
  <g id="Group_898" data-name="Group 898" transform="translate(0 0)">
    <path id="Path_5377" data-name="Path 5377" d="M152.175,69.582l-2.1.761a9.9,9.9,0,0,0-6.314,7.4l-.713,3.736a6.3,6.3,0,0,0,6.188,7.487h18.211a6.3,6.3,0,0,0,6.2-7.41l-.665-3.716a9.876,9.876,0,0,0-6.335-7.523l-2.227-.807V66.231a1.81,1.81,0,0,0-.022-.271,8.93,8.93,0,0,0,2.556-6.218V54.852a8.66,8.66,0,0,0-17.319,0V59.9a8.637,8.637,0,0,0,2.551,6.111,1.8,1.8,0,0,0-.015.224Zm17.229,8.9.665,3.716a2.662,2.662,0,0,1-2.622,3.13H149.235a2.66,2.66,0,0,1-2.614-3.163l.713-3.736a6.238,6.238,0,0,1,3.979-4.667l1.376-.5c.034.035.069.071.107.1a8.394,8.394,0,0,0,11,0,1.794,1.794,0,0,0,.158-.158l1.452.526A6.223,6.223,0,0,1,169.4,78.485ZM153.278,54.852a5.017,5.017,0,0,1,9.876-1.249c-.234.114-.474.222-.72.321-2.238.9-4.045.777-4.561.415a1.82,1.82,0,0,0-2.09,2.98,6.026,6.026,0,0,0,3.472.935,12.11,12.11,0,0,0,4.063-.774v2.264a5.27,5.27,0,0,1-1.579,3.737,5.086,5.086,0,0,1-1.568,1.052q-.06.023-.118.05a4.7,4.7,0,0,1-1.855.332,5.044,5.044,0,0,1-4.921-5.019Zm4.851,13.7h.166a8.443,8.443,0,0,0,2.49-.375v2.911a4.752,4.752,0,0,1-4.97,0v-2.9A8.541,8.541,0,0,0,158.129,68.553Z" transform="translate(-111.751 -34.985)"/>
    <path id="Path_5378" data-name="Path 5378" d="M82.584,339.543h56.672a1.82,1.82,0,1,0,0-3.639H82.584a1.82,1.82,0,1,0,0,3.639Z" transform="translate(-64.666 -254.403)"/>
    <path id="Path_5379" data-name="Path 5379" d="M82.584,379.984h56.672a1.82,1.82,0,1,0,0-3.639H82.584a1.82,1.82,0,1,0,0,3.639Z" transform="translate(-64.666 -285.032)"/>
    <path id="Path_5380" data-name="Path 5380" d="M82.584,420.423h56.672a1.82,1.82,0,1,0,0-3.639H82.584a1.82,1.82,0,0,0,0,3.639Z" transform="translate(-64.666 -315.659)"/>
    <path id="Path_5381" data-name="Path 5381" d="M82.584,460.865h56.672a1.82,1.82,0,0,0,0-3.64H82.584a1.82,1.82,0,0,0,0,3.64Z" transform="translate(-64.666 -346.288)"/>
    <path id="Path_5382" data-name="Path 5382" d="M80.764,256.844a1.819,1.819,0,0,0,1.82,1.82h56.672a1.82,1.82,0,0,0,0-3.639H82.584a1.82,1.82,0,0,0-1.82,1.82Z" transform="translate(-64.666 -193.147)"/>
    <path id="Path_5383" data-name="Path 5383" d="M82.584,299.1h56.672a1.82,1.82,0,1,0,0-3.639H82.584a1.82,1.82,0,1,0,0,3.639Z" transform="translate(-64.666 -223.775)"/>
    <path id="Path_5384" data-name="Path 5384" d="M54.868,339.529a1.827,1.827,0,1,0-1.827-1.827A1.827,1.827,0,0,0,54.868,339.529Z" transform="translate(-43.669 -254.382)"/>
    <path id="Path_5385" data-name="Path 5385" d="M54.868,258.649a1.827,1.827,0,1,0-1.827-1.827A1.827,1.827,0,0,0,54.868,258.649Z" transform="translate(-43.669 -193.126)"/>
    <path id="Path_5386" data-name="Path 5386" d="M54.868,299.089a1.827,1.827,0,1,0-1.827-1.827A1.827,1.827,0,0,0,54.868,299.089Z" transform="translate(-43.669 -223.754)"/>
    <path id="Path_5387" data-name="Path 5387" d="M54.868,379.969a1.827,1.827,0,1,0-1.827-1.827A1.827,1.827,0,0,0,54.868,379.969Z" transform="translate(-43.669 -285.01)"/>
    <path id="Path_5388" data-name="Path 5388" d="M54.868,420.41a1.827,1.827,0,1,0-1.827-1.827A1.827,1.827,0,0,0,54.868,420.41Z" transform="translate(-43.669 -315.638)"/>
    <path id="Path_5389" data-name="Path 5389" d="M54.868,460.85a1.827,1.827,0,1,0-1.827-1.827A1.827,1.827,0,0,0,54.868,460.85Z" transform="translate(-43.669 -346.266)"/>
    <path id="Path_5390" data-name="Path 5390" d="M128.748,28.66a12.581,12.581,0,0,1-1.764-2.616,13.263,13.263,0,0,1-.656-3.249c-.265-2.14-.565-4.567-2.258-6.259s-4.119-1.993-6.26-2.257a13.267,13.267,0,0,1-3.25-.656,12.57,12.57,0,0,1-2.617-1.763A13.708,13.708,0,0,0,107.6,9.235V8.685A8.7,8.7,0,0,0,98.911,0H23.1a8.7,8.7,0,0,0-8.686,8.685v7.024a1.82,1.82,0,0,0,3.639,0V8.685A5.052,5.052,0,0,1,23.1,3.639H98.911a5.052,5.052,0,0,1,5.046,5.046v.551a13.712,13.712,0,0,0-4.347,2.623,12.585,12.585,0,0,1-2.616,1.763,13.29,13.29,0,0,1-3.25.656c-2.14.264-4.567.564-6.26,2.257s-1.993,4.119-2.258,6.26a13.265,13.265,0,0,1-.656,3.249,12.57,12.57,0,0,1-1.764,2.616c-1.36,1.721-2.9,3.671-2.9,6.167s1.541,4.446,2.9,6.167A12.58,12.58,0,0,1,84.57,43.61a13.263,13.263,0,0,1,.656,3.249c.265,2.14.565,4.566,2.258,6.259s4.119,1.993,6.26,2.257c.638.079,1.257.156,1.828.263V83.146a2.794,2.794,0,0,0,4.518,2.2l3.868-3.029v33.226a5.052,5.052,0,0,1-5.046,5.046H23.1a5.052,5.052,0,0,1-5.046-5.046V23.722a1.82,1.82,0,0,0-3.639,0v91.82a8.7,8.7,0,0,0,8.686,8.685H98.911a8.7,8.7,0,0,0,8.686-8.685V82.316l3.868,3.029a2.8,2.8,0,0,0,4.52-2.2V62.838a1.82,1.82,0,1,0-3.639,0V81.412l-4.837-3.787a2.8,2.8,0,0,0-3.455-.006L99.21,81.41V57.481l.4.314c1.721,1.36,3.671,2.9,6.168,2.9s4.447-1.541,6.167-2.9a12.588,12.588,0,0,1,2.617-1.764,13.29,13.29,0,0,1,3.25-.656c2.14-.264,4.567-.564,6.26-2.257s1.993-4.119,2.257-6.259a13.275,13.275,0,0,1,.656-3.249,12.571,12.571,0,0,1,1.764-2.616c1.36-1.721,2.9-3.671,2.9-6.167s-1.541-4.446-2.9-6.167Zm-2.856,10.077a15.245,15.245,0,0,0-2.27,3.479,16,16,0,0,0-.906,4.2c-.211,1.71-.411,3.324-1.219,4.132s-2.423,1.007-4.133,1.219a16.009,16.009,0,0,0-4.2.906,15.244,15.244,0,0,0-3.479,2.27c-1.378,1.088-2.679,2.116-3.911,2.116s-2.534-1.028-3.911-2.116a15.252,15.252,0,0,0-3.479-2.27c-.088-.036-.178-.067-.267-.1a1.8,1.8,0,0,0-.192-.072,18.1,18.1,0,0,0-3.739-.733c-1.71-.211-3.325-.411-4.133-1.219s-1.007-2.422-1.219-4.132a16.008,16.008,0,0,0-.906-4.2,15.253,15.253,0,0,0-2.27-3.479c-1.088-1.378-2.116-2.679-2.116-3.91s1.028-2.533,2.116-3.911a15.245,15.245,0,0,0,2.27-3.479,15.994,15.994,0,0,0,.906-4.2c.211-1.71.411-3.324,1.219-4.132S92.48,18.1,94.19,17.89a16.009,16.009,0,0,0,4.2-.906,15.245,15.245,0,0,0,3.479-2.27c1.375-1.086,2.674-2.112,3.9-2.116h.014c1.23,0,2.529,1.03,3.9,2.116a15.253,15.253,0,0,0,3.479,2.27,16,16,0,0,0,4.2.906c1.71.211,3.325.411,4.133,1.219s1.008,2.422,1.219,4.132a16.006,16.006,0,0,0,.906,4.2,15.253,15.253,0,0,0,2.27,3.479c1.088,1.378,2.116,2.679,2.116,3.911s-1.028,2.533-2.116,3.91Z" transform="translate(-14.416 0)"/>
    <path id="Path_5391" data-name="Path 5391" d="M360.95,94.36l-6.192-1.752-3.581-5.348a2.3,2.3,0,0,0-3.82,0l-3.581,5.348-6.193,1.752a2.3,2.3,0,0,0-1.18,3.633l3.98,5.057-.247,6.429a2.3,2.3,0,0,0,3.09,2.247l6.04-2.222,6.04,2.222a2.3,2.3,0,0,0,3.091-2.245l-.247-6.43,3.98-5.057a2.3,2.3,0,0,0-1.18-3.633Zm-5.966,6.828a2.3,2.3,0,0,0-.49,1.509l.189,4.922-4.623-1.7a2.3,2.3,0,0,0-1.588,0l-4.623,1.7.189-4.923a2.306,2.306,0,0,0-.491-1.508l-3.046-3.87,4.741-1.341a2.3,2.3,0,0,0,1.283-.933l2.741-4.093,2.74,4.093a2.3,2.3,0,0,0,1.284.934l4.74,1.341Z" transform="translate(-257.906 -65.316)"/>
  </g>
</svg>
