<svg id="_001-cash-only" data-name="001-cash-only" xmlns="http://www.w3.org/2000/svg" width="105.922" height="156.006" viewBox="0 0 105.922 156.006">
  <g id="Group_865" data-name="Group 865" transform="translate(2.284 14.928)">
    <path id="Path_5126" data-name="Path 5126" d="M140.169,51.4l2.867,76.963a2.5,2.5,0,0,1-2.41,2.6l-45.478,1.694a2.5,2.5,0,0,1-2.6-2.41L89.685,53.283a2.5,2.5,0,0,1,2.41-2.6l45.478-1.694a2.5,2.5,0,0,1,2.6,2.41Z" transform="translate(-89.683 -48.991)" fill="#6dc17d"/>
    <g id="Group_864" data-name="Group 864" transform="translate(0 1.292)">
      <path id="Path_5127" data-name="Path 5127" d="M98.176,290.923l-.4-10.832A13.344,13.344,0,0,1,111.6,292.929l-10.832.4A2.5,2.5,0,0,1,98.176,290.923Z" transform="translate(-95.308 -210.961)" fill="#c8ead0"/>
      <path id="Path_5128" data-name="Path 5128" d="M90.088,67.063l-.4-10.832a2.5,2.5,0,0,1,2.41-2.6l10.832-.4A13.344,13.344,0,0,1,90.088,67.063Z" transform="translate(-89.683 -53.232)" fill="#c8ead0"/>
    </g>
  </g>
  <path id="Path_5129" data-name="Path 5129" d="M308.106,112.055,298.8,138.949v24.814H267.621V57.668l38.554,44.395a10.166,10.166,0,0,1,1.931,9.992Z" transform="translate(-211.119 -40.097)" fill="#faa68e"/>
  <path id="Path_5130" data-name="Path 5130" d="M267.621,380.226H298.8v7.811H267.621Z" transform="translate(-211.119 -264.372)" fill="#e09380"/>
  <path id="Path_5131" data-name="Path 5131" d="M306.175,102.063,267.621,57.668V69.752l29.119,33.53a10.166,10.166,0,0,1,1.931,9.993l-9.309,26.893v23.6H298.8V138.949l9.31-26.893a10.167,10.167,0,0,0-1.931-9.993Z" transform="translate(-211.119 -40.097)" fill="#e09380"/>
  <g id="Group_866" data-name="Group 866" transform="translate(13.143 2.285)">
    <path id="Path_5132" data-name="Path 5132" d="M199.285,26.427,172.944,98.8a2.5,2.5,0,0,1-3.21,1.5L126.969,84.73a2.5,2.5,0,0,1-1.5-3.21L151.813,9.149a2.5,2.5,0,0,1,3.21-1.5l42.765,15.565a2.5,2.5,0,0,1,1.5,3.21Z" transform="translate(-125.32 -7.5)" fill="#94d4a2"/>
    <path id="Path_5133" data-name="Path 5133" d="M283.683,53.457l-6.772-2.465a2.34,2.34,0,0,1,1.143,3.081l-26.341,72.371a2.339,2.339,0,0,1-2.856,1.626l6.772,2.465a2.5,2.5,0,0,0,3.21-1.5L285.18,56.667A2.5,2.5,0,0,0,283.683,53.457Z" transform="translate(-211.215 -37.74)" fill="#6dc17d"/>
    <path id="Path_5134" data-name="Path 5134" d="M200.1,19.334l3.707-10.185a2.5,2.5,0,0,1,3.21-1.5L217.2,11.359A13.344,13.344,0,0,1,200.1,19.334Z" transform="translate(-177.315 -7.5)" fill="#c8ead0"/>
    <path id="Path_5135" data-name="Path 5135" d="M327.882,46.915l10.185,3.707a2.5,2.5,0,0,1,1.5,3.21l-3.707,10.185A13.344,13.344,0,0,1,327.882,46.915Z" transform="translate(-265.599 -34.905)" fill="#c8ead0"/>
    <path id="Path_5136" data-name="Path 5136" d="M340.938,52.453l-4.014-1.461a2.34,2.34,0,0,1,1.143,3.081l-2.9,7.962a13.276,13.276,0,0,0,6.317,4.817l3.707-10.185a2.5,2.5,0,0,0-1.5-3.21Z" transform="translate(-271.228 -37.74)" fill="#c0e6c9"/>
    <path id="Path_5137" data-name="Path 5137" d="M125.472,227.185,129.179,217a13.344,13.344,0,0,1,7.975,17.1L126.969,230.4a2.5,2.5,0,0,1-1.5-3.21Z" transform="translate(-125.32 -153.166)" fill="#c8ead0"/>
    <path id="Path_5138" data-name="Path 5138" d="M254.757,271.861l-3.707,10.186a2.5,2.5,0,0,1-3.21,1.5l-10.185-3.707A13.344,13.344,0,0,1,254.757,271.861Z" transform="translate(-203.426 -190.749)" fill="#f1cd88"/>
    <path id="Path_5139" data-name="Path 5139" d="M258.839,282.05l3.707-10.185a13.277,13.277,0,0,0-7.935-.37l-2.9,7.962a2.34,2.34,0,0,1-2.856,1.626l6.772,2.465A2.5,2.5,0,0,0,258.839,282.05Z" transform="translate(-211.215 -190.752)" fill="#ebb34c"/>
    <ellipse id="Ellipse_47" data-name="Ellipse 47" cx="9.426" cy="7.701" rx="9.426" ry="7.701" transform="translate(26.609 52.676) rotate(-70.007)" fill="#f1cd88"/>
  </g>
  <path id="Path_5140" data-name="Path 5140" d="M237.489,217.68h.877a9.288,9.288,0,0,1,9.288,9.287v33.4h-5.5A13.951,13.951,0,0,1,228.2,246.415V226.967A9.287,9.287,0,0,1,237.489,217.68Z" transform="translate(-183.711 -151.353)" fill="#faa68e"/>
  <path id="Path_5141" data-name="Path 5141" d="M290.354,419.185H246.006V408.744a2.882,2.882,0,0,1,2.882-2.882h38.584a2.882,2.882,0,0,1,2.882,2.882v10.441Z" transform="translate(-196.09 -282.196)" fill="#e3e0e4"/>
  <path id="Path_5142" data-name="Path 5142" d="M360.72,405.863h-9.366a2.882,2.882,0,0,1,2.882,2.882v10.441H363.6V408.745A2.882,2.882,0,0,0,360.72,405.863Z" transform="translate(-269.339 -282.197)" fill="#c5bec6"/>
  <path id="Path_5143" data-name="Path 5143" d="M221.383,449.587h50.812a6.142,6.142,0,0,1,6.142,6.142v10.59h-63.1v-10.59A6.142,6.142,0,0,1,221.383,449.587Z" transform="translate(-174.699 -312.598)" fill="#eec06b"/>
  <path id="Path_5144" data-name="Path 5144" d="M380.786,449.587H371.42a6.142,6.142,0,0,1,6.142,6.142v10.59h9.366v-10.59A6.142,6.142,0,0,0,380.786,449.587Z" transform="translate(-283.291 -312.598)" fill="#e9a761"/>
  <g id="Group_867" data-name="Group 867" transform="translate(0 0)">
    <path id="Path_5145" data-name="Path 5145" d="M219.639,144.733a8.73,8.73,0,0,0,2.995.529,9.8,9.8,0,0,0,5.017-1.444,12.81,12.81,0,0,0,5.378-6.674c2.208-6.068-.2-12.537-5.378-14.421s-11.18,1.521-13.389,7.589a12.813,12.813,0,0,0-.17,8.57,9.261,9.261,0,0,0,5.548,5.851Zm-1.083-12.857c1.122-3.083,3.654-5.11,6.091-5.11a4.2,4.2,0,0,1,1.44.252c2.806,1.021,3.993,4.862,2.647,8.562a8.233,8.233,0,0,1-3.42,4.309,4.476,4.476,0,0,1-6.908-2.514A8.23,8.23,0,0,1,218.555,131.876Z" transform="translate(-173.443 -84.969)"/>
    <path id="Path_5146" data-name="Path 5146" d="M179.682,134.7h-.947v-8.156a5.173,5.173,0,0,0-5.167-5.167h-1.419V99.237l9.184-26.53a12.486,12.486,0,0,0-2.365-12.239L175.432,56.4a2.285,2.285,0,1,0-3.451,3l3.535,4.071a7.9,7.9,0,0,1,1.5,7.747L167.7,98.105a2.286,2.286,0,0,0-.126.747v22.529H140.973c0-2.651,0-12.359,0-12.567a2.288,2.288,0,0,0-1.967-2.2,11.7,11.7,0,0,1-10.04-11.553V75.615a7.01,7.01,0,0,1,7-7h.877a7.01,7.01,0,0,1,7,7v21.84a2.285,2.285,0,1,0,4.57,0V85.261l13.594-37.348,2.907,3.347a2.285,2.285,0,1,0,3.451-3L163.8,43l7.646-21.007a4.8,4.8,0,0,0-2.866-6.138C163.866,14.143,132.471,2.714,125.814.291a4.788,4.788,0,0,0-6.138,2.862L116,13.254,86.8,14.342a4.789,4.789,0,0,0-4.608,4.965l.4,10.82s0,.007,0,.011,0,.007,0,.011l.3,8.041a2.285,2.285,0,0,0,2.282,2.2l.087,0a2.285,2.285,0,0,0,2.2-2.369l-.222-5.934A15.64,15.64,0,0,0,99.917,18.426l14.395-.536L97.046,65.327l-.005.012,0,.012-3.7,10.174A4.79,4.79,0,0,0,96.2,81.662l28.2,10.263v3.1l-21.592.8a15.644,15.644,0,0,0-13.659-12.68L87.856,48.667a2.285,2.285,0,1,0-4.567.17l1.363,36.586s0,.008,0,.012,0,.008,0,.012l.4,10.819a4.8,4.8,0,0,0,4.783,4.612c.06,0,.121,0,.181,0l35.017-1.3A16.337,16.337,0,0,0,136.4,110.737v10.644h-1.418a5.173,5.173,0,0,0-5.167,5.167V134.7h-.947a8.437,8.437,0,0,0-8.427,8.427v10.59a2.285,2.285,0,0,0,2.285,2.285h38.786a2.285,2.285,0,1,0,0-4.57h-36.5v-8.3a3.861,3.861,0,0,1,3.857-3.857h50.812a3.861,3.861,0,0,1,3.857,3.857v8.3h-11.36a2.285,2.285,0,1,0,0,4.57h13.645a2.285,2.285,0,0,0,2.285-2.285v-10.59a8.437,8.437,0,0,0-8.427-8.427ZM167.147,20.433,164.3,28.247a11.067,11.067,0,0,1-5.1-10.941l7.816,2.844a.221.221,0,0,1,.131.282ZM123.971,4.714a.207.207,0,0,1,.111-.121.214.214,0,0,1,.168-.007l7.814,2.844a11.091,11.091,0,0,1-10.937,5.1ZM92.485,24.24a10.981,10.981,0,0,1-5.418,3.206l-.31-8.31a.218.218,0,0,1,.212-.227l8.31-.31A10.984,10.984,0,0,1,92.485,24.24Zm5.152,53.014a.21.21,0,0,1-.008-.167l2.844-7.815a11.067,11.067,0,0,1,5.1,10.94l-7.816-2.845A.21.21,0,0,1,97.637,77.255Zm12.3,4.546a15.641,15.641,0,0,0-7.876-16.89L119.539,16.89a15.653,15.653,0,0,0,16.885-7.873l18.414,6.7a15.641,15.641,0,0,0,7.877,16.891L148.075,72.833a11.592,11.592,0,0,0-11.232-8.791h-.877a11.586,11.586,0,0,0-11.572,11.572V87.062ZM89.851,96.308a.214.214,0,0,1-.227-.211l-.31-8.312A11.071,11.071,0,0,1,98.162,96Zm44.536,30.24a.6.6,0,0,1,.6-.6h38.583a.6.6,0,0,1,.6.6V134.7H134.387Z" transform="translate(-82.187 0)"/>
  </g>
</svg>
