<svg id="_14-Medicine" data-name="14-Medicine" xmlns="http://www.w3.org/2000/svg" width="167.888" height="200.174" viewBox="0 0 167.888 200.174">
  <path id="Path_5156" data-name="Path 5156" d="M68.115,21V40.372H10V21H68.115Z" transform="translate(2.914 43.572)" fill="#5b849a"/>
  <path id="Path_5157" data-name="Path 5157" d="M68.115,24v9.686H10V24H68.115Z" transform="translate(2.914 50.258)" fill="#7cb6d3"/>
  <path id="Path_5158" data-name="Path 5158" d="M70.2,7.457V20.372H25V7.457A6.477,6.477,0,0,1,31.457,1H63.743A6.477,6.477,0,0,1,70.2,7.457Z" transform="translate(36.344 -1)" fill="#85c4e5"/>
  <path id="Path_5159" data-name="Path 5159" d="M63.743,1H31.457A6.477,6.477,0,0,0,25,7.457v9.686a6.477,6.477,0,0,1,6.457-6.457H63.743A6.477,6.477,0,0,1,70.2,17.143V7.457A6.477,6.477,0,0,0,63.743,1Z" transform="translate(36.344 -1)" fill="#72a7c2"/>
  <path id="Path_5160" data-name="Path 5160" d="M61.469,19.914H26.6A62.9,62.9,0,0,0,27.891,7H60.178a62.9,62.9,0,0,0,1.291,12.914Z" transform="translate(39.91 12.372)" fill="#9ed4f0"/>
  <path id="Path_5161" data-name="Path 5161" d="M65.058,36.457V78.429H48.914l2.066,35.515H36V30H64.8C64.961,32.034,65.058,34.2,65.058,36.457Z" transform="translate(60.859 63.63)" fill="#85c4e5"/>
  <path id="Path_5162" data-name="Path 5162" d="M96.178,72.344h-28.8v83.944H82.36l.613,10.267a12.876,12.876,0,0,0,12.882,12.333H48.007a6.477,6.477,0,0,0,6.457-6.457V85.258c0-12.914-19.372-12.914-19.372-12.914V62.658H41.55V43.286H21.92C27.6,32.955,34.286,24.14,37.03,11H71.9c4.843,23.246,21.987,32.964,24.279,61.344Z" transform="translate(29.48 21.286)" fill="#e7f7ff"/>
  <path id="Path_5163" data-name="Path 5163" d="M27.891,7A62.9,62.9,0,0,1,26.6,19.914H39.514A62.9,62.9,0,0,0,40.806,7Z" transform="translate(39.91 12.372)" fill="#9ed4f0"/>
  <path id="Path_5164" data-name="Path 5164" d="M37.03,11C34.286,24.14,27.6,32.955,21.92,43.286H34.834C40.517,32.955,47.2,24.14,49.944,11Z" transform="translate(29.48 21.286)" fill="#bae6fd"/>
  <path id="Path_5165" data-name="Path 5165" d="M58.286,150.145V62.972c0-12.914-19.372-12.914-19.372-12.914V40.372h6.457V21H32.457V40.372H26v9.686s19.372,0,19.372,12.914v87.173a6.477,6.477,0,0,1-6.457,6.457H51.829a6.477,6.477,0,0,0,6.457-6.457Z" transform="translate(38.572 43.572)" fill="#bae6fd"/>
  <path id="Path_5166" data-name="Path 5166" d="M87.687,67.6l.743-12.914H49.686L50.428,67.6l1.033,17.6a8.62,8.62,0,0,0,8.588,8.233H78.065A8.62,8.62,0,0,0,86.654,85.2ZM42.066,80.515,40,45H98.115l-2.68,45.782a12.876,12.876,0,0,1-12.882,12.333H55.562A12.876,12.876,0,0,1,42.68,90.782Z" transform="translate(69.773 97.059)" fill="#f4fcff"/>
  <path id="Path_5167" data-name="Path 5167" d="M81.743,48,81,60.914H43.743L43,48Z" transform="translate(76.459 103.745)" fill="#fdc1c8"/>
  <path id="Path_5168" data-name="Path 5168" d="M80.488,52,79.455,69.6a8.62,8.62,0,0,1-8.588,8.233H52.851A8.62,8.62,0,0,1,44.263,69.6L43.23,52Z" transform="translate(76.972 112.659)" fill="#fc6a78"/>
  <path id="Path_5169" data-name="Path 5169" d="M43,48l.743,12.914h9.686L52.686,48Z" transform="translate(76.459 103.745)" fill="#fc8f99"/>
  <path id="Path_5170" data-name="Path 5170" d="M53.949,69.6,52.916,52H43.23l1.033,17.6a8.62,8.62,0,0,0,8.588,8.233h9.686A8.62,8.62,0,0,1,53.949,69.6Z" transform="translate(76.972 112.659)" fill="#d64351"/>
  <path id="Path_5171" data-name="Path 5171" d="M89.944,49.6v87.173a6.477,6.477,0,0,1-6.457,6.457H12.457A6.477,6.477,0,0,1,6,136.773V120.63H77.03V56.058H6V49.6C6,36.686,25.372,36.686,25.372,36.686V27h45.2v9.686S89.944,36.686,89.944,49.6Z" transform="translate(-6 56.944)" fill="#a4e3fd"/>
  <path id="Path_5172" data-name="Path 5172" d="M89.944,49.6v87.173a6.477,6.477,0,0,1-6.457,6.457H12.457A6.477,6.477,0,0,1,6,136.773V120.63H77.03V56.058H6V49.6C6,36.686,25.372,36.686,25.372,36.686V27h45.2v9.686S89.944,36.686,89.944,49.6Z" transform="translate(-6 56.944)" fill="#a4e3fd"/>
  <g id="Group_865" data-name="Group 865" transform="translate(0 83.944)">
    <path id="Path_5173" data-name="Path 5173" d="M34.914,36.686V27H22v9.686s19.372,0,19.372,12.914v87.173a6.477,6.477,0,0,1-6.457,6.457H47.829a6.477,6.477,0,0,0,6.457-6.457V49.6C54.286,36.686,34.914,36.686,34.914,36.686Z" transform="translate(29.658 -27)" fill="#85c4e5"/>
    <path id="Path_5174" data-name="Path 5174" d="M18.914,72.143V56H6V72.143A6.477,6.477,0,0,0,12.457,78.6H25.372a6.477,6.477,0,0,1-6.457-6.457Z" transform="translate(-6 37.63)" fill="#85c4e5"/>
    <path id="Path_5175" data-name="Path 5175" d="M18.914,49.6c0-12.914,19.372-12.914,19.372-12.914V27H25.372v9.686S6,36.686,6,49.6v6.457H18.914Z" transform="translate(-6 -27)" fill="#85c4e5"/>
  </g>
  <path id="Path_5176" data-name="Path 5176" d="M77.03,36v64.572H6V36ZM60.887,74.743V61.829H47.972V48.914H35.058V61.829H22.143V74.743H35.058V87.658H47.972V74.743Z" transform="translate(-6 77.002)" fill="#fff"/>
  <path id="Path_5177" data-name="Path 5177" d="M49.743,52.914V65.829H36.829V78.743H23.914V65.829H11V52.914H23.914V40H36.829V52.914Z" transform="translate(5.143 85.916)" fill="#fc6a78"/>
  <path id="Path_5178" data-name="Path 5178" d="M39,33H58.372v6.457H39Z" transform="translate(67.544 70.316)" fill="#4b6f80"/>
  <path id="Path_5179" data-name="Path 5179" d="M39,37H58.372v6.457H39Z" transform="translate(67.544 79.23)" fill="#4b6f80"/>
  <path id="Path_5180" data-name="Path 5180" d="M49,29H68.372v6.457H49Z" transform="translate(89.831 61.401)" fill="#fc6a78"/>
  <path id="Path_5181" data-name="Path 5181" d="M0,0H18.264V6.457H0Z" transform="translate(136.524 81.669) rotate(-45)" fill="#fc6a78"/>
  <path id="Path_5182" data-name="Path 5182" d="M0,0H6.457V18.264H0Z" transform="translate(136.521 105.607) rotate(-45)" fill="#fc6a78"/>
  <path id="Path_5183" data-name="Path 5183" d="M6,36H18.914v64.572H6Z" transform="translate(-6 77.002)" fill="#e7f7ff"/>
</svg>
