<svg id="Flat_Icon" data-name="Flat Icon" xmlns="http://www.w3.org/2000/svg" width="198.48" height="200.174" viewBox="0 0 198.48 200.174">
  <path id="Path_5184" data-name="Path 5184" d="M4.118,64.127h0a6.9,6.9,0,0,1,2.623-9.352L95.572,4.768a13.8,13.8,0,0,1,13.528,0l89.107,50.006a6.9,6.9,0,0,1,2.623,9.421h0a6.9,6.9,0,0,1-9.387,2.623L104.165,17.744a3.451,3.451,0,0,0-3.451,0L13.5,66.749a6.9,6.9,0,0,1-9.387-2.623Z" transform="translate(-3.248 -2.997)" fill="#a1d51c"/>
  <path id="Path_5185" data-name="Path 5185" d="M92.517,7.6a3.451,3.451,0,0,0-3.451,0L8,53.153V193.026H173.653V53.153Z" transform="translate(8.4 7.149)" fill="#57b7eb"/>
  <path id="Path_5186" data-name="Path 5186" d="M70.43,31.929,89.135,21.4a3.451,3.451,0,0,1,3.451,0l81.066,45.554v-13.8L92.517,7.6a3.451,3.451,0,0,0-3.451,0L8,53.153V193.026H173.653V172.319h-66.5A74.992,74.992,0,0,1,32.158,97.327h0a74.958,74.958,0,0,1,38.273-65.4Z" transform="translate(8.4 7.149)" fill="#4891d3"/>
  <rect id="Rectangle_1914" data-name="Rectangle 1914" width="138.044" height="113.886" transform="translate(30.204 86.288)" fill="#2d72bc"/>
  <path id="Path_5187" data-name="Path 5187" d="M31,32H72.413a13.8,13.8,0,0,1,13.8,13.8V87.218h-13.8A41.413,41.413,0,0,1,31,45.8Z" transform="translate(64.775 68.093)" fill="#4891d3"/>
  <rect id="Rectangle_1915" data-name="Rectangle 1915" width="138.044" height="13.804" transform="translate(30.204 72.484)" fill="#fcbc04"/>
  <rect id="Rectangle_1916" data-name="Rectangle 1916" width="55.218" height="13.804" transform="translate(71.617 44.875)" fill="#fcbc04"/>
  <rect id="Rectangle_1917" data-name="Rectangle 1917" width="110.435" height="13.804" transform="translate(44.009 186.37)" fill="#7ab92d"/>
  <rect id="Rectangle_1918" data-name="Rectangle 1918" width="13.804" height="13.804" transform="translate(123.384 186.37)" fill="#a1d51c"/>
  <rect id="Rectangle_1919" data-name="Rectangle 1919" width="13.804" height="13.804" transform="translate(61.264 186.37)" fill="#a1d51c"/>
  <rect id="Rectangle_1920" data-name="Rectangle 1920" width="13.804" height="13.804" transform="translate(92.324 186.37)" fill="#a1d51c"/>
  <rect id="Rectangle_1921" data-name="Rectangle 1921" width="48.315" height="41.413" transform="translate(85.422 103.544)" fill="#fcbc04"/>
  <rect id="Rectangle_1922" data-name="Rectangle 1922" width="13.804" height="13.804" transform="translate(102.677 103.544)" fill="#f9e109"/>
  <path id="Path_5188" data-name="Path 5188" d="M62.511,67.511A27.609,27.609,0,0,1,34.9,39.9V33H28V74.413H76.315v-6.9Z" transform="translate(57.422 70.544)" fill="#e59730"/>
  <rect id="Rectangle_1923" data-name="Rectangle 1923" width="20.707" height="20.707" transform="translate(64.715 124.25)" fill="#7ab92d"/>
  <rect id="Rectangle_1924" data-name="Rectangle 1924" width="48.315" height="41.413" transform="translate(99.226 144.957)" fill="#fcbc04"/>
  <rect id="Rectangle_1925" data-name="Rectangle 1925" width="13.804" height="13.804" transform="translate(116.482 144.957)" fill="#f9e109"/>
  <path id="Path_5189" data-name="Path 5189" d="M66.511,79.511A27.609,27.609,0,0,1,38.9,51.9V45H32V86.413H80.315v-6.9Z" transform="translate(67.226 99.957)" fill="#e59730"/>
  <rect id="Rectangle_1926" data-name="Rectangle 1926" width="48.315" height="41.413" transform="translate(50.911 144.957)" fill="#fcbc04"/>
  <rect id="Rectangle_1927" data-name="Rectangle 1927" width="13.804" height="13.804" transform="translate(68.166 144.957)" fill="#f9e109"/>
  <path id="Path_5190" data-name="Path 5190" d="M52.511,79.511A27.609,27.609,0,0,1,24.9,51.9V45H18V86.413H66.315v-6.9Z" transform="translate(32.911 99.957)" fill="#e59730"/>
  <path id="Path_5191" data-name="Path 5191" d="M35.8,39H22V52.8A13.8,13.8,0,0,0,35.8,39Z" transform="translate(42.715 85.25)" fill="#a1d51c"/>
</svg>
