<svg id="market" xmlns="http://www.w3.org/2000/svg" width="194.726" height="200.174" viewBox="0 0 194.726 200.174">
  <path id="Path_5125" data-name="Path 5125" d="M14.392,22.626a24.844,24.844,0,0,0-10.266,33.6l44.281,83.248a24.845,24.845,0,1,0,43.871-23.336L48,32.894A24.846,24.846,0,0,0,14.392,22.626Zm0,0" transform="translate(-0.737 -12.004)" fill="#eab875"/>
  <path id="Path_5126" data-name="Path 5126" d="M109.867,116.14,65.585,32.894a24.846,24.846,0,0,0-33.6-10.267c-.654.348-1.281.725-1.891,1.121C40,19.737,52.363,25.222,58.458,36.684l44.283,83.247c6.1,11.462,3.734,24.781-5.128,30.755.669-.284,1.333-.594,1.987-.942A24.846,24.846,0,0,0,109.867,116.14Zm0,0" transform="translate(-18.326 -12.004)" fill="#c68d4e"/>
  <path id="Path_5127" data-name="Path 5127" d="M79.5,189.215c-1.985-3.733-11.1-2.764-20.364,2.161-1.008.536-1.972,1.1-2.893,1.675l7.077,13.3q1.491-.662,3.006-1.462C75.59,199.967,81.488,192.948,79.5,189.215Zm0,0" transform="translate(-34.256 -113.855)" fill="#fff7af"/>
  <path id="Path_5128" data-name="Path 5128" d="M115.53,256.946c-1.985-3.732-11.1-2.764-20.364,2.163-1.006.535-1.97,1.1-2.893,1.674l7.077,13.3q1.491-.66,3.006-1.462C111.617,267.7,117.515,260.678,115.53,256.946Zm0,0" transform="translate(-56.198 -155.105)" fill="#fff7af"/>
  <path id="Path_5129" data-name="Path 5129" d="M23.111,123.645q-1.512.8-2.893,1.675l7.077,13.3q1.491-.662,3-1.463c9.261-4.925,15.161-11.944,13.175-15.677S32.372,118.718,23.111,123.645Zm0,0" transform="translate(-12.314 -72.604)" fill="#fff7af"/>
  <path id="Path_5130" data-name="Path 5130" d="M246.5,7.517V24.325a.9.9,0,0,0,.9.9h24.709a.9.9,0,0,0,.9-.9V7.517A7.518,7.518,0,0,0,265.5,0H254.021A7.518,7.518,0,0,0,246.5,7.517Zm0,0" transform="translate(-150.13)" fill="#ed5176"/>
  <path id="Path_5131" data-name="Path 5131" d="M284.806,0h-6.6c3.393,0,6.144,3.366,6.144,7.517V24.325a.831.831,0,0,1-.736.9h7.807a.9.9,0,0,0,.9-.9V7.517A7.515,7.515,0,0,0,284.806,0Zm0,0" transform="translate(-169.438)" fill="#ba365f"/>
  <path id="Path_5132" data-name="Path 5132" d="M244.122,75.145V64.523h-22.14V75.145a7.845,7.845,0,0,1-3.581,6.593c-3.844,2.482-9.617,6.558-11.23,9.588-7.247,13.621-3.6,61.715-3.6,61.715h58.966s3.644-48.093-3.6-61.715c-1.613-3.03-7.386-7.106-11.23-9.588A7.847,7.847,0,0,1,244.122,75.145Zm0,0" transform="translate(-123.423 -39.297)" fill="#804c68"/>
  <path id="Path_5133" data-name="Path 5133" d="M311.734,91.326c-1.611-3.028-7.386-7.1-11.23-9.588a7.845,7.845,0,0,1-3.58-6.593V64.523h-7.573V75.145a8.408,8.408,0,0,0,2.928,6.593c3.141,2.482,7.861,6.558,9.179,9.588,5.922,13.621,2.944,61.715,2.944,61.715h10.936S318.981,104.947,311.734,91.326Zm0,0" transform="translate(-176.225 -39.297)" fill="#60364e"/>
  <path id="Path_5134" data-name="Path 5134" d="M319.423,178.316H282.507l-11.089,13.937v65.4H330.51v-65.4Zm0,0" transform="translate(-165.303 -108.601)" fill="#e9e9ea"/>
  <path id="Path_5135" data-name="Path 5135" d="M382.734,178.316h-7.363l9.388,13.937v65.4h9.062v-65.4Zm0,0" transform="translate(-228.614 -108.601)" fill="#c5c4cc"/>
  <path id="Path_5136" data-name="Path 5136" d="M303.344,138.344h29.788a3.563,3.563,0,0,1,3.565,3.563v12.065H299.781V141.907A3.562,3.562,0,0,1,303.344,138.344Zm0,0" transform="translate(-182.577 -84.256)" fill="#c8e7f7"/>
  <path id="Path_5137" data-name="Path 5137" d="M374.061,138.344h-7.077a3.278,3.278,0,0,1,3.279,3.279v12.349h7.363V141.907A3.564,3.564,0,0,0,374.061,138.344Zm0,0" transform="translate(-223.506 -84.256)" fill="#8cbcd6"/>
  <path id="Path_5138" data-name="Path 5138" d="M194.3,163.1l.021-.017c5.348-4.308,5.371-4.328,18.021-14.518a8.512,8.512,0,1,0-12.89-10.518c-7.444,14.438-7.459,14.466-10.6,20.57a.168.168,0,0,0-.012.023l0,0a3.6,3.6,0,0,0,5.463,4.456A.006.006,0,0,0,194.3,163.1Zm0,0" transform="translate(-114.761 -81.248)" fill="#7fab38"/>
  <path id="Path_5139" data-name="Path 5139" d="M140.33,163.1l-.021-.017-18.023-14.518A8.645,8.645,0,0,1,121,147.3a8.511,8.511,0,1,1,14.177-9.246c7.444,14.438,7.459,14.466,10.6,20.57l.012.023a.006.006,0,0,1,0,0,3.6,3.6,0,0,1-5.463,4.456S140.33,163.1,140.33,163.1Zm0,0" transform="translate(-72.527 -81.248)" fill="#7fab38"/>
  <path id="Path_5140" data-name="Path 5140" d="M173.464,123.69l.009-.04c2.184-10.336,2.195-10.382,7.361-34.826a13.09,13.09,0,1,0-25.59,0c5.168,24.445,5.177,24.49,7.363,34.826,0,.012,0,.026.008.04a.009.009,0,0,1,0,.006h0a5.542,5.542,0,0,0,10.845,0S173.464,123.692,173.464,123.69Zm0,0" transform="translate(-94.37 -44.44)" fill="#aed559"/>
  <path id="Path_5141" data-name="Path 5141" d="M175.423,215.332a22.411,22.411,0,1,0-43.8,0c9.217,43.128,9.238,43.231,12.972,60.7a9.109,9.109,0,0,0,17.861,0C166.183,258.563,166.206,258.46,175.423,215.332Zm0,0" transform="translate(-79.85 -114.608)" fill="#ffcd34"/>
  <path id="Path_5142" data-name="Path 5142" d="M184.259,188.18a22.784,22.784,0,0,0-2.677.165c8.742,1.324,15.523,10.774,15.523,22.245a28.313,28.313,0,0,1-.4,4.742c-7.25,43.128-7.266,43.231-10.2,60.7-.516,3.291-2.43,5.935-4.918,6.909a9.089,9.089,0,0,0,11.607-6.909c3.733-17.468,3.755-17.571,12.972-60.7a22.412,22.412,0,0,0-21.9-27.152Zm0,0" transform="translate(-110.59 -114.608)" fill="#e69012"/>
  <path id="Path_5143" data-name="Path 5143" d="M51.3,304.605l1.668,14.267,1.248,10.655,5.477,46.815a10.575,10.575,0,0,0,10.5,9.347H187.019a10.575,10.575,0,0,0,10.5-9.347l8.392-71.738Zm0,0" transform="translate(-31.244 -185.515)" fill="#aed559"/>
  <path id="Path_5144" data-name="Path 5144" d="M204.849,313.712l1.064-9.107H51.3l1.064,9.107Zm0,0" transform="translate(-31.244 -185.515)" fill="#7fab38"/>
  <path id="Path_5145" data-name="Path 5145" d="M391.578,304.605l-8.392,71.738a10.575,10.575,0,0,1-10.5,9.347h10.069a10.575,10.575,0,0,0,10.5-9.347l8.392-71.738Zm0,0" transform="translate(-226.977 -185.515)" fill="#7fab38"/>
  <path id="Path_5146" data-name="Path 5146" d="M23.285,256.393v9.86a5.587,5.587,0,0,0,5.587,5.587H194.218a5.587,5.587,0,0,0,5.587-5.587v-9.86a5.587,5.587,0,0,0-5.587-5.588H28.872A5.587,5.587,0,0,0,23.285,256.393Zm0,0" transform="translate(-14.182 -152.749)" fill="#90b6e1"/>
  <path id="Path_5147" data-name="Path 5147" d="M444.555,250.8H434.324a5.587,5.587,0,0,1,5.587,5.588v9.86a5.587,5.587,0,0,1-5.587,5.587h10.231a5.587,5.587,0,0,0,5.587-5.587v-9.86A5.587,5.587,0,0,0,444.555,250.8Zm0,0" transform="translate(-264.519 -152.749)" fill="#5692d8"/>
  <path id="Path_5148" data-name="Path 5148" d="M412.988,347.323a5.7,5.7,0,0,1-5.68-2.708l-40.089-66.806a5.691,5.691,0,1,1,9.76-5.857l40.089,66.806a5.692,5.692,0,0,1-4.081,8.565Zm0,0" transform="translate(-223.155 -163.945)" fill="#575b7a"/>
  <path id="Path_5149" data-name="Path 5149" d="M4.894,347.323a5.7,5.7,0,0,0,5.68-2.708l40.089-66.806a5.691,5.691,0,1,0-9.759-5.857L.813,338.759a5.692,5.692,0,0,0,4.081,8.565Zm0,0" transform="translate(-0.001 -163.945)" fill="#575b7a"/>
  <g id="Group_864" data-name="Group 864" transform="translate(53.05 133.445)">
    <path id="Path_5150" data-name="Path 5150" d="M145.785,356.362a5.047,5.047,0,1,1-10.093,0v-9.994a5.047,5.047,0,1,1,10.093,0Zm0,0" transform="translate(-135.691 -341.32)" fill="#7fab38"/>
    <path id="Path_5151" data-name="Path 5151" d="M196,439.885a5.047,5.047,0,1,1-10.095,0v-9.994a5.047,5.047,0,0,1,10.095,0Zm0,0" transform="translate(-166.274 -392.189)" fill="#7fab38"/>
    <path id="Path_5152" data-name="Path 5152" d="M246.218,356.362a5.047,5.047,0,1,1-10.093,0v-9.994a5.047,5.047,0,1,1,10.093,0Zm0,0" transform="translate(-196.859 -341.32)" fill="#7fab38"/>
    <path id="Path_5153" data-name="Path 5153" d="M296.435,439.885a5.047,5.047,0,1,1-10.095,0v-9.994a5.047,5.047,0,0,1,10.095,0Zm0,0" transform="translate(-227.441 -392.189)" fill="#7fab38"/>
    <path id="Path_5154" data-name="Path 5154" d="M346.652,356.362a5.047,5.047,0,1,1-10.093,0v-9.994a5.047,5.047,0,1,1,10.093,0Zm0,0" transform="translate(-258.026 -341.32)" fill="#7fab38"/>
  </g>
  <path id="Path_5155" data-name="Path 5155" d="M381.9,212.329h-14.93a2.932,2.932,0,1,1,0-5.864H381.9a2.932,2.932,0,1,1,0,5.864Zm0,0" transform="translate(-221.71 -125.744)" fill="#c5c4cc"/>
</svg>
