<svg xmlns="http://www.w3.org/2000/svg" xmlns:xlink="http://www.w3.org/1999/xlink" width="255" height="282" viewBox="0 0 255 282"><defs><clipPath id="a"><rect width="255" height="282" transform="translate(1007 2046)" fill="#fff" stroke="#707070" stroke-width="1"/></clipPath></defs><g transform="translate(-1007 -2046)" clip-path="url(#a)"><g transform="translate(1007 2073)" fill="#fff" stroke="rgba(112,112,112,0.05)" stroke-width="11"><circle cx="127.5" cy="127.5" r="127.5" stroke="none"/><circle cx="127.5" cy="127.5" r="122" fill="none"/></g><g transform="translate(979.07 2046.366)"><path d="M157.883,85.444h87.1v34.5h-87.1Z" transform="translate(-45.575 -47.517)" fill="#655e67"/><path d="M176.038,256.9c34.65,0,62.853,12.6,63.824,104.921a4.781,4.781,0,0,1-4.609,4.983H116.822a4.781,4.781,0,0,1-4.609-4.983C113.185,269.5,141.388,256.9,176.038,256.9Z" transform="translate(-20.178 -142.867)" fill="#eec06b"/><path d="M251.87,256.9q-1.659,0-3.3.041c29.871.845,53.733,15.5,54.582,104.88.026,2.741-1.84,4.983-4.156,4.983h12.086a4.781,4.781,0,0,0,4.609-4.983C314.722,269.5,286.519,256.9,251.87,256.9Z" transform="translate(-96.01 -142.867)" fill="#e9a761"/><path d="M112.214,434.842a4.781,4.781,0,0,0,4.609,4.983H235.253a4.781,4.781,0,0,0,4.609-4.983c-.2-18.6-1.5-33.961-3.734-46.638H115.948c-2.236,12.677-3.538,28.039-3.734,46.638Z" transform="translate(-20.178 -215.887)" fill="#faa68e"/><g transform="translate(92.073 172.318)"><path d="M125.494,414.729h-9.665c-.524,0-1.041.027-1.553.075-1.106,9.447-1.783,20.136-1.979,32.228a16.415,16.415,0,0,0,3.532.387h9.665a4.3,4.3,0,0,0,4.3-4.3v-24.1a4.3,4.3,0,0,0-4.3-4.3Z" transform="translate(-112.297 -402.955)" fill="#e09380"/><path d="M375.137,388.211V388.2H362.962c2.017,12.677,3.191,28.038,3.367,46.638.026,2.741-1.84,4.983-4.156,4.983H374.26a4.394,4.394,0,0,0,2.791-1.013,5.033,5.033,0,0,0,1.818-3.971C378.71,419.678,377.78,403.2,375.137,388.211Z" transform="translate(-251.258 -388.204)" fill="#e09380"/><path d="M377.786,447.033c-.2-12.092-.873-22.781-1.979-32.228-.511-.048-1.029-.075-1.553-.075h-9.665a4.3,4.3,0,0,0-4.3,4.3v24.1a4.3,4.3,0,0,0,4.3,4.3h9.665A16.449,16.449,0,0,0,377.786,447.033Z" transform="translate(-250.211 -402.956)" fill="#e09380"/></g><path d="M244.3,241.13l-11.49-6.735h-22.1l-11.49,6.735a9.689,9.689,0,0,0-3.268,13.571l4.985,7.813a2.2,2.2,0,0,0,3.143.6l14.8-10.639h5.75l14.8,10.639a2.2,2.2,0,0,0,3.143-.6l4.985-7.813A9.689,9.689,0,0,0,244.3,241.13Z" transform="translate(-65.902 -130.35)" fill="#f4daa7"/><path d="M225.767,192.73v31.8c0,6,7.464,9.884,13.464,9.884s13.464-3.884,13.464-9.884v-31.8Z" transform="translate(-83.327 -107.18)" fill="#faa68e"/><path d="M225.767,215.032a28.815,28.815,0,0,0,16.87,6.183,25.977,25.977,0,0,0,10.059-2.206V192.73H225.767s0,12.186,0,22.3Z" transform="translate(-83.327 -107.18)" fill="#e09380"/><path d="M235.048,139.205H161.794a9.332,9.332,0,0,0,0,18.664h73.253a9.332,9.332,0,0,0,0-18.664Z" transform="translate(-42.561 -77.414)" fill="#faa68e"/><g transform="translate(125.256 28.961)"><path d="M217.657,65.244c-16.9,0-30.6,11.989-30.6,39.421,0,23.948,17.982,35.843,30.6,35.843s30.6-11.9,30.6-35.843c0-27.432-13.7-39.421-30.6-39.421Z" transform="translate(-187.053 -65.244)" fill="#faa68e"/></g><path d="M179.184,7.5h33.341a31.617,31.617,0,0,1,31.617,31.617v9.823a3.283,3.283,0,0,1-3.283,3.283H147.567V39.117A31.617,31.617,0,0,1,179.184,7.5Z" transform="translate(-39.839 -4.171)" fill="#e53c26"/><path d="M277.846,7.5H265.028a31.617,31.617,0,0,1,31.617,31.617V48.94a3.283,3.283,0,0,1-3.283,3.283H306.18a3.283,3.283,0,0,0,3.283-3.283V39.117A31.616,31.616,0,0,0,277.846,7.5Z" transform="translate(-105.16 -4.171)" fill="#d71f43"/><path d="M99.776,430.854h9.665a4.3,4.3,0,0,1,4.3,4.3v24.1a4.3,4.3,0,0,1-4.3,4.3H99.776a16.345,16.345,0,0,1,0-32.691Z" transform="translate(-4.171 -239.605)" fill="#faa68e"/><path d="M374.253,430.854h-9.665a4.3,4.3,0,0,0-4.3,4.3v24.1a4.3,4.3,0,0,0,4.3,4.3h9.665a16.345,16.345,0,0,0,0-32.691Z" transform="translate(-158.138 -239.605)" fill="#faa68e"/><path d="M158.1,357.271h79.806a6.39,6.39,0,0,1,6.39,6.39v58.962H151.709V363.661A6.39,6.39,0,0,1,158.1,357.271Z" transform="translate(-42.142 -198.684)" fill="#ab7b64"/><path d="M332.116,357.271h-11a6.39,6.39,0,0,1,6.39,6.39v58.962h11V363.661A6.39,6.39,0,0,0,332.116,357.271Z" transform="translate(-136.353 -198.684)" fill="#9a6a53"/><path d="M251.539,377.832H238.248a2.22,2.22,0,0,1-2.219-2.219V357.271h17.73v18.341A2.219,2.219,0,0,1,251.539,377.832Z" transform="translate(-89.034 -198.684)" fill="#e3e0e4"/><g transform="translate(75.93 0)"><path d="M282.1,153.124a3.329,3.329,0,0,0,3.329-3.329v-1.11a3.329,3.329,0,1,0-6.658,0v1.11A3.329,3.329,0,0,0,282.1,153.124Z" transform="translate(-188.731 -80.835)" fill="#0e2f63"/><path d="M224.893,148.685a3.329,3.329,0,1,0-6.658,0v1.11a3.329,3.329,0,0,0,6.658,0Z" transform="translate(-155.068 -80.835)" fill="#0e2f63"/><path d="M251.923,186.023a3.329,3.329,0,1,0-3.966-5.348c-3.8,2.817-7.186,2.817-10.984,0a3.329,3.329,0,1,0-3.966,5.348,14.718,14.718,0,0,0,18.917,0Z" transform="translate(-162.534 -100.112)" fill="#0e2f63"/><path d="M221.5,188.675c-3.872-39.78-15.14-62.9-35.314-72.424-.012-.054-.022-.108-.035-.162a12.91,12.91,0,0,0-6.072-8.181l-7.384-4.331v-1.461a36.643,36.643,0,0,0,5.534-4.459,37.692,37.692,0,0,0,8.942-13.874h5.312a12.651,12.651,0,0,0,10.258-20.072V51.144a6.618,6.618,0,0,0,4.889-6.376V34.946a34.8,34.8,0,0,0-9.6-24.061,3.329,3.329,0,0,0-4.828,4.586,28.165,28.165,0,0,1,7.772,19.475v9.776H111.058V34.946A28.32,28.32,0,0,1,139.345,6.658h33.341A28.309,28.309,0,0,1,181.1,7.929a3.329,3.329,0,1,0,1.978-6.358A34.946,34.946,0,0,0,172.686,0H139.345A34.985,34.985,0,0,0,104.4,34.946v9.776H92.783a3.329,3.329,0,1,0,0,6.658h16.194V63.711a12.651,12.651,0,0,0,10.258,20.072h5.312a37.692,37.692,0,0,0,8.942,13.874,36.652,36.652,0,0,0,5.622,4.517v1.351l-7.471,4.383a12.911,12.911,0,0,0-6.074,8.182c-.013.054-.022.107-.035.161a45.093,45.093,0,0,0-14.494,10.785,3.329,3.329,0,1,0,4.94,4.464,38.72,38.72,0,0,1,9.978-7.992,13.163,13.163,0,0,0,1.29,2.633l4.988,7.811a5.534,5.534,0,0,0,7.894,1.516l8.693-6.251a19.364,19.364,0,0,0,14.109.023l8.669,6.233a5.534,5.534,0,0,0,7.886-1.519l4.99-7.814a13.163,13.163,0,0,0,1.293-2.643c9.37,5.163,20.229,16.214,26.15,45.491h-6.435v-4.01a9.73,9.73,0,0,0-9.719-9.719H115.957a9.73,9.73,0,0,0-9.719,9.719v4.01H99.772a103.23,103.23,0,0,1,8.061-25.175,3.329,3.329,0,1,0-5.977-2.934c-5.86,11.937-9.672,27.593-11.637,47.8A19.672,19.672,0,0,0,95.6,227.27h66.517a3.329,3.329,0,1,0,0-6.658H112.9V164.977a3.065,3.065,0,0,1,3.061-3.061h27.709v15.012a5.555,5.555,0,0,0,5.549,5.549h13.29a5.555,5.555,0,0,0,5.549-5.549V161.916h27.709a3.065,3.065,0,0,1,3.061,3.061V220.61H177.658a3.329,3.329,0,0,0,0,6.658h38.459a19.672,19.672,0,0,0,5.385-38.594ZM192.485,58.459h-3.334a56.208,56.208,0,0,0-1.416-7.08h8.35v7.6A12.623,12.623,0,0,0,192.485,58.459Zm0,18.665H189a47.183,47.183,0,0,0,.791-8.745q0-1.659-.067-3.263h2.756a6,6,0,1,1,0,12.007ZM122.629,51.38h1.356a56.225,56.225,0,0,0-1.416,7.08h-3.334a12.623,12.623,0,0,0-3.6.524v-7.6Zm-3.394,25.745a6,6,0,1,1,0-12.007h2.756q-.065,1.605-.067,3.263a47.22,47.22,0,0,0,.791,8.745Zm9.348-8.745a56.319,56.319,0,0,1,2.338-17H180.8a56.319,56.319,0,0,1,2.338,17c0,9.214-2.9,17.967-9.573,24.528-5.015,4.926-11.8,7.987-17.7,7.987s-12.69-3.061-17.7-7.987C131.479,86.347,128.584,77.594,128.584,68.38Zm8.624,60.987-4.347-6.808a6.362,6.362,0,0,1,2.149-8.908l4.1-2.408v6.1a11.168,11.168,0,0,0,3.6,8.065Zm12.723-6.933-.082-.042c-2.337-1.2-4.078-3.013-4.078-5.047V105.591a26.949,26.949,0,0,0,20.268-.032v11.786c0,2.048-1.762,3.87-4.122,5.07l-.077.038a12.891,12.891,0,0,1-11.909-.019Zm28.931.124-4.349,6.81-5.454-3.921a11.181,11.181,0,0,0,3.637-8.1V111.3l4.016,2.356a6.361,6.361,0,0,1,2.149,8.9Zm-72.623,53.087v12.344a7.656,7.656,0,0,0-.969-.068H96.985q.665-6.473,1.592-12.275h7.661ZM96.646,220.61H95.6a13.016,13.016,0,1,1,0-26.032h9.665a.97.97,0,0,1,.969.969v24.1a.97.97,0,0,1-.969.969H96.646Zm64.75-44.792H150.325v-13.9H161.4Zm51.73-.174q.924,5.717,1.606,12.275h-8.281a7.665,7.665,0,0,0-.969.068V175.645Zm2.99,44.965h-9.665a.97.97,0,0,1-.969-.969v-24.1a.97.97,0,0,1,.969-.969h9.665a13.016,13.016,0,0,1,0,26.032Z" transform="translate(-75.93 0)" fill="#0e2f63"/><path d="M191.292,458.836a3.329,3.329,0,0,0,3.329-3.329v-8.535L198,449.384a3.329,3.329,0,1,0,3.867-5.42l-7.14-5.094a5.907,5.907,0,0,0-3.258-1.092c-.06,0-.12-.009-.181-.009s-.13.006-.2.01a5.908,5.908,0,0,0-3.24,1.092l-7.14,5.094a3.329,3.329,0,1,0,3.867,5.42l3.379-2.411v8.533A3.329,3.329,0,0,0,191.292,458.836Z" transform="translate(-133.427 -243.45)" fill="#0e2f63"/><path d="M302.2,473.559a3.329,3.329,0,0,0-3.329-3.329H291.1a3.329,3.329,0,1,0,0,6.658h7.775A3.329,3.329,0,0,0,302.2,473.559Z" transform="translate(-193.735 -261.502)" fill="#0e2f63"/></g></g></g></svg>