<svg id="_004-building" data-name="004-building" xmlns="http://www.w3.org/2000/svg" width="124.228" height="117.975" viewBox="0 0 124.228 117.975">
  <path id="Path_5303" data-name="Path 5303" d="M182.411,142.033H113.035V46.641a2.426,2.426,0,0,1,2.426-2.426h64.523a2.426,2.426,0,0,1,2.426,2.426Zm0,0" transform="translate(-85.609 -33.487)" fill="#daedff"/>
  <path id="Path_5304" data-name="Path 5304" d="M374.731,46.637V142.03H369.4V46.637a2.426,2.426,0,0,0-2.426-2.426H372.3A2.426,2.426,0,0,1,374.731,46.637Zm0,0" transform="translate(-277.93 -33.484)" fill="#b6dcff"/>
  <path id="Path_5305" data-name="Path 5305" d="M200.242,352.242H227.3v23.081H200.242Zm0,0" transform="translate(-151.657 -266.777)" fill="#609cd6"/>
  <path id="Path_5306" data-name="Path 5306" d="M256,352.242h13.529v23.081H256Zm0,0" transform="translate(-193.886 -266.777)" fill="#408ace"/>
  <path id="Path_5307" data-name="Path 5307" d="M215.741,334.2H184.926a2.426,2.426,0,0,1-2.426-2.426V330.2a2.426,2.426,0,0,1,2.426-2.426h30.814a2.426,2.426,0,0,1,2.426,2.426v1.577A2.426,2.426,0,0,1,215.741,334.2Zm0,0" transform="translate(-138.22 -248.242)" fill="#9abee5"/>
  <path id="Path_5308" data-name="Path 5308" d="M159.855,113.925h-5.218a2.426,2.426,0,0,1-2.426-2.426V96.95a2.426,2.426,0,0,1,2.426-2.426h5.218a2.426,2.426,0,0,1,2.426,2.426V111.5A2.426,2.426,0,0,1,159.855,113.925Zm0,0" transform="translate(-115.28 -71.589)" fill="#9abee5"/>
  <path id="Path_5309" data-name="Path 5309" d="M177.81,113.925h-1.892v-19.4h1.892a2.426,2.426,0,0,1,2.426,2.426V111.5A2.426,2.426,0,0,1,177.81,113.925Zm0,0" transform="translate(-133.235 -71.589)" fill="#7eadde"/>
  <path id="Path_5310" data-name="Path 5310" d="M241.391,113.925h-5.218a2.427,2.427,0,0,1-2.426-2.426V96.95a2.427,2.427,0,0,1,2.426-2.426h5.218a2.427,2.427,0,0,1,2.426,2.426V111.5A2.427,2.427,0,0,1,241.391,113.925Zm0,0" transform="translate(-177.032 -71.589)" fill="#9abee5"/>
  <path id="Path_5311" data-name="Path 5311" d="M259.346,113.925h-1.893v-19.4h1.893a2.427,2.427,0,0,1,2.426,2.426V111.5A2.427,2.427,0,0,1,259.346,113.925Zm0,0" transform="translate(-194.987 -71.589)" fill="#7eadde"/>
  <path id="Path_5312" data-name="Path 5312" d="M325.929,113.925h-5.218a2.426,2.426,0,0,1-2.426-2.426V96.95a2.426,2.426,0,0,1,2.426-2.426h5.218a2.426,2.426,0,0,1,2.426,2.426V111.5A2.426,2.426,0,0,1,325.929,113.925Zm0,0" transform="translate(-241.059 -71.589)" fill="#9abee5"/>
  <path id="Path_5313" data-name="Path 5313" d="M343.881,113.925h-1.893v-19.4h1.893a2.426,2.426,0,0,1,2.426,2.426V111.5A2.426,2.426,0,0,1,343.881,113.925Zm0,0" transform="translate(-259.011 -71.589)" fill="#7eadde"/>
  <path id="Path_5314" data-name="Path 5314" d="M159.855,227.683h-5.218a2.426,2.426,0,0,1-2.426-2.426V210.708a2.426,2.426,0,0,1,2.426-2.426h5.218a2.426,2.426,0,0,1,2.426,2.426v14.549A2.426,2.426,0,0,1,159.855,227.683Zm0,0" transform="translate(-115.28 -157.746)" fill="#9abee5"/>
  <path id="Path_5315" data-name="Path 5315" d="M177.81,227.683h-1.892v-19.4h1.892a2.426,2.426,0,0,1,2.426,2.426v14.549A2.426,2.426,0,0,1,177.81,227.683Zm0,0" transform="translate(-133.235 -157.746)" fill="#7eadde"/>
  <path id="Path_5316" data-name="Path 5316" d="M241.391,227.683h-5.218a2.427,2.427,0,0,1-2.426-2.426V210.708a2.427,2.427,0,0,1,2.426-2.426h5.218a2.427,2.427,0,0,1,2.426,2.426v14.549A2.427,2.427,0,0,1,241.391,227.683Zm0,0" transform="translate(-177.032 -157.746)" fill="#9abee5"/>
  <path id="Path_5317" data-name="Path 5317" d="M259.346,227.683h-1.893v-19.4h1.893a2.427,2.427,0,0,1,2.426,2.426v14.549A2.427,2.427,0,0,1,259.346,227.683Zm0,0" transform="translate(-194.987 -157.746)" fill="#7eadde"/>
  <path id="Path_5318" data-name="Path 5318" d="M325.929,227.683h-5.218a2.426,2.426,0,0,1-2.426-2.426V210.708a2.426,2.426,0,0,1,2.426-2.426h5.218a2.426,2.426,0,0,1,2.426,2.426v14.549A2.426,2.426,0,0,1,325.929,227.683Zm0,0" transform="translate(-241.059 -157.746)" fill="#9abee5"/>
  <path id="Path_5319" data-name="Path 5319" d="M343.881,227.683h-1.893v-19.4h1.893a2.426,2.426,0,0,1,2.426,2.426v14.549A2.426,2.426,0,0,1,343.881,227.683Zm0,0" transform="translate(-259.011 -157.746)" fill="#7eadde"/>
  <path id="Path_5320" data-name="Path 5320" d="M7.5,442.738H128.088v8.733H7.5Zm0,0" transform="translate(-5.68 -335.316)" fill="#e19a77"/>
  <g id="Group_882" data-name="Group 882" transform="translate(15.219 107.422)">
    <path id="Path_5321" data-name="Path 5321" d="M62.723,442.738h13.4v8.733h-13.4Zm0,0" transform="translate(-62.723 -442.738)" fill="#fedfc5"/>
    <path id="Path_5322" data-name="Path 5322" d="M173.168,442.738h13.4v8.733h-13.4Zm0,0" transform="translate(-146.37 -442.738)" fill="#fedfc5"/>
    <path id="Path_5323" data-name="Path 5323" d="M283.609,442.738h13.4v8.733h-13.4Zm0,0" transform="translate(-230.015 -442.738)" fill="#fedfc5"/>
    <path id="Path_5324" data-name="Path 5324" d="M394.055,442.738h13.4v8.733h-13.4Zm0,0" transform="translate(-313.663 -442.738)" fill="#fedfc5"/>
  </g>
  <path id="Path_5325" data-name="Path 5325" d="M408.447,283.006a13.96,13.96,0,1,1-13.96-13.959A13.959,13.959,0,0,1,408.447,283.006Zm0,0" transform="translate(-288.199 -203.768)" fill="#00f2a9"/>
  <path id="Path_5326" data-name="Path 5326" d="M444.994,283a13.96,13.96,0,0,1-13.961,13.958,13.778,13.778,0,0,1-2.252-.182,13.962,13.962,0,0,0,0-27.556,13.781,13.781,0,0,1,2.252-.182A13.961,13.961,0,0,1,444.994,283Zm0,0" transform="translate(-324.745 -203.762)" fill="#09d692"/>
  <path id="Path_5327" data-name="Path 5327" d="M44.318,283.006a13.96,13.96,0,1,1-13.96-13.959A13.959,13.959,0,0,1,44.318,283.006Zm0,0" transform="translate(-12.42 -203.768)" fill="#00f2a9"/>
  <path id="Path_5328" data-name="Path 5328" d="M80.865,283A13.96,13.96,0,0,1,66.9,296.959a13.778,13.778,0,0,1-2.252-.182,13.962,13.962,0,0,0,0-27.556,13.781,13.781,0,0,1,2.252-.182A13.961,13.961,0,0,1,80.865,283Zm0,0" transform="translate(-48.966 -203.762)" fill="#09d692"/>
  <path id="Path_5329" data-name="Path 5329" d="M262.706,20.344H237.04a2.426,2.426,0,0,1-2.426-2.426V9.926A2.426,2.426,0,0,1,237.04,7.5h25.666a2.427,2.427,0,0,1,2.426,2.426v7.992A2.427,2.427,0,0,1,262.706,20.344Zm0,0" transform="translate(-177.689 -5.68)" fill="#ff5a96"/>
  <path id="Path_5330" data-name="Path 5330" d="M334.91,9.926v7.993a2.427,2.427,0,0,1-2.426,2.426h-5.738a2.427,2.427,0,0,0,2.426-2.426V9.926A2.427,2.427,0,0,0,326.746,7.5h5.738A2.427,2.427,0,0,1,334.91,9.926Zm0,0" transform="translate(-247.467 -5.68)" fill="#ff3b82"/>
  <path id="Path_5331" data-name="Path 5331" d="M312.6,100.818a1.819,1.819,0,0,0-1.82,1.82v3.181a4.251,4.251,0,0,0,4.246,4.246h5.218a4.251,4.251,0,0,0,4.246-4.246V91.269a4.251,4.251,0,0,0-4.246-4.246h-5.218a4.251,4.251,0,0,0-4.246,4.246v2.991a1.82,1.82,0,1,0,3.639,0V91.269a.607.607,0,0,1,.607-.607h5.218a.607.607,0,0,1,.607.607v14.549a.607.607,0,0,1-.607.607h-5.218a.607.607,0,0,1-.607-.607v-3.181A1.82,1.82,0,0,0,312.6,100.818Zm0,0" transform="translate(-235.379 -65.909)"/>
  <path id="Path_5332" data-name="Path 5332" d="M158.421,91.269a4.251,4.251,0,0,0-4.246-4.246h-5.218a4.251,4.251,0,0,0-4.246,4.246v14.549a4.251,4.251,0,0,0,4.246,4.246h5.218a4.251,4.251,0,0,0,4.246-4.246Zm-3.639,14.549a.607.607,0,0,1-.607.607h-5.218a.608.608,0,0,1-.607-.607V91.269a.608.608,0,0,1,.607-.607h5.218a.607.607,0,0,1,.607.607Zm0,0" transform="translate(-109.599 -65.909)"/>
  <path id="Path_5333" data-name="Path 5333" d="M230.492,110.065h5.218a4.251,4.251,0,0,0,4.246-4.246V91.269a4.251,4.251,0,0,0-4.246-4.246h-5.218a4.251,4.251,0,0,0-4.246,4.246v14.549A4.251,4.251,0,0,0,230.492,110.065Zm-.607-18.8a.608.608,0,0,1,.607-.607h5.218a.607.607,0,0,1,.607.607v14.549a.607.607,0,0,1-.607.607h-5.218a.608.608,0,0,1-.607-.607Zm0,0" transform="translate(-171.352 -65.909)"/>
  <path id="Path_5334" data-name="Path 5334" d="M154.175,200.781h-5.218a4.251,4.251,0,0,0-4.246,4.246v14.549a4.251,4.251,0,0,0,4.246,4.246h5.218a4.251,4.251,0,0,0,4.246-4.246V205.027A4.251,4.251,0,0,0,154.175,200.781Zm.607,18.8a.607.607,0,0,1-.607.607h-5.218a.607.607,0,0,1-.607-.607V205.027a.608.608,0,0,1,.607-.607h5.218a.607.607,0,0,1,.607.607Zm0,0" transform="translate(-109.599 -152.065)"/>
  <path id="Path_5335" data-name="Path 5335" d="M226.246,219.577a4.251,4.251,0,0,0,4.246,4.246h5.218a4.251,4.251,0,0,0,4.246-4.246V205.027a4.251,4.251,0,0,0-4.246-4.246h-5.218a4.251,4.251,0,0,0-4.246,4.246Zm3.639-14.549a.608.608,0,0,1,.607-.607h5.218a.607.607,0,0,1,.607.607v14.549a.607.607,0,0,1-.607.607h-5.218a.607.607,0,0,1-.607-.607Zm0,0" transform="translate(-171.352 -152.065)"/>
  <path id="Path_5336" data-name="Path 5336" d="M310.785,219.577a4.251,4.251,0,0,0,4.246,4.246h5.218a4.251,4.251,0,0,0,4.246-4.246V205.027a4.251,4.251,0,0,0-4.246-4.246h-5.218a4.251,4.251,0,0,0-4.246,4.246Zm3.639-14.549a.607.607,0,0,1,.607-.607h5.218a.607.607,0,0,1,.607.607v14.549a.607.607,0,0,1-.607.607h-5.218a.607.607,0,0,1-.607-.607Zm0,0" transform="translate(-235.379 -152.065)"/>
  <path id="Path_5337" data-name="Path 5337" d="M122.408,114.336H110.829v-5.093h11.579a1.82,1.82,0,1,0,0-3.639h-14.3V94.91a15.777,15.777,0,1,0-9.486-29.456v-52.3a4.251,4.251,0,0,0-4.246-4.246H89.262V4.246A4.251,4.251,0,0,0,85.016,0H59.351A4.251,4.251,0,0,0,55.1,4.246V8.908H46.164a1.82,1.82,0,1,0,0,3.639h8.957a4.247,4.247,0,0,0,4.23,3.936H85.016a4.249,4.249,0,0,0,4.231-3.936h5.128a.607.607,0,0,1,.607.607V68.248a15.739,15.739,0,0,0,0,21.982V105.6H77.462V87.777h.059a4.251,4.251,0,0,0,4.246-4.246V81.954a4.251,4.251,0,0,0-4.246-4.246H46.707a4.251,4.251,0,0,0-4.246,4.246v1.577a4.251,4.251,0,0,0,4.246,4.246h.058V105.6H29.246V90.23a15.741,15.741,0,0,0,0-21.982V13.154a.607.607,0,0,1,.607-.607h7.935a1.82,1.82,0,1,0,0-3.639H29.852a4.251,4.251,0,0,0-4.246,4.246v52.3a15.755,15.755,0,0,0-16.09.444,1.82,1.82,0,0,0,1.946,3.076,12.139,12.139,0,1,1,8.3,22.268v-3.8a1.794,1.794,0,0,0,.238-.2L24.044,83.2a1.82,1.82,0,1,0-2.573-2.574l-1.713,1.714V76.327a1.82,1.82,0,1,0-3.639,0V91.242A12.148,12.148,0,0,1,6.736,74.553a1.82,1.82,0,1,0-3.357-1.406A15.784,15.784,0,0,0,16.119,94.91V105.6H1.82a1.82,1.82,0,1,0,0,3.639H13.4v5.093H1.82a1.82,1.82,0,1,0,0,3.639H122.408a1.82,1.82,0,1,0,0-3.639ZM85.623,12.238a.607.607,0,0,1-.607.607H59.351a.607.607,0,0,1-.607-.607V4.246a.607.607,0,0,1,.607-.607H85.017a.607.607,0,0,1,.607.607Zm21.566,102.1H97.43v-5.093h9.759Zm-63.353-5.093H53.6v5.093H43.836ZM40.2,114.336H30.437v-5.093H40.2Zm17.038-5.093h9.759v5.093H57.235Zm13.4,0h9.759v5.093H70.632Zm13.4,0H93.79v5.093H84.031Zm14.59-3.639V93.024a15.661,15.661,0,0,0,5.847,1.886V105.6Zm7.667-38.5a12.14,12.14,0,0,1,1.82,24.143v-3.8a1.736,1.736,0,0,0,.238-.2l4.048-4.048a1.82,1.82,0,1,0-2.573-2.573l-1.713,1.713V76.327a1.82,1.82,0,1,0-3.639,0V91.242a12.14,12.14,0,0,1,1.82-24.143ZM73.823,105.6H63.933V87.777h9.889ZM46.1,83.531V81.954a.607.607,0,0,1,.607-.607H77.521a.607.607,0,0,1,.607.607v1.577a.607.607,0,0,1-.607.607H46.707A.607.607,0,0,1,46.1,83.531Zm4.3,4.246h9.889V105.6H50.4ZM19.758,94.91a15.66,15.66,0,0,0,5.848-1.886V105.6H19.758Zm-2.72,14.332H26.8v5.093H17.038Zm0,0"/>
</svg>
