<svg xmlns="http://www.w3.org/2000/svg" width="114.215" height="114.214" viewBox="0 0 114.215 114.214"><g transform="translate(1.674 1.673)"><path d="M109.448,118.37H16.428A8.924,8.924,0,0,1,7.5,109.447V16.427A8.924,8.924,0,0,1,16.428,7.5h93.02a8.924,8.924,0,0,1,8.924,8.924v93.02A8.924,8.924,0,0,1,109.448,118.37Z" transform="translate(-7.504 -7.503)" fill="#f7fafa"/><path d="M433.423,7.5H424.5a8.924,8.924,0,0,1,8.924,8.924v93.02a8.924,8.924,0,0,1-8.924,8.924h8.923a8.924,8.924,0,0,0,8.924-8.924V16.427A8.924,8.924,0,0,0,433.423,7.5Z" transform="translate(-331.479 -7.503)" fill="#f2f5f5"/><g transform="translate(0 0)"><path d="M7.5,24.7H118.371V16.1a8.579,8.579,0,0,0-8.561-8.6H16.064A8.579,8.579,0,0,0,7.5,16.1v8.6Z" transform="translate(-7.503 -7.503)" fill="#fee438"/><path d="M435.049,7.5h-8.923a8.579,8.579,0,0,1,8.561,8.6v8.6h8.923V16.1a8.579,8.579,0,0,0-8.561-8.6Z" transform="translate(-332.742 -7.503)" fill="#f2d935"/></g><g transform="translate(14.608 28.886)"><path d="M72.986,137h30.481v31.871H72.986Z" transform="translate(-72.986 -136.996)" fill="#d9deed"/><g transform="translate(7.602 7.711)"><path d="M122.341,242.78H107.064v-3.02a7.629,7.629,0,0,1,7.629-7.629h.02a7.629,7.629,0,0,1,7.629,7.629v3.02Z" transform="translate(-107.064 -218.62)" fill="#fee438"/><g transform="translate(0.925)"><path d="M117.843,171.563a6.71,6.71,0,0,1,6.8,6.706V181.4a6.713,6.713,0,1,1-13.426,0v-3.127A6.709,6.709,0,0,1,117.843,171.563Z" transform="translate(-111.212 -171.563)" fill="#ffead7"/></g><path d="M111.211,178.295a6.713,6.713,0,1,1,13.426,0Z" transform="translate(-110.286 -171.563)" fill="#cf9069"/></g><path d="M72.986,279.869h30.481v36.306H72.986Z" transform="translate(-72.986 -247.998)" fill="#787294"/><path d="M72.986,443h30.481v13.719H72.986Z" transform="translate(-72.986 -374.742)" fill="#5f5a78"/><circle cx="6.169" cy="6.169" r="6.169" transform="translate(42.317 49.521)" fill="#a2f28d"/><circle cx="6.169" cy="6.169" r="6.169" transform="translate(61.441 49.521)" fill="#f7b7de"/></g></g><g transform="translate(0 0)"><path d="M103.981,0H95.788a1.674,1.674,0,0,0,0,3.346h7.83a7.259,7.259,0,0,1,7.251,7.251v6.6H3.347V10.6A7.259,7.259,0,0,1,10.6,3.349H85.8A1.674,1.674,0,0,0,85.8,0H10.235A10.4,10.4,0,0,0,0,10.6v93.02a10.609,10.609,0,0,0,10.6,10.6H26.114a1.674,1.674,0,0,0,0-3.346h-8.16V100.5H45.089V110.87H36.065a1.674,1.674,0,0,0,0,3.346h67.553a10.609,10.609,0,0,0,10.6-10.6V10.6A10.4,10.4,0,0,0,103.981,0ZM28.217,51.918c-1.535-1.351-1.824-3.308-1.736-5.239h10.08c.17,3.168-1.307,6.478-5.04,6.478A5.031,5.031,0,0,1,28.217,51.918Zm-1.464-8.585a4.871,4.871,0,0,1,1.75-2.355,5.116,5.116,0,0,1,4.525-.8,5.022,5.022,0,0,1,3.254,3.156H26.754Zm-1.2,16.081a5.963,5.963,0,0,1,1.649-4.11,8.452,8.452,0,0,0,8.633,0,5.965,5.965,0,0,1,1.649,4.11V60.76H25.557V59.413Zm19.533,4.693v32.96H17.955V64.106Zm0-3.346H40.833A10.332,10.332,0,0,0,38.3,53.043a8.392,8.392,0,0,0,1.607-4.936v-3.1c0-10.875-16.772-10.8-16.772,0v3.1a8.394,8.394,0,0,0,1.607,4.936A10.464,10.464,0,0,0,22.21,60.76H17.955V32.236H45.089Zm58.529,50.11H48.435V98.825c0-.014,0-.028,0-.043s0-.028,0-.043V30.562a1.673,1.673,0,0,0-1.673-1.673H16.281a1.673,1.673,0,0,0-1.673,1.673V98.739c0,.014,0,.028,0,.043s0,.028,0,.043V110.87H10.6a7.259,7.259,0,0,1-7.251-7.251V20.541H110.869V103.62A7.259,7.259,0,0,1,103.618,110.87Z" transform="translate(0 -0.003)" fill="#060606"/><path d="M49.736,44.043a1.674,1.674,0,0,0,0-3.346A1.674,1.674,0,0,0,49.736,44.043Z" transform="translate(-37.386 -31.619)" fill="#060606"/><path d="M82.309,44.043a1.674,1.674,0,0,0,0-3.346A1.674,1.674,0,0,0,82.309,44.043Z" transform="translate(-62.693 -31.619)" fill="#060606"/><path d="M114.883,44.043a1.674,1.674,0,0,0,0-3.346A1.674,1.674,0,0,0,114.883,44.043Z" transform="translate(-88 -31.619)" fill="#060606"/><path d="M297.1,147.5H257.975a1.674,1.674,0,0,0,0,3.346H297.1A1.674,1.674,0,0,0,297.1,147.5Z" transform="translate(-199.167 -114.6)" fill="#060606"/><path d="M393.44,188.151H381.975a1.674,1.674,0,0,0,0,3.346H393.44A1.674,1.674,0,0,0,393.44,188.151Z" transform="translate(-295.506 -146.18)" fill="#060606"/><path d="M257.975,191.5h19.563a1.674,1.674,0,0,0,0-3.346H257.975A1.674,1.674,0,0,0,257.975,191.5Z" transform="translate(-199.167 -146.18)" fill="#060606"/><path d="M297.1,228.8H257.975a1.674,1.674,0,0,0,0,3.346H297.1A1.674,1.674,0,0,0,297.1,228.8Z" transform="translate(-199.167 -177.762)" fill="#060606"/><path d="M365.236,269.447H345.673a1.674,1.674,0,0,0,0,3.346h19.563A1.674,1.674,0,0,0,365.236,269.447Z" transform="translate(-267.302 -209.341)" fill="#060606"/><path d="M257.975,272.793h11.1a1.674,1.674,0,0,0,0-3.346h-11.1A1.674,1.674,0,0,0,257.975,272.793Z" transform="translate(-199.167 -209.341)" fill="#060606"/><path d="M257.975,313.442h25.207a1.674,1.674,0,0,0,0-3.346H257.975A1.674,1.674,0,0,0,257.975,313.442Z" transform="translate(-199.167 -240.923)" fill="#060606"/><path d="M297.1,447.257H257.975a1.674,1.674,0,0,0,0,3.346H297.1A1.674,1.674,0,0,0,297.1,447.257Z" transform="translate(-199.167 -347.487)" fill="#060606"/><path d="M263.029,367.176a7.842,7.842,0,1,0-7.842-7.842A7.851,7.851,0,0,0,263.029,367.176Zm0-12.338a4.5,4.5,0,1,1-4.5,4.5A4.5,4.5,0,0,1,263.029,354.838Z" transform="translate(-198.262 -273.084)" fill="#060606"/><path d="M340.917,359.334a7.842,7.842,0,1,0,7.842-7.842A7.851,7.851,0,0,0,340.917,359.334Zm12.338,0a4.5,4.5,0,1,1-4.5-4.5A4.5,4.5,0,0,1,353.255,359.334Z" transform="translate(-264.868 -273.084)" fill="#060606"/></g></svg>