<svg id="truck" xmlns="http://www.w3.org/2000/svg" width="134.618" height="100.633" viewBox="0 0 134.618 100.633">
  <path id="Path_5392" data-name="Path 5392" d="M319.52,137.07h24.063a3.475,3.475,0,0,1,2.925,1.6l9.837,15.341a3.472,3.472,0,0,0,2.173,1.517l6.915,1.884a3.476,3.476,0,0,1,2.723,3.392v23.534a3.473,3.473,0,0,1-3.475,3.474H319.52Zm0,0" transform="translate(-235.509 -101.031)" fill="#ff4755"/>
  <path id="Path_5393" data-name="Path 5393" d="M405.3,157.411l-6.915-1.885a3.474,3.474,0,0,1-2.173-1.516l-9.837-15.342a3.474,3.474,0,0,0-2.925-1.6h-9.841l14.65,22.4a3.474,3.474,0,0,0,2.173,1.516l6.915,1.885a3.475,3.475,0,0,1,2.723,3.392v21.552h4.479a3.474,3.474,0,0,0,3.475-3.475V160.8A3.474,3.474,0,0,0,405.3,157.411Zm0,0" transform="translate(-275.378 -101.031)" fill="#e61f2d"/>
  <path id="Path_5394" data-name="Path 5394" d="M7.5,273.171a3.526,3.526,0,0,0,3.527,3.527H92.074V257.664H7.5Zm0,0" transform="translate(-5.528 -189.917)" fill="#8ebac5"/>
  <path id="Path_5395" data-name="Path 5395" d="M299.164,257.664h7.888V276.7h-7.888Zm0,0" transform="translate(-220.506 -189.917)" fill="#7ca1b1"/>
  <path id="Path_5396" data-name="Path 5396" d="M92.074,75.635H7.5V9.863A2.363,2.363,0,0,1,9.863,7.5H89.711a2.363,2.363,0,0,1,2.363,2.363Zm0,0" transform="translate(-5.528 -5.528)" fill="#eab765"/>
  <path id="Path_5397" data-name="Path 5397" d="M298.068,7.5H290.18a2.363,2.363,0,0,1,2.362,2.363V75.635h7.888V9.863A2.363,2.363,0,0,0,298.068,7.5Zm0,0" transform="translate(-213.884 -5.528)" fill="#d9ab5e"/>
  <path id="Path_5398" data-name="Path 5398" d="M373.153,179.361l-6.728-11.1a1.674,1.674,0,0,0-1.432-.807H353.174a1.674,1.674,0,0,0-1.674,1.674v11.106a1.674,1.674,0,0,0,1.674,1.674h18.548A1.674,1.674,0,0,0,373.153,179.361Zm0,0" transform="translate(-259.081 -123.422)" fill="#2dd2e3"/>
  <path id="Path_5399" data-name="Path 5399" d="M476.01,302.444v-5.135h-6.588a3.576,3.576,0,0,0-3.575,3.575v5.035h6.688A3.474,3.474,0,0,0,476.01,302.444Zm0,0" transform="translate(-343.364 -219.138)" fill="#fff156"/>
  <path id="Path_5400" data-name="Path 5400" d="M61.018,308.628A11.88,11.88,0,1,1,72.9,296.748,11.894,11.894,0,0,1,61.018,308.628Zm0,0" transform="translate(-36.217 -209.968)" fill="#384949"/>
  <path id="Path_5401" data-name="Path 5401" d="M81.673,321.916a4.513,4.513,0,1,1,4.513-4.513A4.518,4.518,0,0,1,81.673,321.916Zm0,0" transform="translate(-56.873 -230.623)" fill="#deecf1"/>
  <path id="Path_5402" data-name="Path 5402" d="M364.088,308.628a11.88,11.88,0,1,1,11.881-11.88A11.894,11.894,0,0,1,364.088,308.628Zm0,0" transform="translate(-259.602 -209.968)" fill="#384949"/>
  <path id="Path_5403" data-name="Path 5403" d="M384.743,321.916a4.513,4.513,0,1,1,4.513-4.513A4.518,4.518,0,0,1,384.743,321.916Zm0,0" transform="translate(-280.258 -230.623)" fill="#deecf1"/>
  <path id="Path_5404" data-name="Path 5404" d="M121.089,38.772,129,32.506a2,2,0,0,1,2.481,0l7.908,6.266a2,2,0,0,0,3.237-1.566V7.5H117.852V37.207A2,2,0,0,0,121.089,38.772Zm0,0" transform="translate(-86.865 -5.528)" fill="#ff8709"/>
  <path id="Path_5405" data-name="Path 5405" d="M240.678,184.238H225.515a1.972,1.972,0,0,0,0,3.944h15.162A1.972,1.972,0,0,0,240.678,184.238Zm0,0" transform="translate(-164.779 -135.797)"/>
  <path id="Path_5406" data-name="Path 5406" d="M240.678,220.738H225.515a1.972,1.972,0,0,0,0,3.944h15.162A1.972,1.972,0,0,0,240.678,220.738Zm0,0" transform="translate(-164.779 -162.7)"/>
  <path id="Path_5407" data-name="Path 5407" d="M3.944,54.537V4.335a.392.392,0,0,1,.391-.391H29.014V31.678a3.97,3.97,0,0,0,6.435,3.111l7.907-6.265a.028.028,0,0,1,.032,0L51.3,34.79a3.97,3.97,0,0,0,6.435-3.112V3.944H84.184a.392.392,0,0,1,.39.391v6.843a1.972,1.972,0,0,0,3.944,0V4.335A4.339,4.339,0,0,0,84.184,0H4.335A4.339,4.339,0,0,0,0,4.335v50.2A1.972,1.972,0,0,0,3.944,54.537ZM53.79,31.689c-.051.059.2.17-7.953-6.257a3.953,3.953,0,0,0-4.93,0l-7.915,6.275c-.065,0-.018-9.268-.035-27.763H53.787Zm0,0"/>
  <path id="Path_5408" data-name="Path 5408" d="M76.145,305.391a6.485,6.485,0,1,0,6.485,6.485A6.492,6.492,0,0,0,76.145,305.391Zm0,9.026c-3.363,0-3.358-5.082,0-5.082S79.5,314.416,76.145,314.416Zm0,0" transform="translate(-51.345 -225.095)"/>
  <path id="Path_5409" data-name="Path 5409" d="M347.646,178.347h18.548a3.646,3.646,0,0,0,3.118-5.536l-6.728-11.106a3.67,3.67,0,0,0-3.118-1.756H347.646A3.651,3.651,0,0,0,344,163.6V174.7A3.651,3.651,0,0,0,347.646,178.347Zm.3-14.454H359.3l6.368,10.51H347.944Zm0,0" transform="translate(-253.553 -117.894)"/>
  <path id="Path_5410" data-name="Path 5410" d="M130.4,102.43l-6.874-1.873c-.031-.008-.061-.016-.092-.023a1.491,1.491,0,0,1-.94-.656l-9.837-15.341a5.424,5.424,0,0,0-4.585-2.506H88.518v-15a1.972,1.972,0,0,0-3.944,0V116.1H3.944v-5.71a1.972,1.972,0,0,0-3.944,0v20.829a5.505,5.505,0,0,0,5.5,5.5h5.589a13.854,13.854,0,0,0,27.426,0H90.772a13.854,13.854,0,0,0,27.426,0h10.974a5.453,5.453,0,0,0,5.446-5.446V107.736A5.412,5.412,0,0,0,130.4,102.43ZM108.073,85.975a1.5,1.5,0,0,1,1.265.691l9.837,15.341a5.409,5.409,0,0,0,3.355,2.366l6.874,1.873.092.023a1.493,1.493,0,0,1,1.178,1.467v16.426h-4.617a5.553,5.553,0,0,0-5.546,5.547v3.063H118.2a13.854,13.854,0,0,0-27.426,0H88.519v-46.8ZM3.944,131.217V120.042h80.63v12.729H38.514a13.854,13.854,0,0,0-27.426,0H5.5A1.556,1.556,0,0,1,3.944,131.217ZM24.8,144.652a9.909,9.909,0,1,1,9.909-9.908A9.92,9.92,0,0,1,24.8,144.652Zm79.685,0a9.909,9.909,0,1,1,9.909-9.908A9.919,9.919,0,0,1,104.486,144.652Zm24.686-11.88h-4.715v-3.063a1.605,1.605,0,0,1,1.6-1.6h4.616v3.163A1.5,1.5,0,0,1,129.172,132.772Zm0,0" transform="translate(0 -47.963)"/>
  <path id="Path_5411" data-name="Path 5411" d="M379.215,305.391a6.485,6.485,0,1,0,6.485,6.485A6.492,6.492,0,0,0,379.215,305.391Zm0,9.026c-3.364,0-3.359-5.082,0-5.082S382.575,314.416,379.215,314.416Zm0,0" transform="translate(-274.73 -225.095)"/>
</svg>
