<svg id="_003-driver" data-name="003-driver" xmlns="http://www.w3.org/2000/svg" width="129.852" height="156.009" viewBox="0 0 129.852 156.009">
  <g id="Group_875" data-name="Group 875" transform="translate(2.289 2.287)">
    <path id="Path_5156" data-name="Path 5156" d="M175.708,384.733l-4.565-27.648a22.6,22.6,0,0,0-13.46-17.118l-18.18-7.723H86.64l-18.18,7.723A22.6,22.6,0,0,0,55,357.086l-4.565,27.648Z" transform="translate(-50.435 -233.297)" fill="#d6f3ff"/>
    <g id="Group_874" data-name="Group 874">
      <path id="Path_5157" data-name="Path 5157" d="M398.388,464.27l-4.935-10.781,11.164-6.852,9.54,17.633Z" transform="translate(-288.935 -312.834)" fill="#9ee3ff"/>
      <g id="Group_873" data-name="Group 873">
        <g id="Group_869" data-name="Group 869" transform="translate(26.004)">
          <path id="Path_5158" data-name="Path 5158" d="M204.676,37.061l3.371-7.592a10.42,10.42,0,0,0-6.557-14.232l-23.7-6.951a19.272,19.272,0,0,0-10.85,0l-23.7,6.951a10.42,10.42,0,0,0-6.557,14.232l3.371,7.592,33.429,4.521Z" transform="translate(-135.777 -7.506)" fill="#344db3"/>
          <g id="Group_868" data-name="Group 868" transform="translate(10.201 88.445)">
            <path id="Path_5159" data-name="Path 5159" d="M176.843,297.775l-7.587,10.5,19.592,11.737,6.794-16.493Z" transform="translate(-169.256 -297.775)" fill="#9ee3ff"/>
            <path id="Path_5160" data-name="Path 5160" d="M274.652,297.775l7.587,10.5-19.592,11.737-6.794-16.493Z" transform="translate(-229.467 -297.775)" fill="#9ee3ff"/>
          </g>
          <path id="Path_5161" data-name="Path 5161" d="M202.153,183.565l-13.488,5.027a18.739,18.739,0,0,1-13.091,0l-13.488-5.027a18.912,18.912,0,0,1-12.278-17.735V134.177h64.624V165.83A18.912,18.912,0,0,1,202.153,183.565Z" transform="translate(-145.532 -95.581)" fill="#fdcfa4"/>
          <path id="Path_5162" data-name="Path 5162" d="M262.072,134.177V165.83a18.912,18.912,0,0,1-12.278,17.735l-13.488,5.027c-.15.056-.3.105-.452.157a18.734,18.734,0,0,0,12.64-.157l13.488-5.027A18.912,18.912,0,0,0,274.26,165.83V134.177Z" transform="translate(-205.36 -95.581)" fill="#fdc590"/>
          <path id="Path_5163" data-name="Path 5163" d="M149.807,123.86A11.823,11.823,0,0,0,161.6,135.712h41.036a11.823,11.823,0,0,0,11.794-11.852l-32.312-4.521Z" transform="translate(-145.532 -85.264)" fill="#344db3"/>
          <path id="Path_5164" data-name="Path 5164" d="M241.947,119.339l-6.094.853,26.218,3.668a11.823,11.823,0,0,1-11.794,11.852h12.188a11.823,11.823,0,0,0,11.794-11.852Z" transform="translate(-205.36 -85.264)" fill="#1c37a6"/>
          <path id="Path_5165" data-name="Path 5165" d="M149.807,104.5h64.624v9.042H149.807Z" transform="translate(-145.532 -74.947)" fill="#ffbe00"/>
          <path id="Path_5166" data-name="Path 5166" d="M271.074,15.237l-23.7-6.951a19.272,19.272,0,0,0-10.85,0l-.669.2,23.033,6.755a10.42,10.42,0,0,1,6.557,14.232l-3.371,7.592h12.188l3.371-7.592A10.42,10.42,0,0,0,271.074,15.237Z" transform="translate(-205.36 -7.506)" fill="#1c37a6"/>
          <path id="Path_5167" data-name="Path 5167" d="M321.9,104.5h12.188v9.042H321.9Z" transform="translate(-265.188 -74.947)" fill="#f0b300"/>
          <path id="Path_5168" data-name="Path 5168" d="M233.556,333.129l6.794-16.493,6.794,16.493-2.529,7h-8Z" transform="translate(-203.763 -222.445)" fill="#ffbe00"/>
        </g>
        <g id="Group_872" data-name="Group 872" transform="translate(0 113.292)">
          <path id="Path_5169" data-name="Path 5169" d="M66.2,464.27l4.935-10.781-11.164-6.852-9.54,17.633Z" transform="translate(-50.434 -426.126)" fill="#9ee3ff"/>
          <path id="Path_5170" data-name="Path 5170" d="M80.891,430.5l-2.559,5.235a6.525,6.525,0,0,0,.491,6.571l.122.178a6.525,6.525,0,0,0,11.128-.635l6.376-11.953" transform="translate(-69.37 -414.485)" fill="#fdcfa4"/>
          <path id="Path_5171" data-name="Path 5171" d="M388.088,430.5l2.559,5.235a6.525,6.525,0,0,1-.491,6.571l-.122.178a6.525,6.525,0,0,1-11.128-.635l-6.376-11.953" transform="translate(-274.388 -414.485)" fill="#fdcfa4"/>
          <g id="Group_870" data-name="Group 870" transform="translate(14.731)">
            <path id="Path_5172" data-name="Path 5172" d="M194.5,417.143a49.192,49.192,0,0,0-95.72,0m9.671,0a39.948,39.948,0,0,1,33.52-28.207v23.172a23.714,23.714,0,0,1-.54,5.035m10.419,0a23.712,23.712,0,0,1-.54-5.035V388.937a39.948,39.948,0,0,1,33.52,28.207" transform="translate(-98.78 -379.322)" fill="#8986a6"/>
          </g>
          <g id="Group_871" data-name="Group 871" transform="translate(11.521 4.555)">
            <path id="Path_5173" data-name="Path 5173" d="M88.244,405.73s7.679,8.476,14.342,4.964,6.247-14.888,3.519-16.108C102.288,392.879,91.98,398.332,88.244,405.73Z" transform="translate(-88.244 -394.272)" fill="#fdcfa4"/>
            <path id="Path_5174" data-name="Path 5174" d="M378.585,405.73s-7.679,8.476-14.342,4.964-6.247-14.888-3.519-16.108C364.542,392.879,374.849,398.332,378.585,405.73Z" transform="translate(-276.406 -394.272)" fill="#fdcfa4"/>
          </g>
        </g>
      </g>
    </g>
  </g>
  <g id="Group_876" data-name="Group 876" transform="translate(0 0)">
    <path id="Path_5175" data-name="Path 5175" d="M172.739,153.351,168.174,125.7a25,25,0,0,0-7.716-14.271c-2.105-1.935-5.294,1.343-3.092,3.365a20.406,20.406,0,0,1,6.3,11.65l2.368,14.341c-1.817-3.358-3.339-6.827-5.081-10.225a25.548,25.548,0,0,0-9.78-9.926c-2.095-1.234-7.364-3.925-11.054-2.275-1.655.74-2.459,2.53-2.849,4.2a51.567,51.567,0,0,0-20.183-8.422L134.4,103.77l12.166,5.168c2.59,1.1,4.566-3.026,1.787-4.207l-12.729-5.408-5.458-7.555A21.3,21.3,0,0,0,142.4,72.537V32.326l3.175-7.149a12.848,12.848,0,0,0-8-17.352L113.87.874a21.512,21.512,0,0,0-12.129,0l-10.7,3.1c-2.747.8-1.6,5.224,1.272,4.389l10.71-3.1a16.954,16.954,0,0,1,9.564,0l23.7,6.951A8.214,8.214,0,0,1,141.4,23.322l-2.768,6.235H76.975l-2.769-6.235a8.135,8.135,0,0,1,5.111-11.111c2.744-.805,1.584-5.225-1.286-4.386a12.705,12.705,0,0,0-8,17.352L73.2,32.326V72.537A21.305,21.305,0,0,0,85.435,91.77l-5.5,7.61-17.594,7.474A24.763,24.763,0,0,0,47.521,125.7l-4.558,27.608a2.285,2.285,0,0,0,4.275,1.467l5.381-10.337a9.048,9.048,0,0,0,6.311,4.151q-.7,2.108-1.212,4.283c-.648,2.741,3.731,4.086,4.448,1.052a46.466,46.466,0,0,1,6-14.239,9.582,9.582,0,0,0,3.972-1.108c4.111-2.167,5.971-6.57,6.462-10.514a46.894,46.894,0,0,1,58.445.036c.5,3.935,2.359,8.318,6.457,10.478a9.579,9.579,0,0,0,3.932,1.1,46.7,46.7,0,0,1,6,14.243c.67,2.835,5.129,1.83,4.448-1.052q-.513-2.171-1.21-4.277a8.955,8.955,0,0,0,6.233-3.978l5.513,10.19a2.32,2.32,0,0,0,4.316-1.46Zm-57.041-43.7L111.1,98.5c5.007-.8,9.94-3.256,14.663-5.016l5.109,7.073Zm22.131-75.521V38.6H77.775V34.127Zm-.274,9.042a9.537,9.537,0,0,1-9.235,7.281H87.284a9.537,9.537,0,0,1-9.235-7.281ZM77.775,72.537V51.3a13.994,13.994,0,0,0,9.509,3.722H128.32a13.994,13.994,0,0,0,9.509-3.722V72.537a16.694,16.694,0,0,1-10.791,15.594l-1.172.437L107.8,94.09,89.735,88.566l-1.168-.435A16.694,16.694,0,0,1,77.775,72.537ZM89.836,93.482c4.723,1.76,9.655,4.22,14.663,5.016l-4.593,11.15-15.179-9.093ZM64.13,111.062l17.109-7.269,17.279,10.351a51.564,51.564,0,0,0-20.15,8.4c-.392-1.666-1.2-3.442-2.843-4.179-3.691-1.65-8.96,1.041-11.054,2.275a25.573,25.573,0,0,0-9.761,9.89l-.006.01L49.8,139.961l2.231-13.513a20.214,20.214,0,0,1,12.1-15.386Zm-3.973,33.049a4.447,4.447,0,0,1-3.932-6.28l1.209-2.473a21.482,21.482,0,0,0,5.883,3.51,51.062,51.062,0,0,0-2.656,5.211A4.283,4.283,0,0,1,60.157,144.111Zm9.851-9.575c-3.671,1.935-8.273-1.466-10.4-3.351,3.847-5.867,11.724-9.364,13.912-8.7a8.209,8.209,0,0,1,.628,4.191c0,.011,0,.021,0,.032a13.347,13.347,0,0,1-.162,1.416c-.3,1.772-1.214,4.96-3.972,6.415Zm33.708-21.076-.225-.516,4.311-10.466,2.236,5.429,2.108,5.118-.16.442q-2.083-.17-4.185-.174Q105.751,113.295,103.716,113.46Zm37.946,14.662a9.474,9.474,0,0,1,.463-5.639c2.187-.663,10.07,2.839,13.915,8.706-2.122,1.889-6.712,5.3-10.406,3.347C142.876,133.082,141.962,129.893,141.662,128.122ZM159.1,142.1a4.415,4.415,0,0,1-4.16,1.971,51.126,51.126,0,0,0-2.645-5.191,21.456,21.456,0,0,0,5.916-3.522,17.033,17.033,0,0,1,1.482,3.2A4.566,4.566,0,0,1,159.1,142.1Z" transform="translate(-42.922 0)"/>
    <path id="Path_5176" data-name="Path 5176" d="M160.331,403.955a2.285,2.285,0,0,0-1.785-.562A42.081,42.081,0,0,0,123.1,433.217c-.806,2.705,3.5,4.275,4.38,1.3a37.52,37.52,0,0,1,29.044-26.2v20.514a21.462,21.462,0,0,1-.488,4.55c-.607,2.795,3.832,3.892,4.466.97a26.054,26.054,0,0,0,.592-5.52V405.663A2.283,2.283,0,0,0,160.331,403.955Z" transform="translate(-98.602 -280.469)"/>
    <path id="Path_5177" data-name="Path 5177" d="M266.231,403.393a2.286,2.286,0,0,0-2.552,2.27v23.172a26.054,26.054,0,0,0,.592,5.52c.607,2.794,5.1,1.952,4.466-.97a21.461,21.461,0,0,1-.488-4.55V408.32a37.52,37.52,0,0,1,29.044,26.2c.83,2.786,5.227,1.536,4.38-1.305A42.08,42.08,0,0,0,266.231,403.393Z" transform="translate(-196.415 -280.469)"/>
    <path id="Path_5178" data-name="Path 5178" d="M232.108,253.439a13.208,13.208,0,0,0,9.79-4.4c1.936-2.1-1.342-5.3-3.365-3.093a8.534,8.534,0,0,1-12.851,0c-1.935-2.105-5.389.892-3.365,3.093A13.208,13.208,0,0,0,232.108,253.439Z" transform="translate(-167.228 -170.494)"/>
  </g>
</svg>
