<svg xmlns="http://www.w3.org/2000/svg" xmlns:xlink="http://www.w3.org/1999/xlink" width="80.028" height="80.028" viewBox="0 0 80.028 80.028">
  <defs>
    <linearGradient id="linear-gradient" x1="1" y1="0.087" x2="0.181" y2="0.91" gradientUnits="objectBoundingBox">
      <stop offset="0" stop-color="#9d39b7"/>
      <stop offset="0.494" stop-color="#f6632f"/>
      <stop offset="1" stop-color="#f8c962"/>
    </linearGradient>
    <filter id="back" x="0" y="0" width="80.028" height="80.028" filterUnits="userSpaceOnUse">
      <feOffset dy="3" input="SourceAlpha"/>
      <feGaussianBlur stdDeviation="8" result="blur"/>
      <feFlood flood-opacity="0.063"/>
      <feComposite operator="in" in2="blur"/>
      <feComposite in="SourceGraphic"/>
    </filter>
  </defs>
  <g id="insta" transform="translate(24 21)">
    <g transform="matrix(1, 0, 0, 1, -24, -21)" filter="url(#back)">
      <rect id="back-2" data-name="back" width="32.028" height="32.028" rx="16.014" transform="translate(24 21)" fill="url(#linear-gradient)"/>
    </g>
    <g id="Instagram" transform="translate(7.605 7.84)">
      <path id="Path_3819" data-name="Path 3819" d="M8.307,0C6.05,0,5.768.01,4.882.05A6.125,6.125,0,0,0,2.866.436a4.068,4.068,0,0,0-1.472.958A4.053,4.053,0,0,0,.436,2.866,6.107,6.107,0,0,0,.05,4.882C.008,5.768,0,6.05,0,8.307s.01,2.538.05,3.424a6.129,6.129,0,0,0,.386,2.016,4.074,4.074,0,0,0,.958,1.472,4.062,4.062,0,0,0,1.472.958,6.133,6.133,0,0,0,2.016.386c.886.042,1.168.05,3.424.05s2.538-.01,3.424-.05a6.147,6.147,0,0,0,2.016-.386,4.245,4.245,0,0,0,2.43-2.43,6.129,6.129,0,0,0,.386-2.016c.042-.886.05-1.168.05-3.424s-.01-2.538-.05-3.424a6.143,6.143,0,0,0-.386-2.016,4.077,4.077,0,0,0-.958-1.472A4.047,4.047,0,0,0,13.747.436,6.111,6.111,0,0,0,11.731.05C10.845.008,10.563,0,8.307,0Zm0,1.5c2.217,0,2.482.011,3.357.049a4.577,4.577,0,0,1,1.542.287,2.734,2.734,0,0,1,1.577,1.576,4.586,4.586,0,0,1,.286,1.542c.039.876.048,1.139.048,3.357s-.01,2.482-.051,3.357a4.675,4.675,0,0,1-.291,1.542,2.637,2.637,0,0,1-.622.957,2.591,2.591,0,0,1-.955.62,4.62,4.62,0,0,1-1.547.286c-.882.039-1.141.048-3.363.048s-2.482-.01-3.363-.051a4.71,4.71,0,0,1-1.548-.291,2.572,2.572,0,0,1-.955-.622A2.522,2.522,0,0,1,1.8,13.2a4.714,4.714,0,0,1-.291-1.547c-.031-.872-.042-1.141-.042-3.353s.011-2.482.042-3.365A4.709,4.709,0,0,1,1.8,3.385a2.462,2.462,0,0,1,.623-.956,2.457,2.457,0,0,1,.955-.622,4.6,4.6,0,0,1,1.537-.291c.883-.031,1.142-.042,3.363-.042Zm0,2.546a4.265,4.265,0,1,0,4.265,4.265A4.265,4.265,0,0,0,8.307,4.041Zm0,7.034a2.769,2.769,0,1,1,2.769-2.769A2.768,2.768,0,0,1,8.307,11.075Zm5.431-7.2a1,1,0,1,1-1-1A1,1,0,0,1,13.738,3.873Z" transform="translate(0 0)" fill="#fff"/>
    </g>
  </g>
</svg>
