<svg id="_005-app" data-name="005-app" xmlns="http://www.w3.org/2000/svg" width="126.088" height="156.006" viewBox="0 0 126.088 156.006">
  <path id="Path_5196" data-name="Path 5196" d="M58.594,138.8v71.658a25.164,25.164,0,0,1-25.142,25.3v14.464H7.5V164.361A25.556,25.556,0,0,1,33.053,138.8Zm0,0" transform="translate(-5.212 -96.511)" fill="#edb48a"/>
  <path id="Path_5197" data-name="Path 5197" d="M92.68,138.8h25.142V250.232H92.68Zm0,0" transform="translate(-64.44 -96.511)" fill="#e29c6d"/>
  <path id="Path_5198" data-name="Path 5198" d="M195.822,158.708H130.264a10.944,10.944,0,0,1-10.944-10.944V18.444A10.945,10.945,0,0,1,130.264,7.5h65.558a10.944,10.944,0,0,1,10.944,10.944v129.32A10.945,10.945,0,0,1,195.822,158.708Zm0,0" transform="translate(-82.964 -5.215)" fill="#618baa"/>
  <path id="Path_5199" data-name="Path 5199" d="M359.808,18.443V147.765a10.941,10.941,0,0,1-10.943,10.943H339.43a10.942,10.942,0,0,0,10.944-10.943V18.443A10.942,10.942,0,0,0,339.43,7.5h9.435A10.941,10.941,0,0,1,359.808,18.443Zm0,0" transform="translate(-236.006 -5.215)" fill="#4e7693"/>
  <path id="Path_5200" data-name="Path 5200" d="M188.476,55.812l-1.565,4.123a3.044,3.044,0,0,1-2.845,1.963H142.02a3.043,3.043,0,0,1-2.845-1.964l-1.564-4.123a3.045,3.045,0,0,0-2.845-1.963H119.32V175.289h87.446V53.849H191.32A3.042,3.042,0,0,0,188.476,55.812Zm0,0" transform="translate(-82.964 -37.44)" fill="#5be167"/>
  <path id="Path_5201" data-name="Path 5201" d="M375.348,53.852h9.434v121.44h-9.434Zm0,0" transform="translate(-260.98 -37.443)" fill="#1fc974"/>
  <path id="Path_5202" data-name="Path 5202" d="M167.406,223.776h-9.4a2.785,2.785,0,0,1-2.784-2.785v-9.4a2.784,2.784,0,0,1,2.784-2.784h9.4a2.784,2.784,0,0,1,2.784,2.784v9.4A2.785,2.785,0,0,1,167.406,223.776Zm0,0" transform="translate(-107.926 -145.185)" fill="#fd9e28"/>
  <path id="Path_5203" data-name="Path 5203" d="M185.285,211.593v9.4a2.785,2.785,0,0,1-2.784,2.785h-5.568a2.785,2.785,0,0,0,2.784-2.785v-9.4a2.784,2.784,0,0,0-2.784-2.784H182.5A2.784,2.784,0,0,1,185.285,211.593Zm0,0" transform="translate(-123.022 -145.185)" fill="#fd8724"/>
  <path id="Path_5204" data-name="Path 5204" d="M250.441,223.776h-9.4a2.785,2.785,0,0,1-2.784-2.785v-9.4a2.784,2.784,0,0,1,2.784-2.784h9.4a2.784,2.784,0,0,1,2.784,2.784v9.4A2.785,2.785,0,0,1,250.441,223.776Zm0,0" transform="translate(-165.661 -145.185)" fill="#fd9e28"/>
  <path id="Path_5205" data-name="Path 5205" d="M268.318,211.593v9.4a2.785,2.785,0,0,1-2.784,2.785h-5.569a2.785,2.785,0,0,0,2.784-2.785v-9.4a2.784,2.784,0,0,0-2.784-2.784h5.568A2.785,2.785,0,0,1,268.318,211.593Zm0,0" transform="translate(-180.754 -145.185)" fill="#fd8724"/>
  <path id="Path_5206" data-name="Path 5206" d="M333.472,223.776h-9.4a2.785,2.785,0,0,1-2.784-2.785v-9.4a2.784,2.784,0,0,1,2.784-2.784h9.4a2.784,2.784,0,0,1,2.784,2.784v9.4A2.785,2.785,0,0,1,333.472,223.776Zm0,0" transform="translate(-223.393 -145.185)" fill="#fd9e28"/>
  <path id="Path_5207" data-name="Path 5207" d="M351.352,211.593v9.4a2.785,2.785,0,0,1-2.784,2.785H343a2.785,2.785,0,0,0,2.784-2.785v-9.4A2.784,2.784,0,0,0,343,208.809h5.568A2.784,2.784,0,0,1,351.352,211.593Zm0,0" transform="translate(-238.488 -145.185)" fill="#fd8724"/>
  <path id="Path_5208" data-name="Path 5208" d="M167.406,377.541h-9.4a2.784,2.784,0,0,1-2.784-2.784v-9.4a2.784,2.784,0,0,1,2.784-2.784h9.4a2.784,2.784,0,0,1,2.784,2.784v9.4A2.784,2.784,0,0,1,167.406,377.541Zm0,0" transform="translate(-107.926 -252.098)" fill="#43a3f9"/>
  <path id="Path_5209" data-name="Path 5209" d="M185.285,365.359v9.4a2.784,2.784,0,0,1-2.784,2.784h-5.568a2.784,2.784,0,0,0,2.784-2.784v-9.4a2.785,2.785,0,0,0-2.784-2.785H182.5A2.785,2.785,0,0,1,185.285,365.359Zm0,0" transform="translate(-123.022 -252.098)" fill="#1685fb"/>
  <path id="Path_5210" data-name="Path 5210" d="M250.441,377.541h-9.4a2.784,2.784,0,0,1-2.784-2.784v-9.4a2.784,2.784,0,0,1,2.784-2.784h9.4a2.784,2.784,0,0,1,2.784,2.784v9.4A2.784,2.784,0,0,1,250.441,377.541Zm0,0" transform="translate(-165.661 -252.098)" fill="#43a3f9"/>
  <path id="Path_5211" data-name="Path 5211" d="M268.318,365.359v9.4a2.784,2.784,0,0,1-2.784,2.784h-5.569a2.784,2.784,0,0,0,2.784-2.784v-9.4a2.785,2.785,0,0,0-2.784-2.785h5.568A2.786,2.786,0,0,1,268.318,365.359Zm0,0" transform="translate(-180.754 -252.098)" fill="#1685fb"/>
  <path id="Path_5212" data-name="Path 5212" d="M333.472,377.541h-9.4a2.784,2.784,0,0,1-2.784-2.784v-9.4a2.784,2.784,0,0,1,2.784-2.784h9.4a2.784,2.784,0,0,1,2.784,2.784v9.4A2.784,2.784,0,0,1,333.472,377.541Zm0,0" transform="translate(-223.393 -252.098)" fill="#43a3f9"/>
  <path id="Path_5213" data-name="Path 5213" d="M351.352,365.359v9.4a2.784,2.784,0,0,1-2.784,2.784H343a2.784,2.784,0,0,0,2.784-2.784v-9.4A2.785,2.785,0,0,0,343,362.574h5.568A2.785,2.785,0,0,1,351.352,365.359Zm0,0" transform="translate(-238.488 -252.098)" fill="#1685fb"/>
  <path id="Path_5214" data-name="Path 5214" d="M92.68,211.519a12.571,12.571,0,0,1,25.141,0v40.763a25.244,25.244,0,0,1-16.911,23.93,12.2,12.2,0,0,0-8.23,11.527Zm0,0" transform="translate(-64.44 -138.33)" fill="#edb48a"/>
  <path id="Path_5215" data-name="Path 5215" d="M138.176,211.517V252.28a25.256,25.256,0,0,1-15.7,23.471,25.326,25.326,0,0,0,8.4-18.908V211.517a12.575,12.575,0,0,0-8.921-12.032,12.573,12.573,0,0,1,16.223,12.032Zm0,0" transform="translate(-84.794 -138.327)" fill="#e29c6d"/>
  <path id="Path_5216" data-name="Path 5216" d="M167.406,138.194h-9.4a2.784,2.784,0,0,1-2.784-2.784v-9.4a2.784,2.784,0,0,1,2.784-2.784h9.4a2.784,2.784,0,0,1,2.784,2.784v9.4A2.784,2.784,0,0,1,167.406,138.194Zm0,0" transform="translate(-107.926 -85.68)" fill="#e3f4ff"/>
  <path id="Path_5217" data-name="Path 5217" d="M185.285,126.014v9.4A2.785,2.785,0,0,1,182.5,138.2h-5.568a2.785,2.785,0,0,0,2.784-2.784v-9.4a2.784,2.784,0,0,0-2.784-2.784H182.5A2.784,2.784,0,0,1,185.285,126.014Zm0,0" transform="translate(-123.022 -85.682)" fill="#bddff4"/>
  <path id="Path_5218" data-name="Path 5218" d="M250.441,138.194h-9.4a2.784,2.784,0,0,1-2.784-2.784v-9.4a2.784,2.784,0,0,1,2.784-2.784h9.4a2.785,2.785,0,0,1,2.784,2.784v9.4A2.784,2.784,0,0,1,250.441,138.194Zm0,0" transform="translate(-165.661 -85.68)" fill="#e3f4ff"/>
  <path id="Path_5219" data-name="Path 5219" d="M268.318,126.014v9.4a2.785,2.785,0,0,1-2.784,2.784h-5.569a2.784,2.784,0,0,0,2.784-2.784v-9.4a2.784,2.784,0,0,0-2.784-2.784h5.568A2.785,2.785,0,0,1,268.318,126.014Zm0,0" transform="translate(-180.754 -85.682)" fill="#bddff4"/>
  <path id="Path_5220" data-name="Path 5220" d="M333.472,138.194h-9.4a2.784,2.784,0,0,1-2.784-2.784v-9.4a2.785,2.785,0,0,1,2.784-2.784h9.4a2.784,2.784,0,0,1,2.784,2.784v9.4A2.784,2.784,0,0,1,333.472,138.194Zm0,0" transform="translate(-223.393 -85.68)" fill="#e3f4ff"/>
  <path id="Path_5221" data-name="Path 5221" d="M351.352,126.014v9.4a2.785,2.785,0,0,1-2.784,2.784H343a2.785,2.785,0,0,0,2.784-2.784v-9.4A2.784,2.784,0,0,0,343,123.23h5.568A2.784,2.784,0,0,1,351.352,126.014Zm0,0" transform="translate(-238.488 -85.682)" fill="#bddff4"/>
  <path id="Path_5222" data-name="Path 5222" d="M2.285,394.535A2.286,2.286,0,0,0,0,396.82v31.221a2.285,2.285,0,0,0,4.57,0V396.82A2.286,2.286,0,0,0,2.285,394.535Zm0,0" transform="translate(0 -274.321)"/>
  <path id="Path_5223" data-name="Path 5223" d="M250.3,206.378a5.075,5.075,0,0,0-5.069-5.069h-9.4a5.075,5.075,0,0,0-5.069,5.069v9.4a5.075,5.075,0,0,0,5.069,5.07h9.4a5.076,5.076,0,0,0,5.069-5.07Zm-4.571,9.4a.5.5,0,0,1-.5.5h-9.4a.5.5,0,0,1-.5-.5v-9.4a.5.5,0,0,1,.5-.5h9.4a.5.5,0,0,1,.5.5Zm0,0" transform="translate(-160.446 -139.97)"/>
  <path id="Path_5224" data-name="Path 5224" d="M333.327,206.378a5.074,5.074,0,0,0-5.069-5.069h-9.4a5.075,5.075,0,0,0-5.069,5.069v9.4a5.076,5.076,0,0,0,5.069,5.07h9.4a5.075,5.075,0,0,0,5.069-5.07Zm-4.57,9.4a.5.5,0,0,1-.5.5h-9.4a.5.5,0,0,1-.5-.5v-9.4a.5.5,0,0,1,.5-.5h9.4a.5.5,0,0,1,.5.5Zm0,0" transform="translate(-218.178 -139.97)"/>
  <path id="Path_5225" data-name="Path 5225" d="M245.225,355.074h-9.4a5.075,5.075,0,0,0-5.069,5.07v9.4a5.074,5.074,0,0,0,5.069,5.069h9.4a5.075,5.075,0,0,0,5.07-5.069v-9.4A5.076,5.076,0,0,0,245.225,355.074Zm.5,14.468a.5.5,0,0,1-.5.5h-9.4a.5.5,0,0,1-.5-.5v-9.4a.5.5,0,0,1,.5-.5h9.4a.5.5,0,0,1,.5.5Zm0,0" transform="translate(-160.446 -246.883)"/>
  <path id="Path_5226" data-name="Path 5226" d="M328.257,355.074h-9.4a5.076,5.076,0,0,0-5.069,5.07v9.4a5.075,5.075,0,0,0,5.069,5.069h9.4a5.074,5.074,0,0,0,5.069-5.069v-9.4A5.075,5.075,0,0,0,328.257,355.074Zm.5,14.468a.5.5,0,0,1-.5.5h-9.4a.5.5,0,0,1-.5-.5v-9.4a.5.5,0,0,1,.5-.5h9.4a.5.5,0,0,1,.5.5Zm0,0" transform="translate(-218.178 -246.883)"/>
  <path id="Path_5227" data-name="Path 5227" d="M123.8,88.923a2.286,2.286,0,0,0,2.285-2.285V13.229A13.244,13.244,0,0,0,112.859,0H69.87a2.285,2.285,0,0,0,0,4.57h42.989a8.668,8.668,0,0,1,8.659,8.659v.894h-13.16a5.355,5.355,0,0,0-4.981,3.437l-1.565,4.122a.761.761,0,0,1-.708.489H59.057a.763.763,0,0,1-.708-.489l-1.564-4.122A5.356,5.356,0,0,0,51.8,14.123H38.642v-.894A8.669,8.669,0,0,1,47.3,4.57h12.05a2.285,2.285,0,0,0,0-4.57H47.3A13.245,13.245,0,0,0,34.072,13.229V40.008h-6.23A27.872,27.872,0,0,0,0,67.85v43.234a2.285,2.285,0,1,0,4.57,0V67.849A23.3,23.3,0,0,1,27.842,44.578h6.23V59.957A14.87,14.87,0,0,0,25.954,73.19V94.638a9.329,9.329,0,0,0-7.028,9.029,2.285,2.285,0,1,0,4.57,0,4.746,4.746,0,0,1,2.458-4.154v6.419a2.285,2.285,0,0,0,4.57,0V73.19a10.285,10.285,0,0,1,20.571,0v40.763a22.986,22.986,0,0,1-15.374,21.769,14.415,14.415,0,0,0-9.006,9.059,2.285,2.285,0,1,0,4.329,1.464,9.872,9.872,0,0,1,3.028-4.428v.732A13.245,13.245,0,0,0,47.3,155.779h65.558a13.245,13.245,0,0,0,13.229-13.229V97.157a2.285,2.285,0,1,0-4.57,0v38.408H45.32a27.514,27.514,0,0,0,6.69-7.836h7.469a5.074,5.074,0,0,0,5.069-5.069v-9.4a5.075,5.075,0,0,0-5.069-5.07H55.666V80.876h3.813a5.075,5.075,0,0,0,5.069-5.07v-9.4a5.074,5.074,0,0,0-5.069-5.069h-9.4a2.231,2.231,0,0,0-.3.021,14.774,14.774,0,0,0-8.972-3.026,14.978,14.978,0,0,0-2.169.159v-39.8H51.8a.762.762,0,0,1,.708.488L54.076,23.3a5.358,5.358,0,0,0,4.981,3.437H101.1a5.358,5.358,0,0,0,4.981-3.437l1.565-4.123a.76.76,0,0,1,.707-.489h13.162V86.638A2.286,2.286,0,0,0,123.8,88.923Zm-2.285,51.212v2.414a8.669,8.669,0,0,1-8.659,8.659H47.3a8.669,8.669,0,0,1-8.659-8.659v-2.415h82.876ZM59.479,112.761a.5.5,0,0,1,.5.5v9.4a.5.5,0,0,1-.5.5H54.1a27.777,27.777,0,0,0,1.569-9.205v-1.191Zm0-46.852a.5.5,0,0,1,.5.5v9.4a.5.5,0,0,1-.5.5H55.666V73.19a14.755,14.755,0,0,0-1.914-7.281Zm0,0"/>
  <path id="Path_5228" data-name="Path 5228" d="M152.792,115.73a5.075,5.075,0,0,0-5.069,5.069v9.4a5.076,5.076,0,0,0,5.069,5.069h9.4a5.075,5.075,0,0,0,5.069-5.069v-9.4a5.074,5.074,0,0,0-5.069-5.069Zm9.9,5.069v9.4a.5.5,0,0,1-.5.5h-9.4a.5.5,0,0,1-.5-.5v-9.4a.5.5,0,0,1,.5-.5h9.4A.5.5,0,0,1,162.69,120.8Zm0,0" transform="translate(-102.712 -80.468)"/>
  <path id="Path_5229" data-name="Path 5229" d="M250.3,120.8a5.075,5.075,0,0,0-5.069-5.069h-9.4a5.075,5.075,0,0,0-5.069,5.069v9.4a5.075,5.075,0,0,0,5.069,5.069h9.4A5.076,5.076,0,0,0,250.3,130.2Zm-4.571,9.4a.5.5,0,0,1-.5.5h-9.4a.5.5,0,0,1-.5-.5v-9.4a.5.5,0,0,1,.5-.5h9.4a.5.5,0,0,1,.5.5Zm0,0" transform="translate(-160.446 -80.468)"/>
  <path id="Path_5230" data-name="Path 5230" d="M333.327,120.8a5.074,5.074,0,0,0-5.069-5.069h-9.4a5.075,5.075,0,0,0-5.069,5.069v9.4a5.076,5.076,0,0,0,5.069,5.069h9.4a5.075,5.075,0,0,0,5.069-5.069Zm-4.57,9.4a.5.5,0,0,1-.5.5h-9.4a.5.5,0,0,1-.5-.5v-9.4a.5.5,0,0,1,.5-.5h9.4a.5.5,0,0,1,.5.5Zm0,0" transform="translate(-218.178 -80.468)"/>
</svg>
