<svg id="_003-driving-license" data-name="003-driving-license" xmlns="http://www.w3.org/2000/svg" width="124.227" height="90.987" viewBox="0 0 124.227 90.987">
  <path id="Path_5291" data-name="Path 5291" d="M459.058,83.279A7.279,7.279,0,0,0,451.779,76H444.5v87.347h7.279a7.279,7.279,0,0,0,7.279-7.279V148.79l-7.279-29.116,7.279-29.116Z" transform="translate(-336.65 -74.18)" fill="#ffab37"/>
  <path id="Path_5292" data-name="Path 5292" d="M113.53,76H14.779A7.279,7.279,0,0,0,7.5,83.279v7.279l7.279,29.116L7.5,148.79v7.279a7.279,7.279,0,0,0,7.279,7.279H113.53a7.279,7.279,0,0,0,7.279-7.279V83.279A7.279,7.279,0,0,0,113.53,76Z" transform="translate(-5.68 -74.18)" fill="#ffcd37"/>
  <path id="Path_5293" data-name="Path 5293" d="M451.779,136,444.5,165.116l7.279,29.116h7.279V136Z" transform="translate(-336.65 -119.622)" fill="#eff7f9"/>
  <path id="Path_5294" data-name="Path 5294" d="M7.5,136H120.809v58.232H7.5Z" transform="translate(-5.68 -119.622)" fill="#fff"/>
  <path id="Path_5295" data-name="Path 5295" d="M67.5,181v36.395l16.378-4.853,16.378,4.853V181Z" transform="translate(-51.122 -153.704)" fill="#aaeffd"/>
  <path id="Path_5296" data-name="Path 5296" d="M92.976,301h-18.2a7.279,7.279,0,0,0-7.279,7.279h32.755A7.279,7.279,0,0,0,92.976,301Z" transform="translate(-51.122 -244.588)" fill="#697276"/>
  <ellipse id="Ellipse_62" data-name="Ellipse 62" cx="7.279" cy="7.279" rx="7.279" ry="7.279" transform="translate(25.476 34.575)" fill="#ff8937"/>
  <circle id="Ellipse_63" data-name="Ellipse 63" cx="2" cy="2" r="2" transform="translate(61.858 58.227)"/>
  <ellipse id="Ellipse_64" data-name="Ellipse 64" cx="1.5" cy="2" rx="1.5" ry="2" transform="translate(69.858 58.227)"/>
  <circle id="Ellipse_65" data-name="Ellipse 65" cx="2" cy="2" r="2" transform="translate(75.858 58.227)"/>
  <path id="Path_5297" data-name="Path 5297" d="M115.129,68.5H9.1A9.109,9.109,0,0,0,0,77.6v72.79a9.109,9.109,0,0,0,9.1,9.1h106.03a9.109,9.109,0,0,0,9.1-9.1V77.6A9.109,9.109,0,0,0,115.129,68.5ZM9.1,72.139h106.03a5.466,5.466,0,0,1,5.459,5.459v5.459H16.378a1.82,1.82,0,1,0,0,3.639h104.21V141.29H3.639V86.7H9.1a1.82,1.82,0,1,0,0-3.639H3.639V77.6A5.466,5.466,0,0,1,9.1,72.139Zm106.03,83.708H9.1a5.466,5.466,0,0,1-5.459-5.459v-5.459H120.588v5.459A5.466,5.466,0,0,1,115.129,155.847Z" transform="translate(0 -68.5)"/>
  <path id="Path_5298" data-name="Path 5298" d="M106.6,221.7a9.1,9.1,0,1,0-9.1-9.1A9.109,9.109,0,0,0,106.6,221.7Zm0-14.558a5.459,5.459,0,1,1-5.459,5.459A5.466,5.466,0,0,1,106.6,207.139Z" transform="translate(-73.843 -170.745)"/>
  <path id="Path_5299" data-name="Path 5299" d="M61.82,213.534H94.575a1.819,1.819,0,0,0,1.82-1.82V175.32a1.819,1.819,0,0,0-1.82-1.82H61.82A1.819,1.819,0,0,0,60,175.32v36.395A1.819,1.819,0,0,0,61.82,213.534Zm30.936-36.395v27.3a9.051,9.051,0,0,0-5.459-1.825H69.1a9.049,9.049,0,0,0-5.459,1.825v-27.3Zm-.313,32.755H63.952a5.468,5.468,0,0,1,5.146-3.639H87.3A5.468,5.468,0,0,1,92.442,209.895Z" transform="translate(-45.442 -148.024)"/>
  <path id="Path_5300" data-name="Path 5300" d="M256.82,252.139h44.159a1.82,1.82,0,0,0,0-3.639H256.82a1.82,1.82,0,0,0,0,3.639Z" transform="translate(-193.129 -204.826)"/>
  <path id="Path_5301" data-name="Path 5301" d="M256.82,192.139H278.9a1.82,1.82,0,0,0,0-3.639H256.82a1.82,1.82,0,0,0,0,3.639Z" transform="translate(-193.129 -159.384)"/>
  <path id="Path_5302" data-name="Path 5302" d="M256.82,282.139h44.159a1.82,1.82,0,0,0,0-3.639H256.82a1.82,1.82,0,0,0,0,3.639Z" transform="translate(-193.129 -227.547)"/>
</svg>
