<svg id="_002-list" data-name="002-list" xmlns="http://www.w3.org/2000/svg" width="156.006" height="156.006" viewBox="0 0 156.006 156.006">
  <path id="Path_5147" data-name="Path 5147" d="M184.843,361.808h77.492a5.915,5.915,0,0,1,5.915,5.915v31.647a5.915,5.915,0,0,1-5.915,5.915H184.843a5.915,5.915,0,0,1-4.582-2.175l-15.208-18.629a1.479,1.479,0,0,1,0-1.87l15.208-18.629A5.916,5.916,0,0,1,184.843,361.808Z" transform="translate(-114.53 -251.565)" fill="#ffb05f"/>
  <path id="Path_5148" data-name="Path 5148" d="M472.805,367.723v31.647a5.915,5.915,0,0,1-5.915,5.915h-7.974a5.915,5.915,0,0,0,5.915-5.915V367.723a5.915,5.915,0,0,0-5.915-5.915h7.974A5.915,5.915,0,0,1,472.805,367.723Z" transform="translate(-319.085 -251.565)" fill="#ff904e"/>
  <path id="Path_5149" data-name="Path 5149" d="M184.843,184.656h77.492a5.915,5.915,0,0,1,5.915,5.915v31.647a5.915,5.915,0,0,1-5.915,5.915H184.843a5.915,5.915,0,0,1-4.582-2.175L165.053,207.33a1.479,1.479,0,0,1,0-1.87l15.208-18.629A5.915,5.915,0,0,1,184.843,184.656Z" transform="translate(-114.53 -128.391)" fill="#fe5e47"/>
  <path id="Path_5150" data-name="Path 5150" d="M472.805,190.571v31.647a5.915,5.915,0,0,1-5.915,5.915h-7.974a5.915,5.915,0,0,0,5.915-5.915V190.571a5.915,5.915,0,0,0-5.915-5.915h7.974A5.915,5.915,0,0,1,472.805,190.571Z" transform="translate(-319.085 -128.391)" fill="#f53737"/>
  <path id="Path_5151" data-name="Path 5151" d="M184.843,7.5h77.492a5.915,5.915,0,0,1,5.915,5.915V45.066a5.915,5.915,0,0,1-5.915,5.915H184.843a5.915,5.915,0,0,1-4.582-2.175L165.053,30.177a1.479,1.479,0,0,1,0-1.87L180.26,9.678A5.915,5.915,0,0,1,184.843,7.5Z" transform="translate(-114.53 -5.217)" fill="#7cc3ac"/>
  <path id="Path_5152" data-name="Path 5152" d="M472.805,13.418V45.066a5.915,5.915,0,0,1-5.915,5.915h-7.974a5.915,5.915,0,0,0,5.915-5.915V13.418A5.915,5.915,0,0,0,458.916,7.5h7.974A5.915,5.915,0,0,1,472.805,13.418Z" transform="translate(-319.085 -5.217)" fill="#61ae9f"/>
  <path id="Path_5153" data-name="Path 5153" d="M42.994,36.957v17.3a5.915,5.915,0,0,1-5.915,5.915H13.416A5.915,5.915,0,0,1,7.5,54.26v-17.3a5.915,5.915,0,0,1,5.915-5.915H37.078A5.915,5.915,0,0,1,42.994,36.957ZM37.078,139H13.416A5.915,5.915,0,0,0,7.5,144.914v17.3a5.915,5.915,0,0,0,5.915,5.915H37.078a5.915,5.915,0,0,0,5.915-5.915v-17.3A5.915,5.915,0,0,0,37.078,139Zm0-53.978H13.416A5.915,5.915,0,0,0,7.5,90.936v17.3a5.915,5.915,0,0,0,5.915,5.915H37.078a5.915,5.915,0,0,0,5.915-5.915v-17.3A5.915,5.915,0,0,0,37.078,85.02Z" transform="translate(-5.215 -21.584)" fill="#ffeca1"/>
  <path id="Path_5154" data-name="Path 5154" d="M107.938,36.958v17.3a5.915,5.915,0,0,1-5.915,5.915h-1.117a8.092,8.092,0,0,0,1.117-4.159V35.2a8.092,8.092,0,0,0-1.116-4.159h1.116A5.915,5.915,0,0,1,107.938,36.958Zm-5.915,48.063h-1.116a8.092,8.092,0,0,1,1.116,4.159V110a8.089,8.089,0,0,1-1.117,4.159h1.117a5.915,5.915,0,0,0,5.915-5.915v-17.3A5.915,5.915,0,0,0,102.023,85.021Zm0,53.978h-1.116a8.092,8.092,0,0,1,1.116,4.159v20.816a8.089,8.089,0,0,1-1.117,4.159h1.117a5.915,5.915,0,0,0,5.915-5.915v-17.3A5.915,5.915,0,0,0,102.023,139Z" transform="translate(-70.16 -21.584)" fill="#ffd178"/>
  <path id="Path_5155" data-name="Path 5155" d="M40.063,15.374v17.3a8.21,8.21,0,0,1-8.2,8.2H8.2a8.21,8.21,0,0,1-8.2-8.2v-17.3a8.21,8.21,0,0,1,8.2-8.2H19.884a2.285,2.285,0,0,1,0,4.57H8.2a3.634,3.634,0,0,0-3.63,3.63v17.3a3.634,3.634,0,0,0,3.63,3.63H31.863a3.634,3.634,0,0,0,3.63-3.63v-17.3a3.634,3.634,0,0,0-3.63-3.63H29.668L20.642,32.051A2.285,2.285,0,0,1,18.748,33.4c-.065.006-.13.008-.194.008a2.285,2.285,0,0,1-1.9-1.018l-5.915-8.873a2.285,2.285,0,0,1,3.8-2.535L18.152,26.4,28.3,3.576a2.285,2.285,0,0,1,4.177,1.856L31.7,7.173h.164A8.209,8.209,0,0,1,40.063,15.374Zm89.4,123.2H84.209a2.285,2.285,0,1,0,0,4.57h45.258a2.285,2.285,0,0,0,0-4.57ZM84.209,125.394h30.47a2.285,2.285,0,0,0,0-4.57H84.209a2.285,2.285,0,0,0,0,4.57ZM20.328,75.718h-.3a2.285,2.285,0,1,0,0,4.57h.3a2.285,2.285,0,1,0,0-4.57ZM138.34,129.7H84.209a2.285,2.285,0,1,0,0,4.57H138.34a2.285,2.285,0,0,0,0-4.57ZM12.785,75.718h-.3a2.285,2.285,0,1,0,0,4.57h.3a2.285,2.285,0,1,0,0-4.57Zm14.789,0h-.3a2.285,2.285,0,1,0,0,4.57h.3a2.285,2.285,0,1,0,0-4.57Zm4.289,39.412H31.7l.774-1.741a2.285,2.285,0,1,0-4.177-1.856L18.152,134.358,14.54,128.94a2.285,2.285,0,0,0-3.8,2.535l5.915,8.873a2.285,2.285,0,0,0,1.9,1.018c.064,0,.129,0,.194-.008a2.285,2.285,0,0,0,1.895-1.349l9.029-20.314c.041,0,.08.006.121.006h2.071a3.634,3.634,0,0,1,3.63,3.63v17.3a3.634,3.634,0,0,1-3.63,3.63H8.2a3.634,3.634,0,0,1-3.63-3.63v-17.3A3.634,3.634,0,0,1,8.2,119.7H19.884a2.285,2.285,0,1,0,0-4.57H8.2a8.21,8.21,0,0,0-8.2,8.2v17.3a8.21,8.21,0,0,0,8.2,8.2H31.863a8.21,8.21,0,0,0,8.2-8.2v-17.3A8.21,8.21,0,0,0,31.863,115.13Zm8.2-45.6V86.476a8.389,8.389,0,0,1-8.379,8.379H8.38A8.389,8.389,0,0,1,0,86.476V69.53A8.389,8.389,0,0,1,8.38,61.151h23.3A8.389,8.389,0,0,1,40.063,69.53Zm-4.57,0a3.813,3.813,0,0,0-3.809-3.809H8.38A3.813,3.813,0,0,0,4.571,69.53V86.476A3.813,3.813,0,0,0,8.38,90.285h23.3a3.813,3.813,0,0,0,3.809-3.809ZM138.34,120.823H123.552a2.285,2.285,0,0,0,0,4.57H138.34a2.285,2.285,0,0,0,0-4.57ZM84.209,35.183h36.385a2.285,2.285,0,1,0,0-4.57H84.209a2.285,2.285,0,0,0,0,4.57Zm0-8.873H96.932a2.285,2.285,0,0,0,0-4.57H84.209a2.285,2.285,0,0,0,0,4.57ZM138.34,12.867H84.209a2.285,2.285,0,0,0,0,4.57H138.34a2.285,2.285,0,0,0,0-4.57Zm2.285,11.158a2.285,2.285,0,0,0-2.285-2.285H105.806a2.285,2.285,0,1,0,0,4.57H138.34A2.285,2.285,0,0,0,140.626,24.025ZM147.805,0H138.34a2.285,2.285,0,1,0,0,4.57h9.465a3.634,3.634,0,0,1,3.63,3.63V39.849a3.634,3.634,0,0,1-3.63,3.63H70.313A3.615,3.615,0,0,1,67.5,42.144L52.709,24.025,67.5,5.9A3.615,3.615,0,0,1,70.313,4.57h58.119a2.285,2.285,0,0,0,0-4.57H70.313A8.168,8.168,0,0,0,63.96,3.015L48.752,21.644a3.778,3.778,0,0,0,0,4.761L63.96,45.035a8.169,8.169,0,0,0,6.353,3.015h77.492a8.21,8.21,0,0,0,8.2-8.2V8.2A8.21,8.21,0,0,0,147.805,0ZM138.34,66.845H123.552a2.285,2.285,0,0,0,0,4.57H138.34a2.285,2.285,0,0,0,0-4.57ZM105.806,84.591h-21.6a2.285,2.285,0,0,0,0,4.57h21.6a2.285,2.285,0,0,0,0-4.57Zm-21.6-13.176h30.47a2.285,2.285,0,0,0,0-4.57H84.209a2.285,2.285,0,0,0,0,4.57Zm71.8,44.743v31.648a8.21,8.21,0,0,1-8.2,8.2H70.313a8.169,8.169,0,0,1-6.353-3.015L48.752,134.362a3.778,3.778,0,0,1,0-4.761l15.208-18.63a8.169,8.169,0,0,1,6.353-3.015h77.492A8.211,8.211,0,0,1,156.006,116.158Zm-4.57,0a3.634,3.634,0,0,0-3.63-3.63H70.313a3.616,3.616,0,0,0-2.812,1.334h0l-14.792,18.12L67.5,150.1a3.616,3.616,0,0,0,2.812,1.335H147.8a3.634,3.634,0,0,0,3.63-3.63V116.158Zm-13.1-40.44H84.209a2.285,2.285,0,1,0,0,4.57H138.34a2.285,2.285,0,0,0,0-4.57Zm17.666-13.539V93.827a8.21,8.21,0,0,1-8.2,8.2H70.313a8.169,8.169,0,0,1-6.353-3.015L48.752,80.383a3.778,3.778,0,0,1,0-4.761L63.96,56.993a8.169,8.169,0,0,1,6.353-3.015h77.492A8.211,8.211,0,0,1,156.006,62.179Zm-4.57,0a3.634,3.634,0,0,0-3.63-3.63H70.313A3.616,3.616,0,0,0,67.5,59.883h0L52.709,78,67.5,96.123a3.616,3.616,0,0,0,2.812,1.335H147.8a3.634,3.634,0,0,0,3.63-3.63V62.179Z" transform="translate(0 0)"/>
</svg>
