<svg id="_005-arab" data-name="005-arab" xmlns="http://www.w3.org/2000/svg" width="76.705" height="124.228" viewBox="0 0 76.705 124.228">
  <path id="Path_5338" data-name="Path 5338" d="M66.815,384.273,80.464,388.9c.469.158.926.338,1.376.535l5.039,3.368a17.241,17.241,0,0,1,5.291,12.429v5.91A2.174,2.174,0,0,1,90,413.319H31.873a2.174,2.174,0,0,1-2.174-2.174v-5.92a17.241,17.241,0,0,1,4.8-11.931l5.03-3.637A16.88,16.88,0,0,1,41.4,388.9l13.457-4.575Zm0,0" transform="translate(-22.493 -291.036)" fill="#d2c5c2"/>
  <path id="Path_5339" data-name="Path 5339" d="M47.565,411.145v-5.92a17.238,17.238,0,0,1,4.8-11.931l5.029-3.637a16.88,16.88,0,0,1,1.872-.761l10.58-3.6-3.027-1.026-11.962.048L41.4,388.9a16.88,16.88,0,0,0-1.872.761l-5.03,3.637a17.241,17.241,0,0,0-4.8,11.931v5.92a2.174,2.174,0,0,0,2.174,2.174H49.74A2.175,2.175,0,0,1,47.565,411.145Zm0,0" transform="translate(-22.493 -291.036)" fill="#c4b5b3"/>
  <path id="Path_5340" data-name="Path 5340" d="M139.4,419.438h9.237v20.514H139.4Zm0,0" transform="translate(-105.579 -317.669)" fill="#eae6e5"/>
  <path id="Path_5341" data-name="Path 5341" d="M145.333,341.113v10.5a5.8,5.8,0,0,1-5.8,5.8h-.357a5.8,5.8,0,0,1-5.8-5.8v-10.5Zm0,0" transform="translate(-101.011 -258.348)" fill="#fdbf8e"/>
  <path id="Path_5342" data-name="Path 5342" d="M138.8,356.7V352.73a6.528,6.528,0,0,1,6.528-6.528v-5.089H133.371v10.5a5.8,5.8,0,0,0,5.477,5.793A5.966,5.966,0,0,1,138.8,356.7Zm0,0" transform="translate(-101.011 -258.348)" fill="#f4b082"/>
  <path id="Path_5343" data-name="Path 5343" d="M76.468,36.559l4.1,61.169a3.632,3.632,0,0,1-1.488,3.18L65.8,110.562a.487.487,0,0,1-.773-.394V64.9l-42.316-.219v45.645a.488.488,0,0,1-.753.408L9.328,102.522a4,4,0,0,1-1.814-3.629l4.231-62.24a32.691,32.691,0,0,1,.878-4.818l6.169-12.207a32.542,32.542,0,0,1,50.661,0l6.119,12.044A32.926,32.926,0,0,1,76.468,36.559Zm0,0" transform="translate(-5.684 -5.692)" fill="#dfd7d5"/>
  <path id="Path_5344" data-name="Path 5344" d="M31.511,36.654a32.679,32.679,0,0,1,.877-4.819l6.17-12.207A32.56,32.56,0,0,1,54.007,9.05,32.543,32.543,0,0,0,18.793,19.628l-6.17,12.207a32.681,32.681,0,0,0-.878,4.819L7.514,98.893a4,4,0,0,0,1.814,3.629l12.634,8.209a.487.487,0,0,0,.753-.409V64.676l6.888.036Zm0,0" transform="translate(-5.684 -5.692)" fill="#c9c4c3"/>
  <path id="Path_5345" data-name="Path 5345" d="M86.547,83.6a3.126,3.126,0,0,1-2.211,5.336H24.065a3.126,3.126,0,0,1,0-6.253h2.183a3.039,3.039,0,0,0,.876.127H81.28a3.032,3.032,0,0,0,.875-.127h2.181A3.12,3.12,0,0,1,86.547,83.6Zm0,0" transform="translate(-15.86 -62.622)" fill="#808496"/>
  <path id="Path_5346" data-name="Path 5346" d="M112.545,137.241v33.893a10.522,10.522,0,0,1-10.523,10.52H101.6v1.665a4.183,4.183,0,0,1-4.182,4.184h-11.8a4.184,4.184,0,0,1-4.184-4.184v-1.665h-.719A10.521,10.521,0,0,1,70.2,171.134V137.241a2.158,2.158,0,0,1,2.158-2.159h38.033A2.159,2.159,0,0,1,112.545,137.241Zm0,0" transform="translate(-53.164 -102.307)" fill="#fdbf8e"/>
  <path id="Path_5347" data-name="Path 5347" d="M95.539,183.319v-1.665H94.82A10.521,10.521,0,0,1,84.3,171.134V137.241a2.158,2.158,0,0,1,2.158-2.159h-14.1a2.158,2.158,0,0,0-2.158,2.159v33.893a10.521,10.521,0,0,0,10.523,10.52h.719v1.665a4.184,4.184,0,0,0,4.184,4.184h11.8a4.18,4.18,0,0,0,1.15-.164A4.182,4.182,0,0,1,95.539,183.319Zm0,0" transform="translate(-53.164 -102.307)" fill="#f4b082"/>
  <path id="Path_5348" data-name="Path 5348" d="M218.821,205.664a10.522,10.522,0,0,1-7.04,9.1v-6.483a9.082,9.082,0,0,0-1.218-4.563l2.3-2.295a3.233,3.233,0,0,0,.945-2.283v-7.533a17.091,17.091,0,0,1,5.052-12.042v25.258C218.855,205.106,218.842,205.386,218.821,205.664Zm0,0" transform="translate(-159.473 -135.998)" fill="#582c21"/>
  <path id="Path_5349" data-name="Path 5349" d="M76.394,194.957l2.912,2.919a9.1,9.1,0,0,0-1.711,5.328V209.8a10.521,10.521,0,0,1-7.4-10.048V172.863a17.845,17.845,0,0,1,5.253,12.278v7.531A3.231,3.231,0,0,0,76.394,194.957Zm0,0" transform="translate(-53.164 -130.921)" fill="#582c21"/>
  <path id="Path_5350" data-name="Path 5350" d="M127.35,264.8a9.145,9.145,0,0,0-7.929-4.584h-9.582a9.144,9.144,0,0,0-9.147,9.147v6.592a10.49,10.49,0,0,0,3.124.472h.719v1.665a4.184,4.184,0,0,0,4.184,4.184h11.8a4.183,4.183,0,0,0,4.182-4.184v-1.665h.418a10.432,10.432,0,0,0,3.449-.581v-6.483A9.082,9.082,0,0,0,127.35,264.8Zm0,0" transform="translate(-76.26 -197.078)" fill="#7f4334"/>
  <path id="Path_5351" data-name="Path 5351" d="M141.593,287.967v2.039a3.871,3.871,0,0,1-4.511,3.82l-3.439-.574-3.112.54A3.873,3.873,0,0,1,126,289.975v-2.007a3.3,3.3,0,0,1,3.3-3.3h9A3.3,3.3,0,0,1,141.593,287.967Zm0,0" transform="translate(-95.425 -215.598)" fill="#fdbf8e"/>
  <path id="Path_5352" data-name="Path 5352" d="M148.293,240.277a.834.834,0,0,1,.834.833V242.4a4.248,4.248,0,0,1-4.289,4.246,4.319,4.319,0,0,1-4.205-4.357V241.11a.834.834,0,0,1,.834-.833Zm0,0" transform="translate(-106.511 -181.978)" fill="#efa573"/>
  <path id="Path_5353" data-name="Path 5353" d="M93.027,59.358a3.123,3.123,0,0,1-1.334,5.209H35.786a3.079,3.079,0,0,1-1.334-.79,3.124,3.124,0,0,1,2.21-5.335H90.818A3.113,3.113,0,0,1,93.027,59.358Zm0,0" transform="translate(-25.398 -44.262)" fill="#808496"/>
  <path id="Path_5354" data-name="Path 5354" d="M28.827,86.442A3.124,3.124,0,0,1,25.7,83.315a3.155,3.155,0,0,1,.064-.631h-1.7a3.126,3.126,0,0,0,0,6.253h60.27A3.124,3.124,0,0,0,87.4,86.442Zm0,0" transform="translate(-15.86 -62.622)" fill="#747889"/>
  <path id="Path_5355" data-name="Path 5355" d="M40.549,62.072a3.077,3.077,0,0,1-1.334-.79,3.13,3.13,0,0,1-.853-2.84h-1.7a3.124,3.124,0,0,0-2.21,5.335,3.079,3.079,0,0,0,1.334.79H91.693A3.126,3.126,0,0,0,93.9,62.072Zm0,0" transform="translate(-25.398 -44.262)" fill="#747889"/>
  <path id="Path_5356" data-name="Path 5356" d="M126.911,384.273l5.909,2a11.894,11.894,0,0,1-11.712,9.906h-.357a11.9,11.9,0,0,1-11.7-9.855l5.9-2.006a5.8,5.8,0,0,0,5.8,5.783h.357a5.8,5.8,0,0,0,5.8-5.8Zm0,0" transform="translate(-82.589 -291.036)" fill="#dfd7d5"/>
  <path id="Path_5357" data-name="Path 5357" d="M137.724,282.276a5.126,5.126,0,0,0-5.12-5.12h-9a5.126,5.126,0,0,0-5.12,5.121v2.009a5.7,5.7,0,0,0,6.67,5.613l2.805-.487,3.134.523a5.7,5.7,0,0,0,6.634-5.618Zm-3.646,2.041a2.05,2.05,0,0,1-2.387,2.023l-3.44-.574a1.88,1.88,0,0,0-.3-.025,1.815,1.815,0,0,0-.312.027l-3.111.539a2.05,2.05,0,0,1-2.4-2.02v-2.009A1.475,1.475,0,0,1,123.6,280.8h9a1.475,1.475,0,0,1,1.474,1.474Zm0,0" transform="translate(-89.733 -209.909)"/>
  <path id="Path_5358" data-name="Path 5358" d="M145.109,294.988h-6.6a1.823,1.823,0,1,0,0,3.646h6.6a1.823,1.823,0,0,0,0-3.646Zm0,0" transform="translate(-103.523 -223.415)"/>
  <path id="Path_5359" data-name="Path 5359" d="M106.992,179.987l-6.657,1.906a1.823,1.823,0,1,0,1,3.5l.83-.238a2.59,2.59,0,1,0,4.758-1.361l1.07-.306a1.823,1.823,0,0,0-1-3.506Zm0,0" transform="translate(-74.989 -136.263)"/>
  <path id="Path_5360" data-name="Path 5360" d="M184.094,181.892l-6.657-1.906a1.823,1.823,0,1,0-1,3.506l1.07.306a2.59,2.59,0,1,0,4.657,2.13,2.558,2.558,0,0,0,.1-.769l.831.238a1.823,1.823,0,1,0,1-3.5Zm0,0" transform="translate(-132.623 -136.262)"/>
  <path id="Path_5361" data-name="Path 5361" d="M104.564,154.8a22.393,22.393,0,0,0-11.034-.028,1.823,1.823,0,0,0,.772,3.564,18.869,18.869,0,0,1,9.263-.028,1.823,1.823,0,1,0,1-3.507Zm0,0" transform="translate(-69.749 -116.713)"/>
  <path id="Path_5362" data-name="Path 5362" d="M180,154.776a22.393,22.393,0,0,0-11.034.028,1.823,1.823,0,1,0,1,3.507,18.88,18.88,0,0,1,9.263.028,1.823,1.823,0,0,0,.772-3.564Zm0,0" transform="translate(-126.968 -116.713)"/>
  <path id="Path_5363" data-name="Path 5363" d="M155.086,451.467a1.58,1.58,0,1,1-1.58-1.58A1.58,1.58,0,0,1,155.086,451.467Zm0,0" transform="translate(-115.064 -340.73)"/>
  <path id="Path_5364" data-name="Path 5364" d="M155.086,474.507a1.58,1.58,0,1,1-1.58-1.581A1.58,1.58,0,0,1,155.086,474.507Zm0,0" transform="translate(-115.064 -358.179)"/>
  <path id="Path_5365" data-name="Path 5365" d="M73.689,120.581H71.5V114.2a19.178,19.178,0,0,0-4.389-12.158L74.3,96.818a5.818,5.818,0,0,0,2.4-5.121L72.6,30.746l-.006-.069a34.653,34.653,0,0,0-.61-3.762,4.941,4.941,0,0,0-1.92-8.166,4.933,4.933,0,0,0-4.646-6.636h-.8a34.36,34.36,0,0,0-52.371,0h-.99a4.935,4.935,0,0,0-4.646,6.636,4.936,4.936,0,0,0-1.77,8.305,34.8,34.8,0,0,0-.6,3.717l-.006.067L.013,93.065a5.852,5.852,0,0,0,2.649,5.3l6.609,4.293a18.961,18.961,0,0,0-3.888,11.53v6.393H2.952a1.823,1.823,0,1,0,0,3.646H73.689a1.823,1.823,0,1,0,0-3.646ZM34.182,93.255V87.018H42.5v6.248a3.985,3.985,0,0,1-3.981,3.98h-.356a3.984,3.984,0,0,1-3.98-3.98Zm10.076-9.883h-11.8A2.361,2.361,0,0,1,30.1,81.013V79.348a1.823,1.823,0,0,0-1.824-1.824h-.719a8.8,8.8,0,0,1-1.3-.1V72.283a7.333,7.333,0,0,1,7.325-7.324h.759a6.056,6.056,0,0,0,8.064,0h.759a7.333,7.333,0,0,1,7.325,7.324V77.37a8.769,8.769,0,0,1-1.626.154h-.418a1.823,1.823,0,0,0-1.824,1.823v1.666A2.361,2.361,0,0,1,44.258,83.372Zm-25.4-14.546V47.409a15.139,15.139,0,0,1,1.606,6.811v7.532a5.021,5.021,0,0,0,1.48,3.573l1.9,1.9a10.9,10.9,0,0,0-1.239,5.055v3.692A8.7,8.7,0,0,1,18.855,68.826ZM53.3,68.091l1.376-1.375a5.021,5.021,0,0,0,1.479-3.573V55.612a15.154,15.154,0,0,1,1.406-6.4v9.646a1.8,1.8,0,0,0-.033.345V69.564a8.7,8.7,0,0,1-3.393,6.174V72.283A10.925,10.925,0,0,0,53.3,68.091Zm4.261-25.318a18.719,18.719,0,0,0-5.052,12.838v7.532a1.394,1.394,0,0,1-.412.994l-.8.8a10.959,10.959,0,0,0-6.935-3.554,6.065,6.065,0,0,0,.076-.953v-1.4a1.824,1.824,0,0,0-3.647,0v1.4a2.423,2.423,0,1,1-4.846,0v-1.4a1.823,1.823,0,0,0-3.646,0v1.4a6.065,6.065,0,0,0,.075.953,10.938,10.938,0,0,0-6.306,2.915L24.52,62.746a1.4,1.4,0,0,1-.412-1V54.22a18.724,18.724,0,0,0-5.253-13.05V34.932a.334.334,0,0,1,.335-.334H57.223a.334.334,0,0,1,.334.334v7.841Zm-38.7,34.8a12.365,12.365,0,0,0,4.928,3,1.869,1.869,0,0,0,.207.064,12.28,12.28,0,0,0,2.462.479A6.013,6.013,0,0,0,30.536,86.7V91.98L18.855,95.95ZM30.935,95.7a7.638,7.638,0,0,0,7.227,5.2h.357a7.638,7.638,0,0,0,7.242-5.241l2.3.78a10.018,10.018,0,0,1-9.544,6.892h-.357a10.028,10.028,0,0,1-9.528-6.845Zm7.227,11.273h.357a13.835,13.835,0,0,0,2.718-.271V120.46H35.647V106.737A13.774,13.774,0,0,0,38.162,106.968Zm29.693,7.23v6.262H44.884V105.412A13.636,13.636,0,0,0,51.516,97.6l5.868,1.989c.045.015.093.035.139.051v3.54a2.967,2.967,0,0,0,4.715,2.4l1.92-1.4A15.508,15.508,0,0,1,67.855,114.2ZM38.438,3.646a30.583,30.583,0,0,1,21.179,8.467H17.26A30.579,30.579,0,0,1,38.438,3.646ZM11.262,15.76H65.419a1.3,1.3,0,1,1,0,2.6H29.171a1.823,1.823,0,0,0-1.824,1.823c0,.021,0,.04,0,.06s0,.039,0,.059a1.824,1.824,0,0,0,1.824,1.824h39.3a1.3,1.3,0,0,1,0,2.6H8.206a1.3,1.3,0,1,1,0-2.6H21.879A1.823,1.823,0,0,0,23.7,20.305c0-.02,0-.039,0-.059s0-.039,0-.06a1.823,1.823,0,0,0-1.823-1.823H11.262a1.3,1.3,0,1,1,0-2.6ZM3.651,93.313,7.877,31.12c.1-.915.243-1.831.424-2.741H68.476c.028,0,.056,0,.085,0,.172.88.311,1.765.4,2.65L73.054,91.94a2.19,2.19,0,0,1-.9,1.929l-10.982,7.984V90.65a1.823,1.823,0,0,0-3.646,0v5.139L46.145,91.93V86.712a6.013,6.013,0,0,0,4.117-5.62,12.31,12.31,0,0,0,7.261-3.485v5.75a1.823,1.823,0,1,0,3.646,0L61.2,34.933a3.985,3.985,0,0,0-3.981-3.981H19.189a3.985,3.985,0,0,0-3.981,3.981v67.236l-2.238-1.454L4.648,95.309A2.2,2.2,0,0,1,3.651,93.313Zm5.379,20.876a15.342,15.342,0,0,1,3.306-9.539l1.933,1.256a2.969,2.969,0,0,0,4.586-2.49v-3.6c.21-.082.422-.16.634-.232l5.693-1.935A13.658,13.658,0,0,0,32,105.511V120.46H9.029Zm0,0" transform="translate(0)"/>
</svg>
