<svg xmlns="http://www.w3.org/2000/svg" width="113.252" height="153.999" viewBox="0 0 113.252 153.999"><path d="M180.984,12.4a4.9,4.9,0,1,1-4.9-4.9A4.9,4.9,0,0,1,180.984,12.4Zm0,0" transform="translate(-119.695 -5.244)" fill="#6193ff"/><path d="M182.336,7.5a4.873,4.873,0,0,0-2.211.531,4.893,4.893,0,0,1,0,8.738A4.9,4.9,0,1,0,182.336,7.5Zm0,0" transform="translate(-125.947 -5.244)" fill="#407bff"/><path d="M126.712,331.432H34.973v-41.34a19.251,19.251,0,0,1,14.961-18.767l30.96-7.079,30.865,7.073a19.252,19.252,0,0,1,14.952,18.765Zm0,0" transform="translate(-24.454 -184.766)" fill="#ff758e"/><path d="M204.726,271.319l-30.865-7.073L167.93,265.6l24.947,5.716a19.251,19.251,0,0,1,14.952,18.765v41.349h11.849V290.084A19.252,19.252,0,0,0,204.726,271.319Zm0,0" transform="translate(-117.42 -184.766)" fill="#ff5876"/><path d="M126.712,355.194H34.973l15.255-15.666h61.79Zm0,0" transform="translate(-24.454 -237.404)" fill="#ffba41"/><path d="M123.772,425.567H37.912a2.939,2.939,0,0,1-2.94-2.938V391.613h91.739v31.014A2.939,2.939,0,0,1,123.772,425.567Zm0,0" transform="translate(-24.454 -273.824)" fill="#ffc964"/><path d="M177.9,355.194H160.137l2.038-15.666h13.459Zm0,0" transform="translate(-111.971 -237.404)" fill="#d16a15"/><path d="M160.137,391.613H177.9v23.513l-8.88-8-8.879,8Zm0,0" transform="translate(-111.971 -273.824)" fill="#e57917"/><path d="M16.686,425.873h-4.8A4.383,4.383,0,0,1,7.5,421.491V407.707a4.382,4.382,0,0,1,4.382-4.382h4.8a4.384,4.384,0,0,1,4.384,4.382v13.784A4.384,4.384,0,0,1,16.686,425.873Zm0,0" transform="translate(-5.244 -282.013)" fill="#ffe7a9"/><path d="M333.1,425.873h-4.8a4.383,4.383,0,0,1-4.382-4.382V407.707a4.383,4.383,0,0,1,4.382-4.382h4.8a4.382,4.382,0,0,1,4.382,4.382v13.784A4.383,4.383,0,0,1,333.1,425.873Zm0,0" transform="translate(-226.487 -282.013)" fill="#ffe7a9"/><path d="M167.479,231.582l-7.406,7.407a10.957,10.957,0,0,1-15.494,0l-7.29-7.289.828-6.279,1.675-12.667h25.224L166.67,225.4Zm0,0" transform="translate(-95.995 -148.762)" fill="#ffd886"/><path d="M168.6,225.4a23.009,23.009,0,0,1-28.553.018l1.674-12.667h25.224Zm0,0" transform="translate(-97.921 -148.762)" fill="#ffc964"/><path d="M156.989,110.656v20.6c0,.066,0,.136,0,.2a23.015,23.015,0,0,1-46.029-.085V110.657h46.032Zm0,0" transform="translate(-77.583 -77.373)" fill="#ffe7a9"/><path d="M155.525,60.135l-48.236.77V47.121a10.64,10.64,0,0,1,8.244-10.366l13.589-3.141a10.438,10.438,0,0,1,4.707,0l13.465,3.129a10.639,10.639,0,0,1,8.231,10.364Zm0,0" transform="translate(-75.019 -23.317)" fill="#ff758e"/><path d="M194.166,36.746,180.7,33.617a10.438,10.438,0,0,0-4.707,0L174.324,34l11.816,2.746a10.641,10.641,0,0,1,8.231,10.364V60.135H202.4V47.11A10.639,10.639,0,0,0,194.166,36.746Zm0,0" transform="translate(-121.891 -23.317)" fill="#ff5876"/><path d="M156.989,128.064v12.948c0,.066,0,.136,0,.2a123.318,123.318,0,0,0-46.029-.085V128.282a76.04,76.04,0,0,1,46.032-.217Zm0,0" transform="translate(-77.583 -87.127)" fill="#ffd886"/><path d="M150.321,122.313a2.964,2.964,0,0,1-3.37,3.918,123.452,123.452,0,0,0-48.722-.092,2.964,2.964,0,0,1-3.287-4.11c1.291-2.916,2.241-5.831,3.532-8.747a78.716,78.716,0,0,1,23.411-3.917,74.376,74.376,0,0,1,24.826,3.8C147.8,116.18,149.232,119.3,150.321,122.313Zm0,0" transform="translate(-66.204 -76.465)" fill="#6193ff"/><path d="M116.392,157.235a123.431,123.431,0,0,0-19.256,1.417,2.922,2.922,0,0,0,2.809.963,123.52,123.52,0,0,1,20.016-2.311Q118.2,157.246,116.392,157.235Zm0,0" transform="translate(-67.92 -109.941)" fill="#407bff"/><path d="M206.423,122.313c-1.089-3.01-2.52-6.133-3.611-9.142a74.36,74.36,0,0,0-24.826-3.806c-1.046.014-2.066.054-3.069.108a76.175,76.175,0,0,1,9.363,1.1,18.115,18.115,0,0,1,13.829,11.648c.011.031.021.06.033.09a2.942,2.942,0,0,1-.535,2.94c1.9.3,3.721.629,5.443.979A2.965,2.965,0,0,0,206.423,122.313Zm0,0" transform="translate(-122.306 -76.465)" fill="#407bff"/><path d="M181.617,64.55a4.422,4.422,0,1,1-4.421-4.421A4.422,4.422,0,0,1,181.617,64.55Zm0,0" transform="translate(-120.807 -42.043)" fill="#fff"/><path d="M106.613,119.055h-2.1v-1.318a.088.088,0,0,0,0-.018v-12.4a21.405,21.405,0,0,0-16.7-20.964L73.53,81.081l-1.013-7.744a25.4,25.4,0,0,0,9.144-19.452V52.068a5.218,5.218,0,0,0,4.576-6.99c-.56-1.55-1.21-3.13-1.84-4.66-.559-1.364-1.134-2.767-1.634-4.118V23.794a12.844,12.844,0,0,0-9.979-12.563L63.292,9.025a7.153,7.153,0,1,0-13.805.023l-9.478,2.191A12.838,12.838,0,0,0,30.015,23.8V36.817a2.073,2.073,0,0,0,.016.257l-3.356,7.577a5.221,5.221,0,0,0,4.442,7.326v1.908a25.393,25.393,0,0,0,9.166,19.472L39.261,81.1,24.978,84.359A21.4,21.4,0,0,0,8.264,105.326v13.73H6.638A6.646,6.646,0,0,0,0,125.694v13.784a6.646,6.646,0,0,0,6.638,6.638H8.264V148.8a5.2,5.2,0,0,0,5.2,5.2H99.32a5.2,5.2,0,0,0,5.193-5.2v-2.687h2.1a6.646,6.646,0,0,0,6.638-6.638V125.694A6.647,6.647,0,0,0,106.613,119.055Zm-38.735-3.521-1.611-11.155h20.32L97.05,115.533Zm-4.559,0H50.734l1.451-11.155h9.524Zm-12.9,4.513H63.669v16.185l-5.113-4.609a2.255,2.255,0,0,0-3.021,0l-5.113,4.609ZM69.1,82.011l-6.62,6.622a8.71,8.71,0,0,1-12.3,0l-6.5-6.5.787-5.96a25.29,25.29,0,0,0,23.873-.013ZM56.389,4.512a2.641,2.641,0,0,1,2.5,3.5,12.834,12.834,0,0,0-4.991.025,2.639,2.639,0,0,1,2.492-3.527ZM30.9,47.212a.689.689,0,0,1-.1-.734l3.466-7.827a73.771,73.771,0,0,1,21.446-3.494,75.363,75.363,0,0,1,8.634.372,2.256,2.256,0,0,0,.456-4.489,80.384,80.384,0,0,0-9.153-.395,78.23,78.23,0,0,0-21.123,3.209V23.8a8.346,8.346,0,0,1,6.5-8.168L54.607,12.5a8.282,8.282,0,0,1,3.7,0l13.461,3.13a8.351,8.351,0,0,1,6.489,8.168v9.847c-.969-.281-1.941-.542-2.908-.78a2.256,2.256,0,1,0-1.081,4.38c1.5.37,3.012.8,4.509,1.271.463,1.213.965,2.433,1.452,3.621.611,1.486,1.243,3.022,1.772,4.482a.691.691,0,0,1-.132.71.677.677,0,0,1-.67.229q-.643-.13-1.288-.253c-.038-.009-.075-.016-.113-.022a125.646,125.646,0,0,0-46.87-.076l-.011,0q-.666.125-1.33.256A.68.68,0,0,1,30.9,47.212Zm4.734,6.674V51.3a121.088,121.088,0,0,1,41.521.08v2.5A20.761,20.761,0,0,1,44.031,70.567l-.018-.014A20.852,20.852,0,0,1,35.629,53.885ZM25.983,88.757l14.6-3.337,6.4,6.4a13.227,13.227,0,0,0,18.685,0l6.435-6.436L86.8,88.751A16.914,16.914,0,0,1,100,105.316v6.769l-10.79-11.506a2.256,2.256,0,0,0-1.646-.712H39.9a2.256,2.256,0,1,0,0,4.512h7.732l-1.452,11.155H15.865l10.861-11.155h3.909a2.256,2.256,0,0,0,0-4.512H25.774a2.251,2.251,0,0,0-1.617.683L12.775,112.238v-6.913A16.916,16.916,0,0,1,25.983,88.757ZM4.512,139.478V125.694a2.129,2.129,0,0,1,2.127-2.127h4.8a2.129,2.129,0,0,1,2.128,2.127v13.784a2.129,2.129,0,0,1-2.128,2.127h-4.8A2.129,2.129,0,0,1,4.512,139.478ZM100,148.8a.683.683,0,0,1-.681.684H13.46a.684.684,0,0,1-.684-.684v-2.822a6.65,6.65,0,0,0,5.3-6.5V125.694a6.639,6.639,0,0,0-3.155-5.648H45.909V141.3a2.256,2.256,0,0,0,3.767,1.675l7.369-6.643,7.369,6.643a2.256,2.256,0,0,0,3.767-1.675V120.046H98.326a6.641,6.641,0,0,0-3.155,5.648v13.784A6.648,6.648,0,0,0,100,145.864v2.94Zm8.739-9.325a2.129,2.129,0,0,1-2.127,2.127h-4.8a2.129,2.129,0,0,1-2.127-2.127V125.694a2.129,2.129,0,0,1,2.127-2.127h4.8a2.129,2.129,0,0,1,2.127,2.127Zm0,0"/><path d="M171.952,52.629a6.677,6.677,0,1,0,6.677,6.677A6.685,6.685,0,0,0,171.952,52.629Zm0,8.842a2.165,2.165,0,1,1,2.165-2.165A2.168,2.168,0,0,1,171.952,61.471Zm0,0" transform="translate(-115.563 -36.799)"/></svg>