<svg id="_004-clock" data-name="004-clock" xmlns="http://www.w3.org/2000/svg" width="156.006" height="156.006" viewBox="0 0 156.006 156.006">
  <ellipse id="Ellipse_48" data-name="Ellipse 48" cx="75.718" cy="75.718" rx="75.718" ry="75.718" transform="translate(2.285 2.285)" fill="#ffce00"/>
  <path id="Path_5179" data-name="Path 5179" d="M213.972,13.639A75.737,75.737,0,0,1,171.413,158.7,75.732,75.732,0,1,0,213.972,13.639Z" transform="translate(-119.184 -9.483)" fill="#ffa617"/>
  <ellipse id="Ellipse_49" data-name="Ellipse 49" cx="64.36" cy="64.36" rx="64.36" ry="64.36" transform="translate(13.643 13.643)" fill="#fff1db"/>
  <path id="Path_5180" data-name="Path 5180" d="M53.648,113.828a64.385,64.385,0,0,1,89.884-59.1,64.368,64.368,0,1,0-59.921,113.5,64.309,64.309,0,0,1-29.963-54.4Z" transform="translate(-31.133 -31.133)" fill="#ffe3b6"/>
  <ellipse id="Ellipse_50" data-name="Ellipse 50" cx="31.736" cy="31.736" rx="31.736" ry="31.736" transform="translate(2.285 90.249)" fill="#6bd18d"/>
  <path id="Path_5181" data-name="Path 5181" d="M98.527,296.19a31.928,31.928,0,0,0-5.753.522,31.741,31.741,0,0,1,0,62.429,31.738,31.738,0,1,0,5.753-62.95Z" transform="translate(-64.506 -205.941)" fill="#57bc76"/>
  <path id="Path_5182" data-name="Path 5182" d="M133.159,22.847A78.022,78.022,0,0,0,4.7,104.724,34.013,34.013,0,0,0,51.267,151.3,78.092,78.092,0,0,0,131.5,134.767a2.285,2.285,0,1,0-3.135-3.326,73.534,73.534,0,0,1-72.5,16.6,34.312,34.312,0,0,0,5.274-5.544A66.577,66.577,0,1,0,13.5,94.835,33.989,33.989,0,0,0,7.957,100.1a73.441,73.441,0,1,1,126.68,24.645,2.285,2.285,0,1,0,3.523,2.911,78.006,78.006,0,0,0-5-104.814ZM17.265,97.753a2.288,2.288,0,0,0,.29-.2,29.436,29.436,0,0,1,7.015-3.475A2.285,2.285,0,0,0,23.1,89.754,34.067,34.067,0,0,0,17.562,92.2a62,62,0,1,1,46.227,46.236A34.008,34.008,0,0,0,34.021,87.964a2.285,2.285,0,1,0,0,4.57,29.424,29.424,0,1,1-16.757,5.219Z"/>
  <path id="Path_5183" data-name="Path 5183" d="M81.747,250.785a2.285,2.285,0,0,0-2.285-2.285H76.178a2.285,2.285,0,0,0,0,4.571h3.283A2.285,2.285,0,0,0,81.747,250.785Z" transform="translate(-51.378 -172.782)"/>
  <path id="Path_5184" data-name="Path 5184" d="M250.785,420.185a2.285,2.285,0,0,0,2.285-2.285v-3.283a2.285,2.285,0,0,0-4.57,0V417.9A2.285,2.285,0,0,0,250.785,420.185Z" transform="translate(-172.782 -286.694)"/>
  <path id="Path_5185" data-name="Path 5185" d="M128.026,131.258a2.285,2.285,0,0,0,3.232-3.232l-2.322-2.322a2.285,2.285,0,1,0-3.232,3.232Z" transform="translate(-86.937 -86.937)"/>
  <path id="Path_5186" data-name="Path 5186" d="M368.247,365.015a2.285,2.285,0,1,0-3.232,3.232l2.322,2.322a2.285,2.285,0,0,0,3.232-3.232Z" transform="translate(-253.33 -253.33)"/>
  <path id="Path_5187" data-name="Path 5187" d="M366.631,131.927a2.279,2.279,0,0,0,1.616-.669l2.322-2.322a2.285,2.285,0,0,0-3.232-3.232l-2.322,2.322a2.285,2.285,0,0,0,1.616,3.9Z" transform="translate(-253.33 -86.937)"/>
  <path id="Path_5188" data-name="Path 5188" d="M89.2,184.587l3.022,1.285a2.285,2.285,0,1,0,1.788-4.206l-3.022-1.285a2.285,2.285,0,1,0-1.788,4.206Z" transform="translate(-61.05 -125.292)"/>
  <path id="Path_5189" data-name="Path 5189" d="M405.476,314.051l-3.022-1.285a2.285,2.285,0,0,0-1.788,4.206l3.022,1.285a2.285,2.285,0,1,0,1.788-4.206Z" transform="translate(-277.616 -217.34)"/>
  <path id="Path_5190" data-name="Path 5190" d="M313.976,95.216a2.283,2.283,0,0,0,3-1.209l1.285-3.022a2.285,2.285,0,0,0-4.206-1.788l-1.285,3.022A2.285,2.285,0,0,0,313.976,95.216Z" transform="translate(-217.34 -61.051)"/>
  <path id="Path_5191" data-name="Path 5191" d="M184.562,92.758a2.285,2.285,0,1,0,4.238-1.71L187.572,88a2.285,2.285,0,1,0-4.238,1.71Z" transform="translate(-127.356 -60.194)"/>
  <path id="Path_5192" data-name="Path 5192" d="M314.2,401.859a2.285,2.285,0,1,0-4.238,1.71l1.229,3.045a2.285,2.285,0,1,0,4.238-1.71Z" transform="translate(-215.402 -278.418)"/>
  <path id="Path_5193" data-name="Path 5193" d="M402.716,188.967a2.277,2.277,0,0,0,.854-.167l3.045-1.229a2.285,2.285,0,1,0-1.71-4.238l-3.045,1.229a2.286,2.286,0,0,0,.856,4.405Z" transform="translate(-278.419 -127.355)"/>
  <path id="Path_5194" data-name="Path 5194" d="M250.785,131.666h53.2a2.285,2.285,0,0,0,0-4.57H253.07V76.178a2.285,2.285,0,1,0-4.57,0v53.2A2.285,2.285,0,0,0,250.785,131.666Z" transform="translate(-172.782 -51.378)"/>
  <path id="Path_5195" data-name="Path 5195" d="M67.19,383.664a2.286,2.286,0,0,0,1.616.669h.016a2.286,2.286,0,0,0,1.622-.692l19.85-20.412a2.285,2.285,0,1,0-3.276-3.186L68.783,378.793l-6.261-6.261a2.285,2.285,0,0,0-3.232,3.232Z" transform="translate(-40.759 -249.857)"/>
</svg>
