<svg id="_006-share-ride" data-name="006-share-ride" xmlns="http://www.w3.org/2000/svg" width="150.276" height="156.006" viewBox="0 0 150.276 156.006">
  <path id="Path_5231" data-name="Path 5231" d="M168.6,177.162H54.993a3.657,3.657,0,0,1-3.656-3.656V33.729H172.26V173.505A3.656,3.656,0,0,1,168.6,177.162Z" transform="translate(-38.56 -23.452)" fill="#e8f3ff"/>
  <path id="Path_5232" data-name="Path 5232" d="M172.26,33.729H161.822V163.051a3.673,3.673,0,0,1-3.673,3.673H51.337v6.763a3.673,3.673,0,0,0,3.673,3.673H168.586a3.673,3.673,0,0,0,3.673-3.673Z" transform="translate(-38.56 -23.452)" fill="#c1e2ff"/>
  <path id="Path_5233" data-name="Path 5233" d="M172.26,35.817H51.337V11.191a3.657,3.657,0,0,1,3.656-3.656H168.6a3.657,3.657,0,0,1,3.656,3.656Z" transform="translate(-38.56 -5.239)" fill="#1690fb"/>
  <path id="Path_5234" data-name="Path 5234" d="M420.706,7.535h-6.763V35.817H424.38V11.209a3.674,3.674,0,0,0-3.674-3.674Z" transform="translate(-290.68 -5.239)" fill="#0571f9"/>
  <path id="Path_5235" data-name="Path 5235" d="M114.448,185.16a3.572,3.572,0,0,0-3.092.276v-4.751a4.658,4.658,0,0,0-4.658-4.658H90.813a4.658,4.658,0,0,0-4.658,4.658v4.751a3.572,3.572,0,0,0-3.092-.276c-2.064.852-2.827,3.751-1.7,6.475.952,2.307,2.951,3.742,4.794,3.612v.4a8.325,8.325,0,0,0,8.325,8.325h8.552a8.325,8.325,0,0,0,8.325-8.325v-.4c1.844.13,3.843-1.306,4.794-3.612,1.124-2.724.362-5.623-1.7-6.475Z" transform="translate(-59.074 -122.392)" fill="#ffa68d"/>
  <path id="Path_5236" data-name="Path 5236" d="M106.26,164.586H115.5a12.548,12.548,0,0,1,7.979,2.849v-2.161a9.1,9.1,0,0,0-9.1-9.1h-6.994a9.1,9.1,0,0,0-9.1,9.1v2.161a12.547,12.547,0,0,1,7.979-2.85Z" transform="translate(-71.2 -108.586)" fill="#c56e37"/>
  <path id="Path_5237" data-name="Path 5237" d="M317.871,180.685a4.658,4.658,0,0,0-4.658-4.658H297.328a4.658,4.658,0,0,0-4.658,4.658v4.751a3.572,3.572,0,0,0-3.092-.276c-2.064.852-2.827,3.751-1.7,6.475.952,2.307,2.951,3.742,4.794,3.612v.4a8.325,8.325,0,0,0,8.325,8.325h8.552a8.325,8.325,0,0,0,8.325-8.325Z" transform="translate(-202.665 -122.392)" fill="#b95e4b"/>
  <path id="Path_5238" data-name="Path 5238" d="M312.775,164.586h9.242A12.548,12.548,0,0,1,330,167.435v-2.161a9.1,9.1,0,0,0-9.1-9.1H313.9a9.1,9.1,0,0,0-9.1,9.1v2.161a12.547,12.547,0,0,1,7.979-2.85Z" transform="translate(-214.79 -108.586)" fill="#9b5627"/>
  <path id="Path_5239" data-name="Path 5239" d="M411.044,185.16a3.572,3.572,0,0,0-3.092.276v-4.751a4.658,4.658,0,0,0-4.658-4.658H387.409a4.658,4.658,0,0,0-4.658,4.658v4.751a3.572,3.572,0,0,0-3.092-.276c-2.064.852-2.827,3.751-1.7,6.475.952,2.307,2.951,3.742,4.794,3.612v.4a8.325,8.325,0,0,0,8.325,8.325h8.552a8.325,8.325,0,0,0,8.325-8.325v-.4c1.844.13,3.843-1.306,4.794-3.612C413.871,188.91,413.108,186.011,411.044,185.16Z" transform="translate(-265.298 -122.392)" fill="#ffa68d"/>
  <path id="Path_5240" data-name="Path 5240" d="M452.838,185.16a3.572,3.572,0,0,0-3.092.276v-4.751a4.658,4.658,0,0,0-4.658-4.658h-3.875a4.658,4.658,0,0,1,4.658,4.658v14.959a8.325,8.325,0,0,1-8.325,8.325h3.875a8.325,8.325,0,0,0,8.325-8.325v-.4c1.844.13,3.843-1.306,4.794-3.612C455.665,188.91,454.9,186.011,452.838,185.16Z" transform="translate(-307.092 -122.392)" fill="#f59380"/>
  <path id="Path_5241" data-name="Path 5241" d="M402.856,164.586H412.1a12.548,12.548,0,0,1,7.979,2.849v-2.161a9.1,9.1,0,0,0-9.1-9.1H403.98a9.1,9.1,0,0,0-9.1,9.1v2.161a12.547,12.547,0,0,1,7.979-2.85Z" transform="translate(-277.423 -108.586)" fill="#c56e37"/>
  <path id="Path_5242" data-name="Path 5242" d="M432.971,156.171h-6.457a9.1,9.1,0,0,1,9.082,8.506,12.544,12.544,0,0,1,6.479,2.758v-2.161a9.1,9.1,0,0,0-9.1-9.1Z" transform="translate(-299.421 -108.586)" fill="#9b5627"/>
  <path id="Path_5243" data-name="Path 5243" d="M123.857,320.239l-6.537-13.1a4.8,4.8,0,0,0-4.294-2.656h-32.4a4.8,4.8,0,0,0-4.294,2.656l-6.537,13.1Z" transform="translate(-51.395 -211.705)" fill="#62b4fd"/>
  <path id="Path_5244" data-name="Path 5244" d="M190.154,307.136a4.8,4.8,0,0,0-4.294-2.656H174.549a4.8,4.8,0,0,1,4.294,2.656l6.537,13.1h11.312Z" transform="translate(-124.229 -211.705)" fill="#1690fb"/>
  <ellipse id="Ellipse_51" data-name="Ellipse 51" cx="7.54" cy="7.54" rx="7.54" ry="7.54" transform="translate(14.532 119.444)" fill="#8f818f"/>
  <ellipse id="Ellipse_52" data-name="Ellipse 52" cx="7.54" cy="7.54" rx="7.54" ry="7.54" transform="translate(64.719 119.444)" fill="#8f818f"/>
  <path id="Path_5245" data-name="Path 5245" d="M103.36,357.173H20.066a3.127,3.127,0,0,0-3.127,3.127v12.888a3.127,3.127,0,0,0,3.127,3.127H103.36a3.127,3.127,0,0,0,3.127-3.127V360.3A3.127,3.127,0,0,0,103.36,357.173Z" transform="translate(-14.643 -248.343)" fill="#c8c1c9"/>
  <path id="Path_5246" data-name="Path 5246" d="M103.36,357.173h-2.907v9.981a3.127,3.127,0,0,1-3.127,3.127H16.939v2.907a3.127,3.127,0,0,0,3.127,3.127H103.36a3.127,3.127,0,0,0,3.127-3.127V360.3a3.127,3.127,0,0,0-3.127-3.127Z" transform="translate(-14.643 -248.343)" fill="#a698a6"/>
  <ellipse id="Ellipse_53" data-name="Ellipse 53" cx="7.54" cy="7.54" rx="7.54" ry="7.54" transform="translate(14.532 119.444)" fill="#8f818f"/>
  <ellipse id="Ellipse_54" data-name="Ellipse 54" cx="7.54" cy="7.54" rx="7.54" ry="7.54" transform="translate(64.719 119.444)" fill="#8f818f"/>
  <path id="Path_5247" data-name="Path 5247" d="M69.143,394.111a7.54,7.54,0,0,1-9.941,9.941,7.54,7.54,0,1,0,9.941-9.941Z" transform="translate(-44.028 -274.026)" fill="#554e57"/>
  <path id="Path_5248" data-name="Path 5248" d="M233.851,394.111a7.54,7.54,0,0,1-9.941,9.941,7.54,7.54,0,1,0,9.941-9.941Z" transform="translate(-158.55 -274.026)" fill="#554e57"/>
  <ellipse id="Ellipse_55" data-name="Ellipse 55" cx="2.262" cy="2.262" rx="2.262" ry="2.262" transform="translate(19.81 124.722)"/>
  <ellipse id="Ellipse_56" data-name="Ellipse 56" cx="2.262" cy="2.262" rx="2.262" ry="2.262" transform="translate(69.997 124.722)"/>
  <path id="Path_5249" data-name="Path 5249" d="M351.237,348.472h26.005V317.378H351.237a5.089,5.089,0,0,0-5.088,5.089v20.917a5.089,5.089,0,0,0,5.088,5.089Z" transform="translate(-243.543 -220.673)" fill="#fcdd2e"/>
  <path id="Path_5250" data-name="Path 5250" d="M413.942,317.378h10.437v31.094H413.942Z" transform="translate(-290.679 -220.673)" fill="#f9c301"/>
  <path id="Path_5251" data-name="Path 5251" d="M167.021,298.014a2.3,2.3,0,0,0-2.3,2.3v1.308H141.04a7.417,7.417,0,0,0-7.408,7.408V329.9a7.417,7.417,0,0,0,7.408,7.408h23.685v19.942a1.379,1.379,0,0,1-1.378,1.378H49.772a1.379,1.379,0,0,1-1.378-1.378v-4.96a2.3,2.3,0,0,0-4.592,0v4.96a5.976,5.976,0,0,0,5.97,5.97H163.348a5.976,5.976,0,0,0,5.97-5.97V300.31A2.3,2.3,0,0,0,167.021,298.014Zm-25.981,34.7a2.819,2.819,0,0,1-2.816-2.816V309.026a2.82,2.82,0,0,1,2.816-2.816h23.685v26.5Z" transform="translate(-33.321 -207.209)"/>
  <path id="Path_5252" data-name="Path 5252" d="M94.75,30.836H83.1a2.3,2.3,0,1,0,0,4.592H94.75a2.3,2.3,0,0,0,0-4.592Z" transform="translate(-59.046 -21.44)"/>
  <path id="Path_5253" data-name="Path 5253" d="M94.75,60.811H83.1a2.3,2.3,0,1,0,0,4.592H94.75a2.3,2.3,0,0,0,0-4.592Z" transform="translate(-59.046 -42.282)"/>
  <ellipse id="Ellipse_57" data-name="Ellipse 57" cx="2.153" cy="2.153" rx="2.153" ry="2.153" transform="translate(31.347 63.828) rotate(-13.3)"/>
  <ellipse id="Ellipse_58" data-name="Ellipse 58" cx="2.153" cy="2.153" rx="2.153" ry="2.153" transform="translate(43.053 63.825) rotate(-13.3)"/>
  <path id="Path_5254" data-name="Path 5254" d="M133.741,235.3h-7.683a.3.3,0,0,0-.289.391,4.318,4.318,0,0,0,8.262,0A.3.3,0,0,0,133.741,235.3Z" transform="translate(-90.302 -163.607)"/>
  <path id="Path_5255" data-name="Path 5255" d="M108.386,161.64v-1.6a11.412,11.412,0,0,0-11.4-11.4H89.993a11.413,11.413,0,0,0-11.4,11.4v3.56a5.422,5.422,0,0,0-1.672.4c-3.286,1.356-4.581,5.517-2.949,9.473a8.138,8.138,0,0,0,4.739,4.718,10.638,10.638,0,0,0,10.5,9.036h8.552a10.638,10.638,0,0,0,10.5-9.037,8.139,8.139,0,0,0,4.739-4.718c1.632-3.956.337-8.117-2.949-9.473a5.419,5.419,0,0,0-1.672-.4V161.64Zm-18.393-8.412h6.994a6.82,6.82,0,0,1,6.516,4.836,14.911,14.911,0,0,0-5.392-1.013H88.869a14.9,14.9,0,0,0-5.392,1.013A6.819,6.819,0,0,1,89.993,153.228Zm18.769,18.485a3.143,3.143,0,0,1-2.511,2.2,2.3,2.3,0,0,0-2.457,2.29v.4a6.036,6.036,0,0,1-6.028,6.029H89.214a6.036,6.036,0,0,1-6.028-6.029v-.4a2.3,2.3,0,0,0-2.457-2.29,3.132,3.132,0,0,1-2.511-2.2c-.653-1.582-.291-3.168.456-3.476a1.408,1.408,0,0,1,1.123.173,2.3,2.3,0,0,0,3.389-2.019v-3.035a10.327,10.327,0,0,1,5.684-1.712h9.242a10.327,10.327,0,0,1,5.684,1.712v3.035a2.3,2.3,0,0,0,3.389,2.019,1.4,1.4,0,0,1,1.123-.173c.747.308,1.109,1.894.456,3.476Z" transform="translate(-53.809 -103.347)"/>
  <circle id="Ellipse_59" data-name="Ellipse 59" cx="2.153" cy="2.153" r="2.153" transform="translate(93.793 65.457) rotate(-45)"/>
  <path id="Path_5256" data-name="Path 5256" d="M340.256,235.3h-7.683a.3.3,0,0,0-.289.391,4.318,4.318,0,0,0,8.262,0A.3.3,0,0,0,340.256,235.3Z" transform="translate(-233.893 -163.607)"/>
  <path id="Path_5257" data-name="Path 5257" d="M156.025,60.645a5.42,5.42,0,0,0-1.672-.4v-3.56A11.417,11.417,0,0,0,145.4,45.556V5.97A5.976,5.976,0,0,0,139.429,0h-66.3a2.3,2.3,0,0,0,0,4.592h66.3a1.379,1.379,0,0,1,1.378,1.378V28.281H24.476V5.97a1.379,1.379,0,0,1,1.378-1.378H61.839a2.3,2.3,0,0,0,0-4.592H25.854a5.976,5.976,0,0,0-5.97,5.97V106.534H14.826A5.429,5.429,0,0,0,9.4,111.957v12.888a5.429,5.429,0,0,0,5.423,5.423H22.2a9.834,9.834,0,0,0,18.541,0H72.391a9.834,9.834,0,0,0,18.541,0H98.12a5.429,5.429,0,0,0,5.423-5.423V111.957a5.429,5.429,0,0,0-5.423-5.423H83.435L77.383,94.406a7.055,7.055,0,0,0-6.348-3.927h-32.4a7.054,7.054,0,0,0-6.348,3.927l-6.053,12.129H24.476V32.874h116.33V45.289H135.96a11.411,11.411,0,0,0-10.227,6.371,11.412,11.412,0,0,0-10.227-6.371h-6.994a11.412,11.412,0,0,0-11.4,11.4v3.56a5.422,5.422,0,0,0-1.672.4C92.155,62,90.86,66.163,92.492,70.118a8.138,8.138,0,0,0,4.739,4.718,10.638,10.638,0,0,0,10.5,9.036h8.552a10.629,10.629,0,0,0,9.447-5.778,10.631,10.631,0,0,0,9.448,5.778h8.552a10.638,10.638,0,0,0,10.5-9.037,8.139,8.139,0,0,0,4.739-4.718c1.632-3.955.337-8.116-2.949-9.472ZM31.475,132.228a5.244,5.244,0,1,1,5.244-5.244c0,.063-.007.124-.009.187a2.281,2.281,0,0,0-.147.8c0,.073,0,.145.011.216A5.249,5.249,0,0,1,31.475,132.228Zm50.187,0a5.244,5.244,0,1,1,5.244-5.244,5.25,5.25,0,0,1-5.244,5.244Zm17.289-20.271v12.888a.832.832,0,0,1-.831.831H91.408a9.834,9.834,0,0,0-19.493,0H41.222a9.833,9.833,0,0,0-19.493,0h-6.9a.832.832,0,0,1-.831-.831V111.957a.832.832,0,0,1,.831-.831H98.12a.832.832,0,0,1,.831.831Zm-25.677-15.5L78.3,106.534H57.131V95.071h13.9A2.489,2.489,0,0,1,73.274,96.456Zm-36.877,0a2.488,2.488,0,0,1,2.239-1.385h13.9v11.464H31.367ZM135.96,49.881h6.994a6.82,6.82,0,0,1,6.516,4.836,14.911,14.911,0,0,0-5.392-1.013h-9.242a14.9,14.9,0,0,0-5.392,1.013A6.82,6.82,0,0,1,135.96,49.881Zm-27.448,0h6.994a6.819,6.819,0,0,1,6.516,4.836A14.911,14.911,0,0,0,116.63,53.7h-9.242A14.9,14.9,0,0,0,102,54.717,6.819,6.819,0,0,1,108.512,49.881Zm7.773,29.4h-8.552a6.036,6.036,0,0,1-6.028-6.029v-.4a2.3,2.3,0,0,0-2.457-2.29,3.133,3.133,0,0,1-2.511-2.2c-.653-1.582-.291-3.168.456-3.476a1.407,1.407,0,0,1,1.123.173,2.3,2.3,0,0,0,3.389-2.019V60.009a10.327,10.327,0,0,1,5.684-1.712h9.242a10.32,10.32,0,0,1,6.457,2.276c-.066.024-.133.046-.2.073a5.776,5.776,0,0,0-3.221,3.493,2.153,2.153,0,1,0-.417,3.039,9.179,9.179,0,0,0,.688,2.941,8.881,8.881,0,0,0,2.364,3.335,6.031,6.031,0,0,1-6.018,5.827Zm38.444-10.914a3.142,3.142,0,0,1-2.511,2.2,2.3,2.3,0,0,0-2.457,2.29v.4a6.036,6.036,0,0,1-6.028,6.029h-8.552a6.036,6.036,0,0,1-6.028-6.029v-.4a2.3,2.3,0,0,0-2.457-2.29,3.134,3.134,0,0,1-2.511-2.2c-.653-1.582-.291-3.168.456-3.476a1.408,1.408,0,0,1,1.123.173,2.3,2.3,0,0,0,3.389-2.019V60.009a10.327,10.327,0,0,1,5.684-1.712h9.242a10.327,10.327,0,0,1,5.684,1.712v3.035a2.3,2.3,0,0,0,3.389,2.019,1.407,1.407,0,0,1,1.122-.173c.747.308,1.109,1.894.456,3.476Z" transform="translate(-9.403 0)"/>
  <ellipse id="Ellipse_60" data-name="Ellipse 60" cx="2.153" cy="2.153" rx="2.153" ry="2.153" transform="translate(122.149 63.3)"/>
  <ellipse id="Ellipse_61" data-name="Ellipse 61" cx="2.153" cy="2.153" rx="2.153" ry="2.153" transform="translate(133.858 63.3)"/>
  <path id="Path_5258" data-name="Path 5258" d="M430.337,235.3h-7.683a.3.3,0,0,0-.289.391,4.318,4.318,0,0,0,8.262,0A.3.3,0,0,0,430.337,235.3Z" transform="translate(-296.526 -163.607)"/>
  <path id="Path_5259" data-name="Path 5259" d="M386.915,346.175h-3.8v-3.8a2.3,2.3,0,1,0-4.592,0v3.8h-3.8a2.3,2.3,0,0,0,0,4.592h3.8v3.8a2.3,2.3,0,0,0,4.592,0v-3.8h3.8a2.3,2.3,0,1,0,0-4.592Z" transform="translate(-261.815 -236.457)"/>
</svg>
