<svg xmlns="http://www.w3.org/2000/svg" xmlns:xlink="http://www.w3.org/1999/xlink" width="80.028" height="80.028" viewBox="0 0 80.028 80.028">
  <defs>
    <filter id="back" x="0" y="0" width="80.028" height="80.028" filterUnits="userSpaceOnUse">
      <feOffset dy="3" input="SourceAlpha"/>
      <feGaussianBlur stdDeviation="8" result="blur"/>
      <feFlood flood-opacity="0.063"/>
      <feComposite operator="in" in2="blur"/>
      <feComposite in="SourceGraphic"/>
    </filter>
  </defs>
  <g id="twitter" transform="translate(24 21)">
    <g transform="matrix(1, 0, 0, 1, -24, -21)" filter="url(#back)">
      <rect id="back-2" data-name="back" width="32.028" height="32.028" rx="16.014" transform="translate(24 21)" fill="#ffe400"/>
    </g>
    <g id="Snapchat_color" data-name="Snapchat color" transform="translate(7.605 8.117)">
      <path id="Path_3821" data-name="Path 3821" d="M259.717,327.5h-.041l-.286,0a4.824,4.824,0,0,0-1.9.4,4.231,4.231,0,0,0-1.212.8,4.521,4.521,0,0,0-1.012,1.451,8.238,8.238,0,0,0-.212,3.352v0c.008.12.016.246.023.368a.651.651,0,0,1-.273.051,1.807,1.807,0,0,1-.74-.2.664.664,0,0,0-.282-.058,1,1,0,0,0-.5.139.687.687,0,0,0-.351.449.618.618,0,0,0,.236.583,2.029,2.029,0,0,0,.619.354c.07.028.154.054.243.082.308.1.773.245.895.53a.687.687,0,0,1-.078.564l-.009.019a5.47,5.47,0,0,1-.836,1.294,4.7,4.7,0,0,1-1.01.891,3.719,3.719,0,0,1-1.417.552.388.388,0,0,0-.325.4.511.511,0,0,0,.04.169h0a1.04,1.04,0,0,0,.562.481,6.442,6.442,0,0,0,1.625.423,1.988,1.988,0,0,1,.1.357c.027.125.055.253.1.39a.426.426,0,0,0,.446.324,2.146,2.146,0,0,0,.382-.053,4.318,4.318,0,0,1,.872-.1,3.827,3.827,0,0,1,.623.053,2.964,2.964,0,0,1,1.164.6,3.773,3.773,0,0,0,2.295.893l.084,0c.034,0,.076,0,.12,0a3.772,3.772,0,0,0,2.294-.893h0a2.966,2.966,0,0,1,1.164-.6,3.826,3.826,0,0,1,.623-.053,4.363,4.363,0,0,1,.872.092,2.077,2.077,0,0,0,.382.047h.019a.42.42,0,0,0,.427-.319c.039-.133.068-.259.1-.386a2.019,2.019,0,0,1,.1-.355,6.45,6.45,0,0,0,1.625-.423,1.042,1.042,0,0,0,.562-.479.5.5,0,0,0,.041-.171.388.388,0,0,0-.325-.4,4.8,4.8,0,0,1-3.263-2.737l-.009-.019a.687.687,0,0,1-.078-.564c.121-.285.586-.432.894-.529.089-.028.173-.055.243-.082a1.867,1.867,0,0,0,.663-.4.628.628,0,0,0,.2-.453.714.714,0,0,0-.533-.618.957.957,0,0,0-.362-.069.811.811,0,0,0-.336.068,1.9,1.9,0,0,1-.692.2.627.627,0,0,1-.229-.05c.006-.1.013-.21.02-.321l0-.048a8.239,8.239,0,0,0-.212-3.354,4.527,4.527,0,0,0-1.016-1.455,4.244,4.244,0,0,0-1.216-.8,4.849,4.849,0,0,0-1.9-.4" transform="translate(-251.251 -327.5)" fill="#b09d04" fill-rule="evenodd"/>
    </g>
  </g>
</svg>
