<svg xmlns="http://www.w3.org/2000/svg" width="144.033" height="154" viewBox="0 0 144.033 154"><g transform="translate(2.256 2.257)"><g transform="translate(0 94.675)"><path d="M36.7,322.27a4.982,4.982,0,0,0-4.146,2.219l-8.068,12.1a2.492,2.492,0,0,0-.418,1.382v36.617a2.491,2.491,0,0,0,2.491,2.491H81.372a2.491,2.491,0,0,0,2.491-2.491V337.973a2.493,2.493,0,0,0-.418-1.382l-8.068-12.1a4.982,4.982,0,0,0-4.146-2.219Z" transform="translate(-24.069 -322.27)" fill="#ffc200"/></g><g transform="translate(89.693)"><path d="M372.1,32.418a24.915,24.915,0,1,0-46.4,12.617l17.166,29.737a4.983,4.983,0,0,0,8.631,0l17.166-29.737A24.8,24.8,0,0,0,372.1,32.418Z" transform="translate(-322.269 -7.503)" fill="#ff5b5b"/></g><g transform="translate(103.152 13.489)"><ellipse cx="9.966" cy="9.966" rx="9.966" ry="9.966" transform="matrix(0.16, -0.987, 0.987, 0.16, 0, 19.672)" fill="#f3edea"/></g><g transform="translate(0 11.831)"><path d="M123.726,174.529a32.39,32.39,0,1,0-.352-64.778H56.738a22.424,22.424,0,1,1-.282-44.846H81.994a1.868,1.868,0,0,1,1.868,1.869v4.36a1.869,1.869,0,0,0,2.99,1.495L101.8,61.418a1.869,1.869,0,0,0,0-2.99L86.852,47.216a1.869,1.869,0,0,0-2.99,1.495v4.36a1.869,1.869,0,0,1-1.868,1.869H56.808a32.39,32.39,0,1,0-.352,64.778h66.988a22.424,22.424,0,1,1,.282,44.846H96.32a2.491,2.491,0,0,0-2.491,2.491v4.983a2.491,2.491,0,0,0,2.491,2.491h27.406Z" transform="translate(-24.067 -46.839)" fill="#7fe881"/></g><g transform="translate(111.026 14.949)"><path d="M396.776,57.2a9.933,9.933,0,0,0-3.581.666,9.966,9.966,0,0,1,0,18.6A9.966,9.966,0,1,0,396.776,57.2Z" transform="translate(-393.195 -57.203)" fill="#e3dcda"/></g><g transform="translate(111.025 0)"><path d="M395.439,7.538c-.759.04-1.508.116-2.248.223a24.912,24.912,0,0,1,17.9,37.274L393.926,74.771a5.059,5.059,0,0,1-.734.976,4.986,4.986,0,0,0,7.9-.976l17.166-29.737a24.912,24.912,0,0,0-22.816-37.5Z" transform="translate(-393.191 -7.503)" fill="#e50048"/></g><g transform="translate(40 94.675)"><path d="M176.432,336.591l-8.068-12.1a4.982,4.982,0,0,0-4.146-2.219h-7.163a4.982,4.982,0,0,1,4.146,2.219l8.068,12.1a2.492,2.492,0,0,1,.418,1.382v36.617a2.491,2.491,0,0,1-2.491,2.491h7.163a2.491,2.491,0,0,0,2.491-2.491V337.973A2.492,2.492,0,0,0,176.432,336.591Z" transform="translate(-157.055 -322.27)" fill="#fe9900"/></g><g transform="translate(0.12 94.675)"><path d="M84.022,337.219a2.5,2.5,0,0,0-.3-.628l-8.068-12.1a4.982,4.982,0,0,0-4.146-2.219H36.979a4.982,4.982,0,0,0-4.146,2.219l-8.068,12.1a2.481,2.481,0,0,0-.3.628Z" transform="translate(-24.466 -322.27)" fill="#ffd900"/></g><g transform="translate(40 94.675)"><path d="M161.2,324.489l8.068,12.1a2.482,2.482,0,0,1,.3.628h7.163a2.6,2.6,0,0,0-.127-.322,2.477,2.477,0,0,0-.172-.3l-8.068-12.1a4.982,4.982,0,0,0-4.146-2.219h-7.163A4.983,4.983,0,0,1,161.2,324.489Z" transform="translate(-157.056 -322.27)" fill="#ffc200"/></g><g transform="translate(22.424 94.675)"><path d="M113.567,322.27v32.389a2.491,2.491,0,0,1-2.491,2.491H101.11a2.491,2.491,0,0,1-2.491-2.491V322.27Z" transform="translate(-98.619 -322.27)" fill="#e3dcda"/></g><g transform="translate(27.718 94.675)"><path d="M118.712,322.27v32.389a2.491,2.491,0,0,1-2.491,2.491h7.163a2.491,2.491,0,0,0,2.491-2.491V322.27Z" transform="translate(-116.221 -322.27)" fill="#dbceca"/></g><g transform="translate(22.423 94.675)"><path d="M98.618,322.27h14.949v14.949H98.618Z" transform="translate(-98.618 -322.27)" fill="#f3edea"/></g><g transform="translate(30.209 94.675)"><path d="M124.5,322.27h7.163v14.949H124.5Z" transform="translate(-124.504 -322.27)" fill="#e3dcda"/></g></g><g transform="translate(0 0)"><path d="M80.643,331.272a4.742,4.742,0,0,0-.566-1.176l-8.068-12.1a7.224,7.224,0,0,0-6.023-3.223H31.456a7.224,7.224,0,0,0-6.023,3.223l-8.068,12.1a4.745,4.745,0,0,0-.569,1.183c0,.011-.008.021-.011.032a4.739,4.739,0,0,0-.218,1.418v36.618a4.752,4.752,0,0,0,4.747,4.747H26.69a2.256,2.256,0,1,0,0-4.512H21.315a.236.236,0,0,1-.236-.236V344.2H38.991v5.219a4.753,4.753,0,0,0,4.747,4.747H53.7a4.753,4.753,0,0,0,4.748-4.747V344.2H76.363v25.15a.236.236,0,0,1-.236.236H35.714a2.256,2.256,0,1,0,0,4.512H76.127a4.753,4.753,0,0,0,4.747-4.747V332.729a4.736,4.736,0,0,0-.217-1.417C80.653,331.3,80.647,331.285,80.643,331.272ZM68.255,320.5l6.149,9.223H58.451V319.282h7.535a2.722,2.722,0,0,1,2.269,1.214Zm-14.315,9.223H43.5V319.282H53.939ZM29.187,320.5a2.722,2.722,0,0,1,2.269-1.215H38.99v10.437H23.038Zm-8.108,19.189V334.23H38.991v5.454Zm32.86,9.73a.236.236,0,0,1-.236.236H43.738a.236.236,0,0,1-.236-.236V334.23H53.939Zm4.512-9.73V334.23H76.363v5.454Z" transform="translate(-16.567 -220.094)"/><path d="M360.641,7.462A27.169,27.169,0,0,0,318.5,40.916l17.166,29.737a7.239,7.239,0,0,0,12.538,0l17.156-29.72a27.165,27.165,0,0,0-4.723-33.47Zm.825,31.2L344.3,68.4a2.727,2.727,0,0,1-4.724,0L322.4,38.644a22.655,22.655,0,0,1,18.32-34.1q.616-.032,1.227-.032A22.656,22.656,0,0,1,361.467,38.66Z" transform="translate(-225.075 0)"/><path d="M376.691,49.7a12.222,12.222,0,1,0,12.222,12.222A12.235,12.235,0,0,0,376.691,49.7Zm0,19.932a7.71,7.71,0,1,1,7.71-7.71A7.719,7.719,0,0,1,376.691,69.635Z" transform="translate(-259.827 -34.753)"/><path d="M118.132,97.915H51.5A20.363,20.363,0,0,1,31.047,77.9a20.167,20.167,0,0,1,20.167-20.32h25.15v7.71a2.256,2.256,0,0,0,3.609,1.8L99.905,52.146a2.256,2.256,0,0,0,0-3.609L79.974,33.588a2.256,2.256,0,0,0-3.609,1.8V43.1h-24.8a34.886,34.886,0,0,0-35,34.523,34.645,34.645,0,0,0,34.645,34.767H99.495a2.256,2.256,0,0,0,0-4.512H51.214a30.133,30.133,0,0,1-30.133-30.24A30.366,30.366,0,0,1,51.565,47.614H78.62a2.256,2.256,0,0,0,2.256-2.256V39.9L94.792,50.341,80.876,60.778V55.324a2.256,2.256,0,0,0-2.256-2.256H51.214A24.679,24.679,0,0,0,26.535,77.934,24.887,24.887,0,0,0,51.5,102.426h66.636a30.366,30.366,0,0,1,30.485,30.026,30.133,30.133,0,0,1-30.133,30.24H91.077a.236.236,0,0,1-.236-.236v-4.982a.236.236,0,0,1,.236-.236h27.406a24.679,24.679,0,0,0,24.678-24.866,24.887,24.887,0,0,0-24.96-24.492h-9.684a2.256,2.256,0,1,0,0,4.512H118.2a20.363,20.363,0,0,1,20.448,20.014,20.167,20.167,0,0,1-20.167,20.321H91.077a4.752,4.752,0,0,0-4.747,4.747v4.983a4.753,4.753,0,0,0,4.747,4.747h27.406a34.645,34.645,0,0,0,34.645-34.767,34.886,34.886,0,0,0-35-34.523Z" transform="translate(-16.569 -23.17)"/></g></svg>