<svg xmlns="http://www.w3.org/2000/svg" xmlns:xlink="http://www.w3.org/1999/xlink" width="746.137" height="528.647" viewBox="0 0 746.137 528.647">
  <defs>
    <clipPath id="clip-path">
      <path id="Path_5477" data-name="Path 5477" d="M657.558,333.173,920.9,485.214,438.106,763.955,174.764,611.914Z" transform="translate(-174.764 -333.173)" fill="#fff"/>
    </clipPath>
    <clipPath id="clip-path-2">
      <path id="Path_5591" data-name="Path 5591" d="M686.925,497.847v18.058l-19.549,11.286V509.133Z" transform="translate(-667.376 -497.847)" fill="none"/>
    </clipPath>
  </defs>
  <g id="Group_933" data-name="Group 933" transform="translate(-174.764 -241.473)">
    <g id="Group_906" data-name="Group 906" transform="translate(174.764 339.337)">
      <path id="Path_5437" data-name="Path 5437" d="M657.558,333.173,920.9,485.214,438.106,763.955,174.764,611.914Z" transform="translate(-174.764 -333.173)" fill="#fff"/>
      <g id="Group_905" data-name="Group 905" clip-path="url(#clip-path)">
        <path id="Path_5438" data-name="Path 5438" d="M657.558,333.173,920.9,485.214,438.106,763.955,174.764,611.914Z" transform="translate(-174.764 -333.173)" fill="#fff"/>
        <path id="Path_5439" data-name="Path 5439" d="M655.476,341.575,904.35,485.262,437.476,754.755,188.6,611.068Z" transform="translate(-173.833 -332.608)" fill="#fff"/>
        <path id="Path_5440" data-name="Path 5440" d="M859.448,534.824l-40.994,23.658-184.481-106.5L408.5,582.157,592.979,688.67l-40.994,23.658L367.5,605.815,244.521,676.824l-40.994-23.658,20.488-11.829,102.494-59.18-61.5-35.5L306,522.977l61.5,35.5L592.979,428.31l-61.5-35.5,40.994-23.658,61.482,35.5L715.96,357.3l40.994,23.676L674.966,428.31Z" transform="translate(-172.83 -331.551)" fill="#fff"/>
        <g id="Group_899" data-name="Group 899" transform="translate(50.304 34.454)">
          <path id="Path_5441" data-name="Path 5441" d="M625.734,415.6l80.657-47.082-1.785-3.059L622.2,413.56Z" transform="translate(-194.989 -365.457)" fill="#fff"/>
          <path id="Path_5442" data-name="Path 5442" d="M343.353,577.769,221.9,648.666l1.785,3.057,123.2-71.916Z" transform="translate(-221.899 -351.184)" fill="#fff"/>
          <path id="Path_5443" data-name="Path 5443" d="M377.433,565.754l224.23-130.891-3.531-2.039L373.9,563.715Z" transform="translate(-211.681 -360.928)" fill="#fff"/>
        </g>
        <g id="Group_900" data-name="Group 900" transform="translate(132.301 210.315)">
          <path id="Path_5444" data-name="Path 5444" d="M345.194,556.044,300.5,530.24l-1.771,3.068,42.922,24.781Z" transform="translate(-298.731 -530.24)" fill="#fff"/>
          <path id="Path_5445" data-name="Path 5445" d="M380.9,576.6l-3.543,2.045L539.414,672.2l1.771-3.068Z" transform="translate(-293.445 -527.124)" fill="#fff"/>
        </g>
        <g id="Group_901" data-name="Group 901" transform="translate(396.013 54.838)">
          <path id="Path_5446" data-name="Path 5446" d="M592.295,410.36l-44.693-25.8-1.771,3.068,42.922,24.781Z" transform="translate(-545.831 -384.557)" fill="#fff"/>
          <path id="Path_5447" data-name="Path 5447" d="M628,430.912l-3.543,2.045,162.054,93.562,1.771-3.068Z" transform="translate(-540.545 -381.44)" fill="#fff"/>
        </g>
        <g id="Group_902" data-name="Group 902" transform="translate(211.038 259.365)">
          <path id="Path_5448" data-name="Path 5448" d="M376.375,592.959l19.336,11.164-3.867,2.233-19.336-11.164Z" transform="translate(-372.508 -575.074)" fill="#fff"/>
          <path id="Path_5449" data-name="Path 5449" d="M381.207,590.166l19.336,11.164-3.867,2.233L377.34,592.4Z" transform="translate(-372.183 -575.261)" fill="#fff"/>
          <path id="Path_5450" data-name="Path 5450" d="M386.038,587.373l19.336,11.164-3.867,2.233-19.336-11.164Z" transform="translate(-371.858 -575.449)" fill="#fff"/>
          <path id="Path_5451" data-name="Path 5451" d="M390.87,584.579l19.336,11.164-3.867,2.233L387,586.812Z" transform="translate(-371.534 -575.637)" fill="#fff"/>
          <path id="Path_5452" data-name="Path 5452" d="M395.7,581.786l19.336,11.164-3.867,2.233-19.336-11.164Z" transform="translate(-371.209 -575.825)" fill="#fff"/>
          <path id="Path_5453" data-name="Path 5453" d="M400.533,578.993l19.336,11.164L416,592.39l-19.336-11.164Z" transform="translate(-370.884 -576.012)" fill="#fff"/>
          <path id="Path_5454" data-name="Path 5454" d="M405.364,576.2,424.7,587.364l-3.867,2.233L401.5,578.433Z" transform="translate(-370.559 -576.2)" fill="#fff"/>
        </g>
        <g id="Group_903" data-name="Group 903" transform="translate(334.491 331.017)">
          <path id="Path_5455" data-name="Path 5455" d="M492.052,660.1l19.336,11.164-3.867,2.233L488.184,662.33Z" transform="translate(-488.184 -642.212)" fill="#fff"/>
          <path id="Path_5456" data-name="Path 5456" d="M496.883,657.3l19.336,11.164-3.867,2.233-19.336-11.164Z" transform="translate(-487.86 -642.4)" fill="#fff"/>
          <path id="Path_5457" data-name="Path 5457" d="M501.715,654.511l19.336,11.164-3.867,2.233-19.336-11.164Z" transform="translate(-487.535 -642.588)" fill="#fff"/>
          <path id="Path_5458" data-name="Path 5458" d="M506.546,651.718l19.336,11.164-3.867,2.233-19.336-11.164Z" transform="translate(-487.21 -642.776)" fill="#fff"/>
          <path id="Path_5459" data-name="Path 5459" d="M511.378,648.925l19.336,11.164-3.867,2.233L507.51,651.158Z" transform="translate(-486.885 -642.963)" fill="#fff"/>
          <path id="Path_5460" data-name="Path 5460" d="M516.209,646.132,535.545,657.3l-3.867,2.233-19.336-11.164Z" transform="translate(-486.561 -643.151)" fill="#fff"/>
          <path id="Path_5461" data-name="Path 5461" d="M521.041,643.339,540.377,654.5l-3.867,2.233-19.336-11.164Z" transform="translate(-486.236 -643.339)" fill="#fff"/>
        </g>
        <g id="Group_904" data-name="Group 904" transform="translate(123.491 209.029)">
          <path id="Path_5462" data-name="Path 5462" d="M294.343,545.793l19.336,11.164-3.867,2.233-19.336-11.164Z" transform="translate(-290.476 -527.908)" fill="#fff"/>
          <path id="Path_5463" data-name="Path 5463" d="M299.175,543l19.336,11.164-3.867,2.233-19.336-11.164Z" transform="translate(-290.151 -528.096)" fill="#fff"/>
          <path id="Path_5464" data-name="Path 5464" d="M304.006,540.207l19.336,11.164-3.867,2.233L300.139,542.44Z" transform="translate(-289.826 -528.284)" fill="#fff"/>
          <path id="Path_5465" data-name="Path 5465" d="M308.837,537.414l19.336,11.164-3.867,2.233L304.97,539.647Z" transform="translate(-289.501 -528.472)" fill="#fff"/>
          <path id="Path_5466" data-name="Path 5466" d="M313.669,534.621l19.336,11.164-3.867,2.233L309.8,536.854Z" transform="translate(-289.177 -528.659)" fill="#fff"/>
          <path id="Path_5467" data-name="Path 5467" d="M318.5,531.828l19.336,11.164-3.867,2.233-19.336-11.164Z" transform="translate(-288.852 -528.847)" fill="#fff"/>
          <path id="Path_5468" data-name="Path 5468" d="M323.332,529.035,342.668,540.2l-3.867,2.233-19.336-11.164Z" transform="translate(-288.527 -529.035)" fill="#fff"/>
        </g>
        <path id="Path_5469" data-name="Path 5469" d="M361.053,609.3l41.071,23.761-61.569,35.41L299.56,644.8Z" transform="translate(-166.374 -314.61)" fill="#fff"/>
        <path id="Path_5470" data-name="Path 5470" d="M376.386,666.234l40.995-23.668,20.5,11.834-20.5,11.834,20.5,11.834,20.5-11.834,20.5,11.834-40.995,23.668Z" transform="translate(-161.21 -312.374)" fill="#fff"/>
        <path id="Path_5471" data-name="Path 5471" d="M211.79,586.516l28.286,16.328,56.568-32.66-28.284-16.33Z" transform="translate(-172.275 -318.337)" fill="#fff"/>
        <path id="Path_5472" data-name="Path 5472" d="M495.5,531.678,434,567.18l61.492,35.5,20.5-11.834L475,567.18l40.994-23.669Z" transform="translate(-157.336 -319.828)" fill="#fff"/>
        <path id="Path_5473" data-name="Path 5473" d="M531.316,598.21l-20.321,11.733,40.819,23.77,20.5-11.834Z" transform="translate(-152.16 -315.355)" fill="#fff"/>
        <path id="Path_5474" data-name="Path 5474" d="M510.67,521.982l20.667,11.932,40.995-23.668-20.5-11.834Z" transform="translate(-152.182 -322.064)" fill="#fff"/>
        <path id="Path_5475" data-name="Path 5475" d="M568.448,488.814l20.5,11.834,20.5-11.834,40.995,23.668,20.5-11.834-61.492-35.5Z" transform="translate(-148.298 -324.301)" fill="#fff"/>
        <path id="Path_5476" data-name="Path 5476" d="M684.977,509.5l-20.5,11.736L705.475,545l20.5-11.834Z" transform="translate(-141.842 -321.319)" fill="#fff"/>
      </g>
    </g>
    <g id="Group_914" data-name="Group 914" transform="translate(193.615 350.221)">
      <g id="Group_934" data-name="Group 934">
        <path id="Path_5478" data-name="Path 5478" d="M650.826,343.371,900.862,487.729l-458.4,264.657L192.427,608.028Z" transform="translate(-192.427 -343.371)" fill="#a0b888"/>
        <path id="Path_5479" data-name="Path 5479" d="M648.85,351.348l236.3,136.427L441.865,743.651l-236.3-136.427Z" transform="translate(-191.544 -342.835)" fill="none"/>
        <path id="Path_5480" data-name="Path 5480" d="M842.514,534.832l-38.923,22.463L628.432,456.18,414.35,579.774,589.51,680.905l-38.923,22.462L375.428,602.236,258.66,669.657l-38.923-22.462,19.453-11.231,97.315-56.19-58.392-33.711,38.922-22.479,58.392,33.711L589.51,433.7l-58.392-33.71,38.922-22.462,58.375,33.71,77.862-44.958L745.2,388.76,667.355,433.7Z" transform="translate(-190.591 -341.831)" fill="#878787"/>
        <g id="Group_907" data-name="Group 907" transform="translate(47.763 32.713)">
          <path id="Path_5481" data-name="Path 5481" d="M620.61,421.631l76.581-44.7-1.694-2.9L617.255,419.7Z" transform="translate(-211.631 -374.023)" fill="#f0c800"/>
          <path id="Path_5482" data-name="Path 5482" d="M352.5,575.608,237.181,642.922l1.694,2.9,116.975-68.282Z" transform="translate(-237.181 -360.472)" fill="#f0c800"/>
          <path id="Path_5483" data-name="Path 5483" d="M384.856,564.2l212.9-124.277-3.353-1.936L381.5,562.264Z" transform="translate(-227.479 -369.723)" fill="#f0c800"/>
        </g>
        <g id="Group_908" data-name="Group 908" transform="translate(125.615 199.688)">
          <path id="Path_5484" data-name="Path 5484" d="M354.246,554.98l-42.435-24.5-1.681,2.913,40.753,23.529Z" transform="translate(-310.13 -530.48)" fill="#f0c800"/>
          <path id="Path_5485" data-name="Path 5485" d="M388.15,574.494l-3.364,1.941L538.652,665.27l1.681-2.913Z" transform="translate(-305.111 -527.522)" fill="#f0c800"/>
        </g>
        <g id="Group_909" data-name="Group 909" transform="translate(376.002 52.067)">
          <path id="Path_5486" data-name="Path 5486" d="M588.861,416.658l-42.435-24.5-1.681,2.913L585.5,418.6Z" transform="translate(-544.745 -392.158)" fill="#f0c800"/>
          <path id="Path_5487" data-name="Path 5487" d="M622.765,436.172l-3.364,1.941,153.866,88.835,1.681-2.913Z" transform="translate(-539.726 -389.2)" fill="#f0c800"/>
        </g>
        <g id="Group_910" data-name="Group 910" transform="translate(200.374 246.26)">
          <path id="Path_5488" data-name="Path 5488" d="M383.851,590.03l18.359,10.6-3.672,2.12-18.359-10.6Z" transform="translate(-380.18 -573.049)" fill="#fff"/>
          <path id="Path_5489" data-name="Path 5489" d="M388.439,587.378l18.359,10.6-3.672,2.12-18.359-10.6Z" transform="translate(-379.871 -573.227)" fill="#fff"/>
          <path id="Path_5490" data-name="Path 5490" d="M393.026,584.726l18.359,10.6-3.672,2.12-18.359-10.6Z" transform="translate(-379.563 -573.405)" fill="#fff"/>
          <path id="Path_5491" data-name="Path 5491" d="M397.614,582.074l18.359,10.6-3.672,2.12-18.359-10.6Z" transform="translate(-379.255 -573.583)" fill="#fff"/>
          <path id="Path_5492" data-name="Path 5492" d="M402.2,579.422l18.359,10.6-3.672,2.12-18.359-10.6Z" transform="translate(-378.946 -573.762)" fill="#fff"/>
          <path id="Path_5493" data-name="Path 5493" d="M406.788,576.77l18.359,10.6-3.672,2.12-18.359-10.6Z" transform="translate(-378.638 -573.94)" fill="#fff"/>
          <path id="Path_5494" data-name="Path 5494" d="M411.376,574.118l18.359,10.6-3.672,2.12-18.359-10.6Z" transform="translate(-378.329 -574.118)" fill="#fff"/>
        </g>
        <g id="Group_911" data-name="Group 911" transform="translate(317.589 314.291)">
          <path id="Path_5495" data-name="Path 5495" d="M493.683,653.776l18.359,10.6-3.672,2.12-18.359-10.6Z" transform="translate(-490.011 -636.795)" fill="#fff"/>
          <path id="Path_5496" data-name="Path 5496" d="M498.27,651.124l18.359,10.6-3.672,2.12-18.359-10.6Z" transform="translate(-489.703 -636.973)" fill="#fff"/>
          <path id="Path_5497" data-name="Path 5497" d="M502.858,648.472l18.359,10.6-3.672,2.12-18.359-10.6Z" transform="translate(-489.394 -637.151)" fill="#fff"/>
          <path id="Path_5498" data-name="Path 5498" d="M507.445,645.82l18.359,10.6-3.672,2.12-18.359-10.6Z" transform="translate(-489.086 -637.33)" fill="#fff"/>
          <path id="Path_5499" data-name="Path 5499" d="M512.032,643.168l18.359,10.6-3.672,2.12-18.359-10.6Z" transform="translate(-488.777 -637.508)" fill="#fff"/>
          <path id="Path_5500" data-name="Path 5500" d="M516.62,640.516l18.359,10.6-3.672,2.12-18.359-10.6Z" transform="translate(-488.469 -637.686)" fill="#fff"/>
          <path id="Path_5501" data-name="Path 5501" d="M521.207,637.864l18.359,10.6-3.672,2.12-18.359-10.6Z" transform="translate(-488.161 -637.864)" fill="#fff"/>
        </g>
        <g id="Group_912" data-name="Group 912" transform="translate(117.251 198.467)">
          <path id="Path_5502" data-name="Path 5502" d="M305.964,545.248l18.359,10.6-3.672,2.12-18.359-10.6Z" transform="translate(-302.293 -528.266)" fill="#fff"/>
          <path id="Path_5503" data-name="Path 5503" d="M310.552,542.6l18.359,10.6-3.672,2.12-18.359-10.6Z" transform="translate(-301.984 -528.445)" fill="#fff"/>
          <path id="Path_5504" data-name="Path 5504" d="M315.139,539.944l18.359,10.6-3.672,2.12-18.359-10.6Z" transform="translate(-301.676 -528.623)" fill="#fff"/>
          <path id="Path_5505" data-name="Path 5505" d="M319.726,537.292l18.359,10.6-3.672,2.12-18.359-10.6Z" transform="translate(-301.367 -528.801)" fill="#fff"/>
          <path id="Path_5506" data-name="Path 5506" d="M324.314,534.64l18.359,10.6L339,547.36l-18.359-10.6Z" transform="translate(-301.059 -528.98)" fill="#fff"/>
          <path id="Path_5507" data-name="Path 5507" d="M328.9,531.988l18.359,10.6-3.672,2.12-18.359-10.6Z" transform="translate(-300.751 -529.158)" fill="#fff"/>
          <path id="Path_5508" data-name="Path 5508" d="M333.488,529.336l18.359,10.6-3.672,2.12-18.359-10.6Z" transform="translate(-300.442 -529.336)" fill="#fff"/>
        </g>
        <path id="Path_5509" data-name="Path 5509" d="M369.3,605.544l39,22.56-58.458,33.621-38.923-22.472Z" transform="translate(-184.462 -325.746)" fill="#647950"/>
        <path id="Path_5510" data-name="Path 5510" d="M383.861,659.6l38.923-22.472,19.462,11.236L422.785,659.6l19.462,11.236L461.708,659.6l19.462,11.236-38.923,22.472Z" transform="translate(-179.558 -323.623)" fill="#647950"/>
        <path id="Path_5511" data-name="Path 5511" d="M227.583,583.913l26.857,15.5,53.71-31.009-26.855-15.5Z" transform="translate(-190.064 -329.285)" fill="#647950"/>
        <path id="Path_5512" data-name="Path 5512" d="M496.954,531.845l-58.385,33.709,58.385,33.709,19.461-11.237-38.923-22.472,38.923-22.473Z" transform="translate(-175.88 -330.701)" fill="#647950"/>
        <path id="Path_5513" data-name="Path 5513" d="M530.963,595.016l-19.294,11.14,38.756,22.569,19.462-11.236Z" transform="translate(-170.966 -326.454)" fill="#647950"/>
        <path id="Path_5514" data-name="Path 5514" d="M511.361,522.639l19.623,11.329L569.907,511.5,550.445,500.26Z" transform="translate(-170.987 -332.824)" fill="#647950"/>
        <path id="Path_5515" data-name="Path 5515" d="M566.219,491.147l19.462,11.236,19.462-11.236,38.923,22.473,19.462-11.236-58.385-33.709Z" transform="translate(-167.299 -334.947)" fill="#647950"/>
        <path id="Path_5516" data-name="Path 5516" d="M676.86,510.789,657.4,521.932,696.322,544.5l19.462-11.236Z" transform="translate(-161.169 -332.116)" fill="#647950"/>
      </g>
    </g>
    <g id="Group_932" data-name="Group 932" transform="translate(331.701 241.473)">
      <path id="Path_5518" data-name="Path 5518" d="M321.815,557.4l214.3,123.581,272.37-157.361-97.309-56.181,19.555-11.29L613.865,388.784Z" transform="translate(-321.815 -231.57)" opacity="0.39"/>
      <g id="Group_917" data-name="Group 917" transform="translate(0.179)">
        <path id="Path_5519" data-name="Path 5519" d="M723.36,308.882,548.2,410.015,431.434,342.6,606.589,241.473Z" transform="translate(-314.625 -241.473)" fill="#f05253"/>
        <path id="Path_5520" data-name="Path 5520" d="M431.434,336.229V448.591L548.2,516.008V403.645Z" transform="translate(-314.625 -235.103)" fill="#ce2127"/>
        <path id="Path_5521" data-name="Path 5521" d="M618.006,451.519c0,.168.034,11.416,6.995,13.9l9,5.246,4.858-8.76c16.578-10.559,17.907-29.406,18.007-32.466l4.371-7.869-9.684-5.616-.05-.034c-2.842-1.866-7.263-2.034-14.039,1.884C618.006,429.04,618.006,451.519,618.006,451.519Z" transform="translate(-302.083 -229.831)" fill="#021826"/>
        <path id="Path_5522" data-name="Path 5522" d="M666.734,434.715s.038-22.451-19.423-11.214-19.462,33.708-19.462,33.708-.038,22.495,19.443,11.247S666.734,434.715,666.734,434.715Z" transform="translate(-301.421 -229.448)" fill="#023f5c"/>
        <path id="Path_5523" data-name="Path 5523" d="M656.879,439.315s.02-11.745-10.162-5.867-10.181,17.635-10.181,17.635-.02,11.768,10.172,5.885S656.879,439.315,656.879,439.315Z" transform="translate(-300.837 -228.678)" fill="#c4c6c0"/>
        <path id="Path_5524" data-name="Path 5524" d="M435.648,556.408c0,.169.034,11.416,6.995,13.9l9,5.245,4.858-8.76c16.578-10.559,17.907-29.406,18.007-32.466l4.371-7.869-9.684-5.616-.05-.033c-2.842-1.867-7.264-2.035-14.039,1.883C435.648,533.929,435.648,556.408,435.648,556.408Z" transform="translate(-314.342 -222.78)" fill="#021826"/>
        <path id="Path_5525" data-name="Path 5525" d="M484.376,539.6s.038-22.45-19.424-11.214S445.491,562.1,445.491,562.1s-.038,22.495,19.443,11.247S484.376,539.6,484.376,539.6Z" transform="translate(-313.68 -222.396)" fill="#023f5c"/>
        <path id="Path_5526" data-name="Path 5526" d="M474.521,544.205s.02-11.746-10.162-5.868-10.181,17.636-10.181,17.636-.02,11.768,10.172,5.884S474.521,544.205,474.521,544.205Z" transform="translate(-313.096 -221.626)" fill="#c4c6c0"/>
        <path id="Path_5527" data-name="Path 5527" d="M532.42,413.467l-97.309-56.184-58.385,33.709,97.309,56.184Z" transform="translate(-318.303 -233.687)" fill="#fec05d"/>
        <path id="Path_5528" data-name="Path 5528" d="M322.02,483.624l97.293,56.193.015,44.936-97.319-56.19Z" transform="translate(-321.981 -225.194)" fill="#ffa621"/>
        <path id="Path_5529" data-name="Path 5529" d="M529.969,409.928V522.29l-38.939,22.481s.015-22.481-19.446-11.244-19.338,33.637-19.338,33.637L413.2,589.708l-.015-44.937,58.4-101.135Z" transform="translate(-315.852 -230.148)" fill="#f90"/>
        <path id="Path_5530" data-name="Path 5530" d="M540.849,518.132V405.768L716,304.636v112.37l-38.927,22.47s0-22.47-19.459-11.235-19.461,33.709-19.461,33.709Z" transform="translate(-307.27 -237.227)" fill="#dd2f2e"/>
        <path id="Path_5531" data-name="Path 5531" d="M398.931,538.694s9.379,5.409,9.379,16.233-9.379,5.41-9.379,5.41-9.305-5.446-9.369-16.234S398.931,538.694,398.931,538.694Z" transform="translate(-317.44 -221.582)" fill="#fdcb02"/>
        <path id="Path_5532" data-name="Path 5532" d="M337.448,503.19s9.379,5.409,9.379,16.233-9.379,5.41-9.379,5.41-9.305-5.446-9.369-16.234S337.448,503.19,337.448,503.19Z" transform="translate(-321.573 -223.969)" fill="#fdcb02"/>
        <path id="Path_5533" data-name="Path 5533" d="M380.508,529.832s7.783,4.493,7.783,13.48-7.677,4.432-7.677,4.432L357.16,534.325s-7.782-4.493-7.782-13.48,7.789-4.49,7.789-4.49Z" transform="translate(-320.141 -223.069)" fill="#78787a"/>
        <path id="Path_5534" data-name="Path 5534" d="M444.379,502.047c-.005.1-.005.194-.005.3,0,7.211,6.186,10.785,6.186,10.785l5.878,3.395,2.132,2.554,2.813-1.717.032-.016c.966-.507,1.705-1.705,1.705-4.178,0-7.217-6.251-10.823-6.251-10.823l-6.245-3.612s-2.872-1.657-4.724-.475l-.076.049-3.022,1.852Z" transform="translate(-313.861 -224.239)" fill="#02628d"/>
        <g id="Group_915" data-name="Group 915" transform="translate(123.939 274.754)">
          <path id="Path_5535" data-name="Path 5535" d="M442.328,504.439l-4.213-2.432v-2.432l4.213,2.432Z" transform="translate(-438.115 -498.876)" fill="#023f5c"/>
          <path id="Path_5536" data-name="Path 5536" d="M443.542,501.352l-1.214.7-4.213-2.432,1.214-.7Z" transform="translate(-438.115 -498.92)" fill="#023f5c"/>
          <path id="Path_5537" data-name="Path 5537" d="M443.277,503.631l-1.214.7V501.9l1.214-.7Z" transform="translate(-437.85 -498.767)" fill="#023f5c"/>
        </g>
        <path id="Path_5538" data-name="Path 5538" d="M454,504.03s6.248,3.607,6.248,10.823-6.283,3.587-6.283,3.587l-6.275-3.623s-6.187-3.571-6.187-10.786,6.249-3.607,6.249-3.607Z" transform="translate(-313.948 -224.125)" fill="#123366"/>
        <path id="Path_5539" data-name="Path 5539" d="M324.858,433.057c-.005.1-.005.194-.005.3,0,7.212,6.186,10.785,6.186,10.785l5.879,3.395,2.131,2.554,2.813-1.717.032-.016c.966-.507,1.705-1.705,1.705-4.178,0-7.217-6.251-10.823-6.251-10.823l-6.245-3.611s-2.872-1.657-4.724-.475l-.075.049-3.023,1.852Z" transform="translate(-321.896 -228.877)" fill="#02628d"/>
        <path id="Path_5540" data-name="Path 5540" d="M334.48,435.04s6.249,3.607,6.249,10.823-6.284,3.587-6.284,3.587l-6.275-3.623s-6.187-3.571-6.187-10.786,6.249-3.607,6.249-3.607Z" transform="translate(-321.983 -228.763)" fill="#123366"/>
        <path id="Path_5541" data-name="Path 5541" d="M344.471,447.948l-4.213-2.432v-2.432l4.213,2.432Z" transform="translate(-320.754 -227.919)" fill="#023f5c"/>
        <path id="Path_5542" data-name="Path 5542" d="M345.685,444.861l-1.214.7-4.213-2.432,1.214-.7Z" transform="translate(-320.754 -227.963)" fill="#02628d"/>
        <path id="Path_5543" data-name="Path 5543" d="M345.42,447.14l-1.214.7v-2.432l1.214-.7Z" transform="translate(-320.489 -227.81)" fill="#02628d"/>
        <path id="Path_5544" data-name="Path 5544" d="M380.4,388.869,322.019,489.994l97.293,56.193,58.4-101.135Z" transform="translate(-321.981 -231.564)" fill="#fbb635"/>
        <rect id="Rectangle_1899" data-name="Rectangle 1899" width="63.906" height="98.389" transform="translate(25.76 227.799) rotate(-60)" fill="#123366"/>
        <path id="Path_5545" data-name="Path 5545" d="M520,466.107l-66.333,38.576V482.211l19.67-33.588L520,421.163Z" transform="translate(-313.13 -229.393)" fill="#123366"/>
        <g id="Group_916" data-name="Group 916" transform="translate(243.291 98.314)">
          <path id="Path_5546" data-name="Path 5546" d="M549.968,414.442a90.843,90.843,0,0,1,8.261-5.716c5.6-3.414,9.6-4.432,12.258-3.356,2.705,1.051,4.286,3.918,4.286,9.266a30.224,30.224,0,0,1-4.378,15.5,38.387,38.387,0,0,1-13.388,12.8c-2.773,1.665-5.1,2.914-7.059,3.848Zm3.865,26.729a32.727,32.727,0,0,0,3.936-2.122c8.349-5.02,12.9-12.856,12.9-21.781.046-7.82-4.005-10.3-12.26-5.282a36.8,36.8,0,0,0-4.56,3.214Z" transform="translate(-549.949 -328.796)" fill="#333"/>
          <path id="Path_5547" data-name="Path 5547" d="M580.357,416.88c.092,5.8,3.544,6.134,7.549,3.727a26.968,26.968,0,0,0,6.113-4.909l.688,2.7a33.349,33.349,0,0,1-7.347,5.893c-6.775,4.066-10.809,1.669-10.81-5.506s3.893-15.183,10.3-19.07c7.2-4.372,9.129,1.321,9.132,5.715a20.285,20.285,0,0,1-.137,2.107ZM592.1,406.688c.043-2.788-1.055-6.414-5.565-3.68-4.045,2.451-5.813,7.555-6.13,10.746Z" transform="translate(-548.161 -329.255)" fill="#333"/>
          <path id="Path_5548" data-name="Path 5548" d="M599.41,381.8l4.038-2.463.033,35.122-4.043,2.427Z" transform="translate(-546.624 -330.519)" fill="#333"/>
          <path id="Path_5549" data-name="Path 5549" d="M614.132,377.145a5.227,5.227,0,0,1-2.583,4.25c-1.431.87-2.446.3-2.447-1.189a5.443,5.443,0,0,1,2.534-4.269C613.157,375.009,614.13,375.608,614.132,377.145Zm-4.489,33.48-.027-23.991,4.063-2.465.03,24.015Z" transform="translate(-545.972 -330.777)" fill="#333"/>
          <path id="Path_5550" data-name="Path 5550" d="M621.471,379.534l4.438,10.856a38.631,38.631,0,0,1,1.826,5.08l.139-.083c.509-2.3,1.159-4.686,1.9-7.329l4.365-16.211,4.3-2.612-8.837,29.5-3.915,2.35-8.578-18.907Z" transform="translate(-545.434 -331.198)" fill="#333"/>
          <path id="Path_5551" data-name="Path 5551" d="M642.731,379.277c.107,5.894,3.686,6.2,7.836,3.7a28.243,28.243,0,0,0,6.332-5.064l.719,2.736a34.941,34.941,0,0,1-7.609,6.078c-7.019,4.212-11.208,1.822-11.223-5.473s4.012-15.481,10.647-19.509c7.463-4.529,9.469,1.237,9.481,5.7a20.1,20.1,0,0,1-.138,2.144Zm12.156-10.5c.039-2.835-1.1-6.509-5.778-3.677-4.191,2.54-6.016,7.75-6.338,11Z" transform="translate(-543.977 -331.812)" fill="#333"/>
          <path id="Path_5552" data-name="Path 5552" d="M662.49,361.9c-.008-2.864-.063-5.3-.21-7.472l3.661-2.222.157,4.689.19-.115a15.884,15.884,0,0,1,6.373-9.206,5.791,5.791,0,0,1,1.2-.576l.013,4.181a8.213,8.213,0,0,0-1.434.717,13.16,13.16,0,0,0-5.613,9.095,15.526,15.526,0,0,0-.184,2.177l.035,12.986-4.14,2.486Z" transform="translate(-542.397 -332.693)" fill="#333"/>
          <path id="Path_5553" data-name="Path 5553" d="M679.918,344.09l5.14,11.365c.535,1.3,1.118,2.872,1.508,4.107l.1-.058c.428-1.728.9-3.89,1.477-6.008l4.581-17.174,4.5-2.728L690.9,354.927c-3.011,10.23-5.067,15.776-7.945,20.134a26.119,26.119,0,0,1-5.175,5.982l-1.067-3.106a26.047,26.047,0,0,0,3.687-4.386,29.229,29.229,0,0,0,3.539-7.086,5.241,5.241,0,0,0,.333-1.264,2.6,2.6,0,0,0-.291-.989l-8.658-17.332Z" transform="translate(-541.521 -333.594)" fill="#333"/>
        </g>
        <path id="Path_5554" data-name="Path 5554" d="M496.512,487.66l19.481-11.225v5.659l-19.481,11.225Z" transform="translate(-310.25 -225.677)" fill="#333"/>
      </g>
      <g id="Group_919" data-name="Group 919" transform="translate(69.435 393.828)">
        <path id="Path_5555" data-name="Path 5555" d="M454.2,667.943s-27.545-15.9-55.087,0,0,31.8,0,31.8,27.542,15.9,55.086,0S454.2,667.943,454.2,667.943Z" transform="translate(-386.877 -607.107)" opacity="0.39"/>
        <path id="Path_5556" data-name="Path 5556" d="M445.388,672.184s-19.463-11.237-38.924,0,0,22.473,0,22.473,19.461,11.236,38.923,0S445.388,672.184,445.388,672.184Zm-4.17,20.065c-15.293,8.829-30.586,0-30.586,0s-15.291-8.828,0-17.658,30.586,0,30.586,0S456.51,683.42,441.218,692.248Z" transform="translate(-386.141 -606.682)" fill="#ce2127"/>
        <path id="Path_5557" data-name="Path 5557" d="M440.566,617.346l-9.365-5.38-.117-.068c-5.75-3.832-14.829,1.4-14.829,1.4s-18.847,10.9-19.419,32.668c-.017.353-.034.689-.034,1.043,0,1.076.051,2.119.136,3.127,1.681,20.395,19.318,30.584,19.318,30.584l9.735,5.616.016-7.431-4.32-2.657c12.021-13.333,13.752-41.747,13.988-49.632.05-1.328.05-2.067.05-2.067a29.774,29.774,0,0,0-.336-4.692l3.363,1.631Zm-24.3,33.159a16.512,16.512,0,0,1-2.814,1.21,19.355,19.355,0,0,1-.216-2.961c0-14.737,12.763-22.105,12.763-22.105a16.453,16.453,0,0,1,2.814-1.211,19.356,19.356,0,0,1,.216,2.962C429.026,643.135,416.263,650.5,416.263,650.5Z" transform="translate(-386.21 -610.493)" fill="#dd2f2e"/>
        <path id="Path_5558" data-name="Path 5558" d="M425.376,618.556s-18.848,10.9-19.419,32.668c-.017.353-.034.689-.034,1.043,0,1.076.05,2.118.134,3.127,1.682,20.395,19.319,30.583,19.319,30.583,16.964-9.785,19.149-45.161,19.419-54.105.05-1.328.05-2.068.05-2.068C444.846,607.324,425.376,618.556,425.376,618.556Zm-9.727,31.6a16.507,16.507,0,0,1-2.814,1.21,19.354,19.354,0,0,1-.216-2.961c0-14.737,12.763-22.105,12.763-22.105a16.45,16.45,0,0,1,2.814-1.211,19.356,19.356,0,0,1,.216,2.962C428.413,642.782,415.65,650.151,415.65,650.151Z" transform="translate(-385.596 -610.14)" fill="#f05253"/>
        <g id="Group_918" data-name="Group 918" transform="translate(27.024 14.314)">
          <path id="Path_5559" data-name="Path 5559" d="M424.355,625.579a17.012,17.012,0,0,1,2.009-.889A16.9,16.9,0,0,0,424.355,625.579Z" transform="translate(-411.381 -623.853)" fill="#ce2127"/>
          <path id="Path_5560" data-name="Path 5560" d="M426.243,624.7q.28-.1.585-.2C426.625,624.563,426.431,624.631,426.243,624.7Z" transform="translate(-411.254 -623.866)" fill="#ce2127"/>
          <path id="Path_5561" data-name="Path 5561" d="M424.157,625.633l.049-.028Z" transform="translate(-411.394 -623.791)" fill="#ce2127"/>
          <path id="Path_5562" data-name="Path 5562" d="M424.214,625.6l.146-.079Z" transform="translate(-411.39 -623.797)" fill="#ce2127"/>
          <path id="Path_5563" data-name="Path 5563" d="M412.254,647.874c-.035-.48-.056-.988-.056-1.53C412.2,646.886,412.22,647.391,412.254,647.874Z" transform="translate(-412.198 -622.397)" fill="#ce2127"/>
          <path id="Path_5564" data-name="Path 5564" d="M427.771,624.536a19.356,19.356,0,0,1,.216,2.962c0,14.736-12.763,22.105-12.763,22.105a16.507,16.507,0,0,1-2.814,1.21c-.063-.41-.112-.847-.148-1.305.942,12.49,12.7,5.713,12.7,5.713s12.762-7.368,12.762-22.105C437.719,622.849,431.529,623.312,427.771,624.536Z" transform="translate(-412.194 -623.905)" fill="#ce2127"/>
        </g>
      </g>
      <g id="Group_928" data-name="Group 928" transform="translate(280.642 168.346)">
        <g id="Group_923" data-name="Group 923">
          <path id="Path_5565" data-name="Path 5565" d="M724.913,435.29c1.946-1.127,12.83-7.42,14.068-8.161a2.743,2.743,0,0,1,2.576-.243l.374.215.011.006,1.909,1.092-.878.56a3.5,3.5,0,0,1,.07.717,4.281,4.281,0,0,1-2.013,3.489l-16.117,9.305Z" transform="translate(-575.359 -397.369)" fill="#02618d"/>
          <path id="Path_5566" data-name="Path 5566" d="M743.044,434.054a4.283,4.283,0,0,0,2.015-3.489A2.576,2.576,0,0,0,741,428.219c-1.981,1.182-16.083,9.324-16.083,9.324v6.979Z" transform="translate(-575.359 -397.296)" fill="#035075"/>
          <path id="Path_5567" data-name="Path 5567" d="M677.993,407.836c1.944-1.127,12.829-7.42,14.068-8.161a2.741,2.741,0,0,1,2.575-.243l.375.214.01.006,1.909,1.092-.878.56a3.5,3.5,0,0,1,.072.717,4.281,4.281,0,0,1-2.014,3.489l-16.116,9.305Z" transform="translate(-578.513 -399.214)" fill="#02618d"/>
          <path id="Path_5568" data-name="Path 5568" d="M696.124,406.6a4.283,4.283,0,0,0,2.014-3.489,2.577,2.577,0,0,0-4.063-2.347c-1.981,1.184-16.082,9.325-16.082,9.325v6.979Z" transform="translate(-578.513 -399.141)" fill="#035075"/>
          <g id="Group_920" data-name="Group 920" transform="translate(129.703 121.14)">
            <path id="Path_5569" data-name="Path 5569" d="M706.312,529.477c0,.076.015,5.187,3.178,6.318l4.088,2.383,2.208-3.98c7.532-4.8,8.137-13.363,8.181-14.752l1.987-3.576-4.4-2.552-.022-.015c-1.291-.849-3.3-.924-6.379.856C706.312,519.263,706.312,529.477,706.312,529.477Z" transform="translate(-706.312 -512.724)" fill="#021826"/>
            <path id="Path_5570" data-name="Path 5570" d="M728.454,521.841s.017-10.2-8.826-5.1-8.843,15.317-8.843,15.317-.018,10.222,8.834,5.111S728.454,521.841,728.454,521.841Z" transform="translate(-706.011 -512.549)" fill="#035075"/>
            <path id="Path_5571" data-name="Path 5571" d="M723.975,523.932s.01-5.337-4.617-2.666-4.626,8.013-4.626,8.013-.01,5.348,4.622,2.674S723.975,523.932,723.975,523.932Z" transform="translate(-705.746 -512.2)" fill="#c4c6c0"/>
          </g>
          <g id="Group_921" data-name="Group 921" transform="translate(70.221 155.653)">
            <path id="Path_5572" data-name="Path 5572" d="M650.577,561.816c0,.076.015,5.187,3.178,6.318l4.087,2.383,2.208-3.98c7.533-4.8,8.135-13.362,8.181-14.752l1.986-3.575-4.4-2.552-.022-.016c-1.291-.847-3.3-.924-6.38.856C650.577,551.6,650.577,561.816,650.577,561.816Z" transform="translate(-650.577 -545.063)" fill="#021826"/>
            <path id="Path_5573" data-name="Path 5573" d="M672.718,554.18s.018-10.2-8.825-5.1-8.844,15.317-8.844,15.317-.017,10.222,8.835,5.111S672.718,554.18,672.718,554.18Z" transform="translate(-650.276 -544.889)" fill="#035075"/>
            <path id="Path_5574" data-name="Path 5574" d="M668.24,556.271s.01-5.337-4.617-2.666S659,561.619,659,561.619s-.01,5.347,4.621,2.673S668.24,556.271,668.24,556.271Z" transform="translate(-650.011 -544.539)" fill="#c4c6c0"/>
          </g>
          <g id="Group_922" data-name="Group 922" transform="translate(12.668 121.456)">
            <path id="Path_5575" data-name="Path 5575" d="M596.65,529.773c0,.076.015,5.187,3.178,6.318l4.088,2.383,2.207-3.98c7.534-4.8,8.137-13.363,8.182-14.753l1.986-3.575-4.4-2.552-.023-.015c-1.291-.847-3.3-.924-6.38.856C596.65,519.559,596.65,529.773,596.65,529.773Z" transform="translate(-596.65 -513.02)" fill="#021826"/>
            <path id="Path_5576" data-name="Path 5576" d="M618.791,522.137s.018-10.2-8.826-5.1-8.843,15.317-8.843,15.317-.017,10.222,8.834,5.111S618.791,522.137,618.791,522.137Z" transform="translate(-596.349 -512.846)" fill="#035075"/>
            <path id="Path_5577" data-name="Path 5577" d="M614.313,524.228s.01-5.337-4.617-2.666-4.628,8.013-4.628,8.013-.009,5.348,4.622,2.674S614.313,524.228,614.313,524.228Z" transform="translate(-596.084 -512.496)" fill="#c4c6c0"/>
          </g>
          <path id="Path_5578" data-name="Path 5578" d="M727.341,517.022v-74.7l5.852-3.378v74.7Z" transform="translate(-575.196 -396.543)" fill="#b4a9af"/>
          <path id="Path_5579" data-name="Path 5579" d="M667.026,407.29v74.7L731.4,519.15v-74.7Z" transform="translate(-579.25 -398.672)" fill="#c2c3c2"/>
          <path id="Path_5580" data-name="Path 5580" d="M732.87,512.53v-6.757L645.094,556.45v6.757Z" transform="translate(-580.725 -392.051)" fill="#b4a9af"/>
          <path id="Path_5581" data-name="Path 5581" d="M736.925,508.114l-64.369-37.159L584.78,521.628l64.369,37.163Z" transform="translate(-584.78 -394.392)" fill="#e0e0de"/>
          <path id="Path_5582" data-name="Path 5582" d="M649.149,562.356,584.78,525.193v-6.757L649.149,555.6Z" transform="translate(-584.78 -391.2)" fill="#adb0b6"/>
          <path id="Path_5583" data-name="Path 5583" d="M737.247,441.288l-5.852,3.378L667.026,407.5l5.852-3.379Z" transform="translate(-579.25 -398.884)" fill="#e0e0de"/>
        </g>
        <g id="Group_927" data-name="Group 927" transform="translate(35.594 65.502)">
          <g id="Group_924" data-name="Group 924">
            <path id="Path_5584" data-name="Path 5584" d="M618.131,483.669,658.1,460.59l40.123,23.161L658.254,506.83Z" transform="translate(-618.131 -460.59)" fill="#efcc90"/>
            <path id="Path_5585" data-name="Path 5585" d="M618.28,519.227l-.149-37.012,40.123,23.161V542.3Z" transform="translate(-618.131 -459.136)" fill="#e0b477"/>
            <path id="Path_5586" data-name="Path 5586" d="M695.7,482.293v36.926L655.727,542.3V505.371Z" transform="translate(-615.604 -459.131)" fill="#bb884f"/>
            <path id="Path_5587" data-name="Path 5587" d="M670.709,504.79v-9.231l7.995-4.616v9.232Z" transform="translate(-614.597 -458.55)" fill="#c2aa9c"/>
            <path id="Path_5588" data-name="Path 5588" d="M633.113,473.86l7.995-4.68,40.123,23.226-7.995,4.616Z" transform="translate(-617.124 -460.013)" fill="#f7ecea"/>
          </g>
          <path id="Path_5589" data-name="Path 5589" d="M673.23,469.321l7.992,4.613-39.976,23.077-7.991-4.613Z" transform="translate(-617.115 -460.003)" fill="#f7ecea"/>
          <path id="Path_5590" data-name="Path 5590" d="M633.256,500.177l7.992,4.617,0-9.236-7.991-4.613Z" transform="translate(-617.115 -458.549)" fill="#f4f7ea"/>
          <g id="Group_926" data-name="Group 926" transform="translate(52.556 39.761)">
            <g id="Group_925" data-name="Group 925" clip-path="url(#clip-path-2)">
              <rect id="Rectangle_1900" data-name="Rectangle 1900" width="0.637" height="37.689" transform="translate(0.629 -2.407)" fill="#072d45"/>
              <rect id="Rectangle_1901" data-name="Rectangle 1901" width="0.318" height="37.689" transform="translate(1.58 -2.407)" fill="#072d45"/>
              <rect id="Rectangle_1902" data-name="Rectangle 1902" width="0.318" height="37.689" transform="translate(2.749 -2.407)" fill="#072d45"/>
              <rect id="Rectangle_1903" data-name="Rectangle 1903" width="0.852" height="37.689" transform="translate(4.134 -2.407)" fill="#072d45"/>
              <rect id="Rectangle_1904" data-name="Rectangle 1904" width="0.852" height="37.627" transform="translate(8.527 -2.345)" fill="#072d45"/>
              <rect id="Rectangle_1905" data-name="Rectangle 1905" width="0.318" height="37.689" transform="translate(5.951 -2.407)" fill="#072d45"/>
              <rect id="Rectangle_1906" data-name="Rectangle 1906" width="0.318" height="37.689" transform="translate(16.704 -2.407)" fill="#072d45"/>
              <rect id="Rectangle_1907" data-name="Rectangle 1907" width="0.318" height="37.689" transform="translate(7.553 -2.407)" fill="#072d45"/>
              <rect id="Rectangle_1908" data-name="Rectangle 1908" width="0.318" height="37.689" transform="translate(10.236 -2.407)" fill="#072d45"/>
              <rect id="Rectangle_1909" data-name="Rectangle 1909" width="0.637" height="37.689" transform="translate(11.838 -2.407)" fill="#072d45"/>
              <rect id="Rectangle_1910" data-name="Rectangle 1910" width="0.428" height="37.689" transform="translate(13.329 -2.407)" fill="#072d45"/>
              <rect id="Rectangle_1911" data-name="Rectangle 1911" width="0.522" height="37.689" transform="translate(14.44 -2.407)" fill="#072d45"/>
              <rect id="Rectangle_1912" data-name="Rectangle 1912" width="0.318" height="37.689" transform="translate(15.737 -2.407)" fill="#072d45"/>
              <rect id="Rectangle_1913" data-name="Rectangle 1913" width="1.166" height="37.689" transform="translate(17.714 -2.407)" fill="#072d45"/>
            </g>
          </g>
        </g>
      </g>
      <g id="Group_929" data-name="Group 929" transform="translate(234.517 302.691)">
        <path id="Path_5592" data-name="Path 5592" d="M541.56,543.031,572.624,525.1l43.489,25.108L585.049,568.14Z" transform="translate(-541.56 -525.097)" fill="#efcc90"/>
        <path id="Path_5593" data-name="Path 5593" d="M541.676,570.664,541.56,541.9l43.489,25.108v28.7Z" transform="translate(-541.56 -523.967)" fill="#e0b477"/>
        <path id="Path_5594" data-name="Path 5594" d="M613.373,548.624v28.7l-31.063,17.934v-28.7Z" transform="translate(-538.821 -523.515)" fill="#bb884f"/>
        <path id="Path_5595" data-name="Path 5595" d="M593.952,566.106v-7.174l6.213-3.587v7.174Z" transform="translate(-538.038 -523.064)" fill="#c2aa9c"/>
        <path id="Path_5596" data-name="Path 5596" d="M553.2,535.409l6.213-3.637L602.9,556.93l-6.213,3.587Z" transform="translate(-540.778 -524.648)" fill="#f7ecea"/>
      </g>
      <g id="Group_931" data-name="Group 931" transform="translate(166.178 314.093)">
        <g id="Group_930" data-name="Group 930">
          <path id="Path_5597" data-name="Path 5597" d="M477.526,558.724l39.739-22.943,39.888,23.026L517.414,581.75Z" transform="translate(-477.526 -535.781)" fill="#efcc90"/>
          <path id="Path_5598" data-name="Path 5598" d="M477.674,594.074l-.148-36.795L517.414,580.3v36.709Z" transform="translate(-477.526 -534.336)" fill="#e0b477"/>
          <path id="Path_5599" data-name="Path 5599" d="M554.64,557.356v36.709L514.9,617.009V580.3Z" transform="translate(-475.013 -534.33)" fill="#bb884f"/>
          <path id="Path_5600" data-name="Path 5600" d="M529.8,579.721v-9.177l7.948-4.589v9.177Z" transform="translate(-474.012 -533.752)" fill="#c2aa9c"/>
          <path id="Path_5601" data-name="Path 5601" d="M492.42,548.973l7.948-4.652,39.888,23.089L532.308,572Z" transform="translate(-476.525 -535.207)" fill="#f7ecea"/>
        </g>
        <path id="Path_5602" data-name="Path 5602" d="M532.3,544.461l7.945,4.586L500.5,571.989l-7.944-4.586Z" transform="translate(-476.515 -535.197)" fill="#f7ecea"/>
        <path id="Path_5603" data-name="Path 5603" d="M492.562,575.135l7.945,4.59,0-9.182-7.944-4.586Z" transform="translate(-476.515 -533.752)" fill="#f4f7ea"/>
      </g>
    </g>
  </g>
</svg>
