<svg xmlns="http://www.w3.org/2000/svg" xmlns:xlink="http://www.w3.org/1999/xlink" width="80.028" height="80.028" viewBox="0 0 80.028 80.028">
  <defs>
    <filter id="back" x="0" y="0" width="80.028" height="80.028" filterUnits="userSpaceOnUse">
      <feOffset dy="3" input="SourceAlpha"/>
      <feGaussianBlur stdDeviation="8" result="blur"/>
      <feFlood flood-opacity="0.063"/>
      <feComposite operator="in" in2="blur"/>
      <feComposite in="SourceGraphic"/>
    </filter>
  </defs>
  <g id="twitter" transform="translate(24 21)">
    <g transform="matrix(1, 0, 0, 1, -24, -21)" filter="url(#back)">
      <rect id="back-2" data-name="back" width="32.028" height="32.028" rx="16.014" transform="translate(24 21)" fill="#00aaec"/>
    </g>
    <g id="Twitter_color" data-name="Twitter color" transform="translate(7.605 9.224)">
      <path id="Path_3820" data-name="Path 3820" d="M391.613,206.639a6.659,6.659,0,0,1-1.957.55,3.487,3.487,0,0,0,1.5-1.933,6.713,6.713,0,0,1-2.166.847A3.361,3.361,0,0,0,386.5,205a3.452,3.452,0,0,0-3.407,3.495,3.568,3.568,0,0,0,.088.8,9.6,9.6,0,0,1-7.026-3.653,3.558,3.558,0,0,0-.461,1.759,3.518,3.518,0,0,0,1.516,2.909,3.347,3.347,0,0,1-1.545-.436v.043a3.475,3.475,0,0,0,2.735,3.427,3.25,3.25,0,0,1-.9.123,3.311,3.311,0,0,1-.642-.062,3.421,3.421,0,0,0,3.184,2.426,6.73,6.73,0,0,1-4.233,1.5,6.824,6.824,0,0,1-.813-.048,9.49,9.49,0,0,0,5.225,1.569,9.763,9.763,0,0,0,9.7-9.943c0-.152,0-.3-.009-.453a7,7,0,0,0,1.7-1.809" transform="translate(-375 -205)" fill="#fff" fill-rule="evenodd"/>
    </g>
  </g>
</svg>
