<svg id="_002-sales-assistant" data-name="002-sales-assistant" xmlns="http://www.w3.org/2000/svg" width="72.004" height="124.228" viewBox="0 0 72.004 124.228">
  <path id="Path_5273" data-name="Path 5273" d="M188.562,21.527c.525-10.742-13.1-15.073-26.653-13.815-13.27,1.231-24.475,10.267-26.732,18.89a.875.875,0,0,0,.336.932c2.552,1.855,7.039,1.534,7.039,1.534s-7.745,8.758,1.336,17.17h42.287c.169-4.994,15.269-21.789,2.387-24.711Z" transform="translate(-128.469 -5.68)" fill="#655e67"/>
  <path id="Path_5274" data-name="Path 5274" d="M275.271,21.53c.512-10.473-12.428-14.851-25.635-13.9,10.488.813,19.226,5.548,18.8,14.659,11.495,2.749.712,17.141-1.865,23.95h6.31C273.054,41.246,288.153,24.451,275.271,21.53Z" transform="translate(-215.178 -5.683)" fill="#544f56"/>
  <path id="Path_5275" data-name="Path 5275" d="M149.292,261.881c18.558,0,33.664,6.748,34.185,56.2a2.561,2.561,0,0,1-2.469,2.669H117.576a2.561,2.561,0,0,1-2.469-2.669c.52-49.449,15.626-56.2,34.185-56.2Z" transform="translate(-113.29 -198.34)" fill="#eec06b"/>
  <path id="Path_5276" data-name="Path 5276" d="M250.488,261.881q-.888,0-1.766.022c16,.453,28.78,8.3,29.234,56.175a2.465,2.465,0,0,1-2.226,2.669H282.2a2.561,2.561,0,0,0,2.469-2.669C284.152,268.629,269.047,261.881,250.488,261.881Z" transform="translate(-214.486 -198.34)" fill="#e9a761"/>
  <path id="Path_5277" data-name="Path 5277" d="M115.107,415.521a2.561,2.561,0,0,0,2.469,2.669h63.433a2.561,2.561,0,0,0,2.469-2.669,154.869,154.869,0,0,0-2-24.98h-64.37A154.836,154.836,0,0,0,115.107,415.521Z" transform="translate(-113.29 -295.783)" fill="#faa68e"/>
  <path id="Path_5278" data-name="Path 5278" d="M366.979,390.545v0h-6.52a171.3,171.3,0,0,1,1.8,24.98,2.465,2.465,0,0,1-2.226,2.669h6.473a2.353,2.353,0,0,0,1.5-.543,2.7,2.7,0,0,0,.973-2.127,157.148,157.148,0,0,0-2-24.976Z" transform="translate(-298.791 -295.783)" fill="#e09380"/>
  <path id="Path_5279" data-name="Path 5279" d="M212.926,377.524H172.319a284.334,284.334,0,0,1,2.488-39.44,128.773,128.773,0,0,1,35.631,0A284.292,284.292,0,0,1,212.926,377.524Z" transform="translate(-156.62 -255.117)" fill="#80b6fc"/>
  <path id="Path_5280" data-name="Path 5280" d="M222.381,243.435l-6.154-3.608H204.393l-6.154,3.608a5.19,5.19,0,0,0-1.75,7.269l2.67,4.185a1.18,1.18,0,0,0,1.683.323l7.928-5.7h3.08l7.928,5.7a1.18,1.18,0,0,0,1.683-.323l2.67-4.184a5.19,5.19,0,0,0-1.751-7.269Z" transform="translate(-174.308 -181.637)" fill="#f4daa7"/>
  <path id="Path_5281" data-name="Path 5281" d="M226.375,199v17.031c0,3.214,4,5.294,7.212,5.294s7.212-2.08,7.212-5.294V199Z" transform="translate(-197.561 -150.717)" fill="#faa68e"/>
  <path id="Path_5282" data-name="Path 5282" d="M226.375,210.946a15.435,15.435,0,0,0,9.036,3.311,13.915,13.915,0,0,0,5.388-1.181V199H226.375s0,6.527,0,11.945Z" transform="translate(-197.561 -150.717)" fill="#e09380"/>
  <path id="Path_5283" data-name="Path 5283" d="M198.78,146.554H159.545a5,5,0,1,0,0,10H198.78a5,5,0,1,0,0-10Z" transform="translate(-143.161 -110.995)" fill="#faa68e"/>
  <path id="Path_5284" data-name="Path 5284" d="M221.373,114.716c0,12.749-9.618,19.082-16.368,19.082s-16.368-6.333-16.368-19.082a29.344,29.344,0,0,1,1.985-11.362c3.614-1.625,7.849-2.094,11.873-2.31,4.818-.261,9.846-.34,14.28-2.072,2.848,3.424,4.6,8.6,4.6,15.743Z" transform="translate(-168.978 -74.959)" fill="#faa68e"/>
  <path id="Path_5285" data-name="Path 5285" d="M210.675,376.092H202.46a1.351,1.351,0,0,0-1.351,1.351v4.841a1.351,1.351,0,0,0,1.351,1.351h8.215a1.351,1.351,0,0,0,1.351-1.351v-4.841A1.351,1.351,0,0,0,210.675,376.092Z" transform="translate(-178.425 -284.84)" fill="#e3e0e4"/>
  <g id="Group_881" data-name="Group 881" transform="translate(0 0)">
    <path id="Path_5286" data-name="Path 5286" d="M173.8,80.643c-3.182-7.8-7.739-13.02-13.907-15.933-.006-.025-.01-.05-.016-.075a6.945,6.945,0,0,0-3.269-4.4l-3.936-2.309v-.166a19.635,19.635,0,0,0,2.956-2.373,20.148,20.148,0,0,0,5.006-8.006h2.6a6.812,6.812,0,0,0,5.552-10.766c.335-.642.7-1.316,1.077-2.019,2.955-5.478,6.3-11.686,4.221-16.27a7.356,7.356,0,0,0-4.565-3.845,12.274,12.274,0,0,0-3.9-8.276C160.693,1.481,151.446-.753,140.89.226a36.392,36.392,0,0,0-7.581,1.537,1.82,1.82,0,1,0,1.1,3.471,32.752,32.752,0,0,1,6.821-1.384c9.379-.869,17.764,1.039,21.882,4.981a8.651,8.651,0,0,1,2.784,6.933,1.82,1.82,0,0,0,1.415,1.863c1.849.419,2.982,1.14,3.465,2.2,1.336,2.94-1.812,8.776-4.11,13.037-.262.486-.516.958-.762,1.42a6.781,6.781,0,0,0-2.664-.543h-1.855a22.121,22.121,0,0,0-4.57-10.887,1.821,1.821,0,0,0-2.061-.531c-3.7,1.447-8.035,1.663-12.224,1.873-4.737.236-9.609.564-14.011,2.544a1.819,1.819,0,0,0-.932.956,26.4,26.4,0,0,0-1.673,6.046h-1.906a6.771,6.771,0,0,0-3.047.722c-1.846-5.226,1.932-9.664,2.108-9.866a1.821,1.821,0,0,0-1.49-3.021,11.91,11.91,0,0,1-5.293-.857c1.394-4.347,5.318-8.817,10.637-12.075a1.82,1.82,0,1,0-1.9-3.1c-6.373,3.9-11.027,9.483-12.45,14.922a2.684,2.684,0,0,0,1.026,2.868,10.576,10.576,0,0,0,4.837,1.737,13.343,13.343,0,0,0-.3,12.039A6.813,6.813,0,0,0,124,47.379h2.646a20.148,20.148,0,0,0,5.006,8.006,19.62,19.62,0,0,0,2.958,2.373V57.9l-3.984,2.335a6.948,6.948,0,0,0-3.271,4.4c-.006.024-.01.048-.016.072a24.38,24.38,0,0,0-8.463,6.589,1.82,1.82,0,1,0,2.794,2.331,21.225,21.225,0,0,1,4.758-4.26A193.027,193.027,0,0,0,122.8,92.94h-9.172a57.46,57.46,0,0,1,3.865-12.5,1.82,1.82,0,1,0-3.309-1.514c-4.224,9.234-6.371,22.578-6.562,40.8a4.571,4.571,0,0,0,1.3,3.248,4.182,4.182,0,0,0,2.988,1.26h36.662a1.82,1.82,0,0,0,0-3.639H125.151A282.147,282.147,0,0,1,127.422,84.6a127.5,127.5,0,0,1,32.4,0,282.127,282.127,0,0,1,2.272,35.993h-5.031a1.82,1.82,0,0,0,0,3.639h18.276a4.181,4.181,0,0,0,2.989-1.262,4.57,4.57,0,0,0,1.3-3.248C179.442,102.578,177.539,89.8,173.8,80.643Zm-3.369,1.375a60.905,60.905,0,0,1,3.18,10.922h-9.171a193.019,193.019,0,0,0-3.634-23.557c4.092,2.677,7.261,6.842,9.624,12.636ZM154.771,63.372a3.368,3.368,0,0,1,1.137,4.717L153.6,71.7l-2.854-2.052a6.013,6.013,0,0,0,1.928-4.335V62.143Zm-7.945,4.64a6.884,6.884,0,0,1-6.361,0l-.049-.025a3.331,3.331,0,0,1-2.163-2.672v-5.7a14.477,14.477,0,0,0,10.782,0v5.7c0,1.087-.941,2.055-2.2,2.691l-.009,0Zm16.41-30.63a3.178,3.178,0,0,1,0,6.356h-1.71a25.418,25.418,0,0,0,.305-3.977c0-.814-.025-1.605-.067-2.379ZM124,43.739a3.178,3.178,0,0,1,0-6.356h1.519q-.066,1.163-.067,2.379a25.42,25.42,0,0,0,.305,3.977Zm5.789,1.456a1.778,1.778,0,0,0-.05-.191,28.242,28.242,0,0,1,.928-15.226,34.006,34.006,0,0,1,10.56-1.871c4.521-.245,9.18-.334,13.536-1.73,3.64,5.261,4.071,14.333,2.774,18.837,0,.017-.009.034-.013.051-1.96,7.386-8.362,11.958-13.884,11.958-5.507,0-11.851-4.507-13.851-11.829Zm2.677,18.176,2.144-1.257v3.2a6.008,6.008,0,0,0,1.907,4.316L133.639,71.7l-2.307-3.615a3.368,3.368,0,0,1,1.138-4.718Zm-20.564,57.215a.567.567,0,0,1-.4-.181.909.909,0,0,1-.247-.65,158.857,158.857,0,0,1,1.711-23.178h9.511c-.581,7.286-.892,15.181-.968,24.008Zm16.065-39.731c.469-2.986,1-5.9,1.6-8.762l1.365,2.138a3,3,0,0,0,4.28.822l4.642-3.336a10.409,10.409,0,0,0,7.544.012l4.625,3.325a3.014,3.014,0,0,0,1.755.563,2.974,2.974,0,0,0,.563-.053,3.011,3.011,0,0,0,1.961-1.331l1.365-2.138c.6,2.866,1.13,5.776,1.6,8.762A131.15,131.15,0,0,0,127.971,80.857Zm47.765,39.551a.567.567,0,0,1-.4.181h-9.606c-.076-8.828-.387-16.723-.968-24.009h9.511a158.754,158.754,0,0,1,1.71,23.179A.911.911,0,0,1,175.736,120.407Z" transform="translate(-107.618 0)"/>
    <path id="Path_5287" data-name="Path 5287" d="M279.976,156.685a1.82,1.82,0,0,0,1.82-1.82v-.594a1.82,1.82,0,1,0-3.639,0v.594A1.82,1.82,0,0,0,279.976,156.685Z" transform="translate(-236.778 -115.462)"/>
    <path id="Path_5288" data-name="Path 5288" d="M222.485,154.271a1.82,1.82,0,1,0-3.639,0v.594a1.82,1.82,0,1,0,3.639,0Z" transform="translate(-191.859 -115.462)"/>
    <path id="Path_5289" data-name="Path 5289" d="M243.289,187.152a1.82,1.82,0,0,0-2.545-.378,4.357,4.357,0,0,1-5.84,0,1.82,1.82,0,0,0-2.168,2.923,7.917,7.917,0,0,0,10.175,0A1.82,1.82,0,0,0,243.289,187.152Z" transform="translate(-201.821 -141.185)"/>
    <path id="Path_5290" data-name="Path 5290" d="M196.783,368.6a3.175,3.175,0,0,0-3.171,3.171v4.841a3.175,3.175,0,0,0,3.171,3.171H205a3.175,3.175,0,0,0,3.171-3.171v-4.841A3.174,3.174,0,0,0,205,368.6Zm7.747,7.543h-7.278v-3.9h7.278Z" transform="translate(-172.747 -279.167)"/>
  </g>
</svg>
