<svg id="_001-18" data-name="001-18" xmlns="http://www.w3.org/2000/svg" width="124.227" height="90.094" viewBox="0 0 124.227 90.094">
  <g id="Group_879" data-name="Group 879" transform="translate(1.82 1.82)">
    <path id="Path_5260" data-name="Path 5260" d="M7.5,151.989V90.144a12.3,12.3,0,0,1,12.3-12.3h95.979a12.3,12.3,0,0,1,12.3,12.3v61.846a12.3,12.3,0,0,1-12.3,12.3H19.8a12.3,12.3,0,0,1-12.3-12.3Z" transform="translate(-7.5 -77.839)" fill="#fed73a"/>
    <path id="Path_5261" data-name="Path 5261" d="M42.526,179.736a5.031,5.031,0,0,1-5.026-5.026V112.865a5.031,5.031,0,0,1,5.026-5.026H138.5a5.031,5.031,0,0,1,5.026,5.026v61.846a5.031,5.031,0,0,1-5.026,5.026Z" transform="translate(-30.221 -100.56)" fill="#fff1b5"/>
    <path id="Path_5262" data-name="Path 5262" d="M423.492,107.839h-9.705a5.031,5.031,0,0,1,5.026,5.026V174.71a5.031,5.031,0,0,1-5.026,5.026h9.705a5.031,5.031,0,0,0,5.026-5.026V112.865A5.031,5.031,0,0,0,423.492,107.839Z" transform="translate(-315.209 -100.56)" fill="#ffea91"/>
    <g id="Group_878" data-name="Group 878" transform="translate(21.246 24.054)">
      <path id="Path_5263" data-name="Path 5263" d="M113.331,232.131h-5.273v-5.325H100.6v5.325H95.063v7.511H100.6v5.593h7.457v-5.593h5.273Z" transform="translate(-95.063 -214.716)" fill="#fed73a"/>
      <g id="Group_877" data-name="Group 877" transform="translate(28.054 0.506)">
        <path id="Path_5264" data-name="Path 5264" d="M224.135,216.9h-7.457v-30.33h-5.991v-7.511h13.448Z" transform="translate(-210.687 -179.063)" fill="#fed73a"/>
      </g>
      <path id="Path_5265" data-name="Path 5265" d="M328.459,191.479a9.806,9.806,0,1,0-17.219,0,13.4,13.4,0,1,0,17.219,0Zm-9.015-6.956a2.324,2.324,0,1,1-1.638,3.4,2.3,2.3,0,0,1-.272-1.078A2.341,2.341,0,0,1,319.444,184.523Zm-.01,23.276a6,6,0,0,1-3.4-10.567,5.905,5.905,0,0,1,7.632,0,5.995,5.995,0,0,1-4.232,10.567Z" transform="translate(-255.157 -176.978)" fill="#fed73a"/>
    </g>
  </g>
  <g id="Group_880" data-name="Group 880" transform="translate(0 0)">
    <path id="Path_5266" data-name="Path 5266" d="M87.563,226.451v7.511a1.82,1.82,0,0,0,1.82,1.82H93.1v3.773a1.82,1.82,0,0,0,1.82,1.82h7.457a1.82,1.82,0,0,0,1.82-1.82v-3.773h3.453a1.82,1.82,0,0,0,1.82-1.82v-7.511a1.82,1.82,0,0,0-1.82-1.82H104.2v-3.505a1.82,1.82,0,0,0-1.82-1.82H94.921a1.82,1.82,0,0,0-1.82,1.82v3.505H89.383A1.82,1.82,0,0,0,87.563,226.451Zm3.639,1.82h3.719a1.82,1.82,0,0,0,1.82-1.82v-3.505h3.818v3.505a1.82,1.82,0,0,0,1.82,1.82h3.453v3.871h-3.453a1.82,1.82,0,0,0-1.82,1.82v3.773H96.741v-3.773a1.82,1.82,0,0,0-1.82-1.82H91.2Z" transform="translate(-66.317 -183.162)"/>
    <path id="Path_5267" data-name="Path 5267" d="M211,213.043h7.457a1.82,1.82,0,0,0,1.82-1.82V173.383a1.82,1.82,0,0,0-1.82-1.82H205.007a1.82,1.82,0,0,0-1.82,1.82v7.51a1.82,1.82,0,0,0,1.82,1.82h4.171v28.51A1.82,1.82,0,0,0,211,213.043Zm-4.171-33.969V175.2h9.809v34.2h-3.818v-28.51a1.82,1.82,0,0,0-1.82-1.82Z" transform="translate(-153.887 -147.003)"/>
    <path id="Path_5268" data-name="Path 5268" d="M348.783,208.735a4.149,4.149,0,1,0-.713-8.238,4.175,4.175,0,0,0-3.422,4.125,4.138,4.138,0,0,0,4.135,4.112Zm-.1-4.651h0a.593.593,0,0,1,.1-.008.469.469,0,0,1,.31.115.513.513,0,0,1,.185.4.489.489,0,0,1-.057.24.493.493,0,0,1-.878,0,.483.483,0,0,1-.056-.234A.524.524,0,0,1,348.686,204.084Z" transform="translate(-261.026 -168.871)"/>
    <path id="Path_5269" data-name="Path 5269" d="M337.459,262.8a7.667,7.667,0,0,0,5.272-2.087,7.831,7.831,0,0,0-.29-11.7,7.712,7.712,0,0,0-9.982,0,7.817,7.817,0,0,0,4.451,13.772Q337.185,262.8,337.459,262.8Zm-4.042-6.911a4.213,4.213,0,0,1,1.391-4.1,4.082,4.082,0,0,1,5.284,0,4.191,4.191,0,0,1,.156,6.264,4.073,4.073,0,0,1-3.088,1.1,4.135,4.135,0,0,1-3.743-3.261Z" transform="translate(-249.692 -204.27)"/>
    <path id="Path_5270" data-name="Path 5270" d="M314.169,211.463A15.1,15.1,0,0,0,322.454,209a1.821,1.821,0,0,0-1.992-3.046,11.469,11.469,0,0,1-6.293,1.872,11.7,11.7,0,0,1-7.435-20.636,1.82,1.82,0,0,0,.43-2.248,7.97,7.97,0,0,1,.281-7.914,7.736,7.736,0,0,1,13.447,0,7.972,7.972,0,0,1,.281,7.915,1.82,1.82,0,0,0,.43,2.248,11.8,11.8,0,0,1,3.494,12.839,1.821,1.821,0,0,0,3.436,1.2,15.479,15.479,0,0,0-3.557-15.87,11.629,11.629,0,0,0-.963-10.2,11.375,11.375,0,0,0-19.69,0,11.628,11.628,0,0,0-.964,10.2,15.338,15.338,0,0,0,10.809,26.106Z" transform="translate(-226.411 -145.423)"/>
    <path id="Path_5271" data-name="Path 5271" d="M110.1,70.339H14.124A14.14,14.14,0,0,0,0,84.463v61.846a14.14,14.14,0,0,0,14.124,14.124H110.1a14.14,14.14,0,0,0,14.124-14.124V84.463A14.14,14.14,0,0,0,110.1,70.339Zm10.485,75.97A10.5,10.5,0,0,1,110.1,156.794H14.124A10.5,10.5,0,0,1,3.639,146.309V84.463A10.5,10.5,0,0,1,14.124,73.978H110.1a10.5,10.5,0,0,1,10.485,10.485v61.846Z" transform="translate(0 -70.339)"/>
    <path id="Path_5272" data-name="Path 5272" d="M132.824,100.339H54.92a1.821,1.821,0,0,0,0,3.639h77.9a3.21,3.21,0,0,1,3.206,3.206V169.03a3.21,3.21,0,0,1-3.206,3.206H36.845a3.21,3.21,0,0,1-3.206-3.206V107.184a3.21,3.21,0,0,1,3.206-3.206h7.47a1.821,1.821,0,0,0,0-3.639h-7.47A6.853,6.853,0,0,0,30,107.184V169.03a6.853,6.853,0,0,0,6.845,6.845h95.979a6.853,6.853,0,0,0,6.845-6.845V107.184a6.853,6.853,0,0,0-6.845-6.845Z" transform="translate(-22.721 -93.06)"/>
  </g>
</svg>
